  0
SECTION
  2
HEADER
  9
$ACADVER
  1
AC1014
  9
$HANDSEED
  5
FFFF
  9
$MEASUREMENT
 70
     1
  0
ENDSEC
  0
SECTION
  2
TABLES
  0
TABLE
  2
VPORT
  5
8
330
0
100
AcDbSymbolTable
 70
     4
  0
VPORT
  5
2E
330
8
100
AcDbSymbolTableRecord
100
AcDbViewportTableRecord
  2
*ACTIVE
 70
     0
 10
0.0
 20
0.0
 11
1.0
 21
1.0
 12
210.0
 22
148.5
 13
0.0
 23
0.0
 14
10.0
 24
10.0
 15
10.0
 25
10.0
 16
0.0
 26
0.0
 36
1.0
 17
0.0
 27
0.0
 37
0.0
 40
341.0
 41
1.24
 42
50.0
 43
0.0
 44
0.0
 50
0.0
 51
0.0
 71
     0
 72
   100
 73
     1
 74
     3
 75
     0
 76
     0
 77
     0
 78
     0
  0
ENDTAB
  0
TABLE
  2
LTYPE
  5
5
330
0
100
AcDbSymbolTable
 70
     1
  0
LTYPE
  5
14
330
5
100
AcDbSymbolTableRecord
100
AcDbLinetypeTableRecord
  2
BYBLOCK
 70
     0
  3

 72
    65
 73
     0
 40
0.0
  0
LTYPE
  5
15
330
5
100
AcDbSymbolTableRecord
100
AcDbLinetypeTableRecord
  2
BYLAYER
 70
     0
  3

 72
    65
 73
     0
 40
0.0
  0
LTYPE
  5
16
330
5
100
AcDbSymbolTableRecord
100
AcDbLinetypeTableRecord
  2
CONTINUOUS
 70
     0
  3
Solid line
 72
    65
 73
     0
 40
0.0
  0
ENDTAB
  0
TABLE
  2
LAYER
  5
2
100
AcDbSymbolTable
 70
1
  0
LAYER
  5
50
100
AcDbSymbolTableRecord
100
AcDbLayerTableRecord
  2
0
 70
0
  6
CONTINUOUS
  0
ENDTAB
  0
TABLE
  2
STYLE
  5
3
330
0
100
AcDbSymbolTable
 70
     1
  0
STYLE
  5
11
330
3
100
AcDbSymbolTableRecord
100
AcDbTextStyleTableRecord
  2
STANDARD
 70
     0
 40
0.0
 41
1.0
 50
0.0
 71
     0
 42
2.5
  3
txt
  4

  0
ENDTAB
  0
TABLE
  2
VIEW
  5
6
330
0
100
AcDbSymbolTable
 70
     0
  0
ENDTAB
  0
TABLE
  2
UCS
  5
7
330
0
100
AcDbSymbolTable
 70
     0
  0
ENDTAB
  0
TABLE
  2
APPID
  5
9
330
0
100
AcDbSymbolTable
 70
     2
  0
APPID
  5
12
330
9
100
AcDbSymbolTableRecord
100
AcDbRegAppTableRecord
  2
ACAD
 70
     0
  0
ENDTAB
  0
TABLE
  2
DIMSTYLE
  5
A
330
0
100
AcDbSymbolTable
 70
     1
  0
DIMSTYLE
105
27
330
A
100
AcDbSymbolTableRecord
100
AcDbDimStyleTableRecord
  2
ISO-25
 70
     0
  3

  4

  5

  6

  7

 40
1.0
 41
2.5
 42
0.625
 43
3.75
 44
1.25
 45
0.0
 46
0.0
 47
0.0
 48
0.0
140
2.5
141
2.5
142
0.0
143
0.03937007874016
144
1.0
145
0.0
146
1.0
147
0.625
 71
     0
 72
     0
 73
     0
 74
     0
 75
     0
 76
     0
 77
     1
 78
     8
170
     0
171
     3
172
     1
173
     0
174
     0
175
     0
176
     0
177
     0
178
     0
270
     2
271
     2
272
     2
273
     2
274
     3
340
11
275
     0
280
     0
281
     0
282
     0
283
     0
284
     8
285
     0
286
     0
287
     3
288
     0
  0
ENDTAB
  0
TABLE
  2
BLOCK_RECORD
  5
1
330
0
100
AcDbSymbolTable
 70
     1
  0
BLOCK_RECORD
  5
1F
330
1
100
AcDbSymbolTableRecord
100
AcDbBlockTableRecord
  2
*MODEL_SPACE
  0
BLOCK_RECORD
  5
1B
330
1
100
AcDbSymbolTableRecord
100
AcDbBlockTableRecord
  2
*PAPER_SPACE
  0
ENDTAB
  0
ENDSEC
  0
SECTION
  2
BLOCKS
  0
BLOCK
  5
20
330
1F
100
AcDbEntity
  8
0
100
AcDbBlockBegin
  2
*MODEL_SPACE
 70
     0
 10
0.0
 20
0.0
 30
0.0
  3
*MODEL_SPACE
  1

  0
ENDBLK
  5
21
330
1F
100
AcDbEntity
  8
0
100
AcDbBlockEnd
  0
BLOCK
  5
1C
330
1B
100
AcDbEntity
 67
     1
  8
0
100
AcDbBlockBegin
  2
*PAPER_SPACE
  1

  0
ENDBLK
  5
1D
330
1B
100
AcDbEntity
 67
     1
  8
0
100
AcDbBlockEnd
  0
ENDSEC
  0
SECTION
  2
ENTITIES
  0
LINE
  5
100
100
AcDbEntity
  8
0
 62
7
100
AcDbLine
 10
52.999998
 20
-6.865386
 30
0.0
 11
67.019998
 21
-6.865386
 31
0.0
  0
LINE
  5
101
100
AcDbEntity
  8
0
 62
7
100
AcDbLine
 10
67.019998
 20
-6.865386
 30
0.0
 11
67.019998
 21
-20.895385
 31
0.0
  0
LINE
  5
102
100
AcDbEntity
  8
0
 62
7
100
AcDbLine
 10
67.019998
 20
-20.895385
 30
0.0
 11
52.999998
 21
-20.895385
 31
0.0
  0
LINE
  5
103
100
AcDbEntity
  8
0
 62
7
100
AcDbLine
 10
52.999998
 20
-20.895385
 30
0.0
 11
52.999998
 21
-6.865386
 31
0.0
  0
SPLINE
  5
104
100
AcDbEntity
  8
0
 62
7
100
AcDbSpline
 70
8
 71
3
 72
8
 73
4
 74
0
 40
0
 40
0
 40
0
 40
0
 40
1
 40
1
 40
1
 40
1
 10
59.989998
 20
-6.865386
 30
0.0
 10
63.949998
 20
-6.865386
 30
0.0
 10
66.989998
 20
-9.895385
 30
0.0
 10
66.989998
 20
-13.855385
 30
0.0
  0
SPLINE
  5
105
100
AcDbEntity
  8
0
 62
7
100
AcDbSpline
 70
8
 71
3
 72
8
 73
4
 74
0
 40
0
 40
0
 40
0
 40
0
 40
1
 40
1
 40
1
 40
1
 10
66.989998
 20
-13.855385
 30
0.0
 10
66.989998
 20
-17.815385
 30
0.0
 10
63.949998
 20
-20.855385
 30
0.0
 10
59.989998
 20
-20.855385
 30
0.0
  0
SPLINE
  5
106
100
AcDbEntity
  8
0
 62
7
100
AcDbSpline
 70
8
 71
3
 72
8
 73
4
 74
0
 40
0
 40
0
 40
0
 40
0
 40
1
 40
1
 40
1
 40
1
 10
59.989998
 20
-20.855385
 30
0.0
 10
56.029998
 20
-20.855385
 30
0.0
 10
52.999998
 20
-17.815385
 30
0.0
 10
52.999998
 20
-13.855385
 30
0.0
  0
SPLINE
  5
107
100
AcDbEntity
  8
0
 62
7
100
AcDbSpline
 70
8
 71
3
 72
8
 73
4
 74
0
 40
0
 40
0
 40
0
 40
0
 40
1
 40
1
 40
1
 40
1
 10
52.999998
 20
-13.855385
 30
0.0
 10
52.999998
 20
-9.895385
 30
0.0
 10
56.029998
 20
-6.865386
 30
0.0
 10
59.989998
 20
-6.865386
 30
0.0
  0
LINE
  5
108
100
AcDbEntity
  8
0
 62
7
100
AcDbLine
 10
59.989998
 20
-6.865386
 30
0.0
 11
59.989998
 21
-6.865386
 31
0.0
  0
LINE
  5
109
100
AcDbEntity
  8
0
 62
7
100
AcDbLine
 10
52.999998
 20
-6.865386
 30
0.0
 11
52.999998
 21
-6.865386
 31
0.0
  0
LINE
  5
10a
100
AcDbEntity
  8
0
 62
7
100
AcDbLine
 10
52.999998
 20
-6.865386
 30
0.0
 11
52.999998
 21
-6.865386
 31
0.0
  0
LINE
  5
10b
100
AcDbEntity
  8
0
 62
7
100
AcDbLine
 10
67.009998
 20
-20.875385
 30
0.0
 11
67.009998
 21
-20.875385
 31
0.0
  0
LINE
  5
10c
100
AcDbEntity
  8
0
 62
7
100
AcDbLine
 10
67.009998
 20
-20.875385
 30
0.0
 11
67.009998
 21
-20.875385
 31
0.0
  0
LINE
  5
10d
100
AcDbEntity
  8
0
 62
7
100
AcDbLine
 10
44.989999
 20
1.114614
 30
0.0
 11
75.019998
 21
1.114614
 31
0.0
  0
LINE
  5
10e
100
AcDbEntity
  8
0
 62
7
100
AcDbLine
 10
75.019998
 20
1.114614
 30
0.0
 11
75.019998
 21
-28.885385
 31
0.0
  0
LINE
  5
10f
100
AcDbEntity
  8
0
 62
7
100
AcDbLine
 10
75.019998
 20
-28.885385
 30
0.0
 11
44.989999
 21
-28.885385
 31
0.0
  0
LINE
  5
110
100
AcDbEntity
  8
0
 62
7
100
AcDbLine
 10
44.989999
 20
-28.885385
 30
0.0
 11
44.989999
 21
1.114614
 31
0.0
  0
LINE
  5
111
100
AcDbEntity
  8
0
 62
7
100
AcDbLine
 10
72.289998
 20
-5.285386
 30
0.0
 11
71.849998
 21
-4.685386
 31
0.0
  0
LINE
  5
112
100
AcDbEntity
  8
0
 62
7
100
AcDbLine
 10
71.849998
 20
-4.685386
 30
0.0
 11
71.379998
 21
-4.115386
 31
0.0
  0
LINE
  5
113
100
AcDbEntity
  8
0
 62
7
100
AcDbLine
 10
71.379998
 20
-4.115386
 30
0.0
 11
70.879998
 21
-3.565386
 31
0.0
  0
LINE
  5
114
100
AcDbEntity
  8
0
 62
7
100
AcDbLine
 10
70.879998
 20
-3.565386
 30
0.0
 11
70.349998
 21
-3.035386
 31
0.0
  0
LINE
  5
115
100
AcDbEntity
  8
0
 62
7
100
AcDbLine
 10
70.349998
 20
-3.035386
 30
0.0
 11
69.799998
 21
-2.535386
 31
0.0
  0
LINE
  5
116
100
AcDbEntity
  8
0
 62
7
100
AcDbLine
 10
69.799998
 20
-2.535386
 30
0.0
 11
69.229998
 21
-2.065386
 31
0.0
  0
LINE
  5
117
100
AcDbEntity
  8
0
 62
7
100
AcDbLine
 10
69.229998
 20
-2.065386
 30
0.0
 11
68.629998
 21
-1.625386
 31
0.0
  0
LINE
  5
118
100
AcDbEntity
  8
0
 62
7
100
AcDbLine
 10
68.629998
 20
-1.625386
 30
0.0
 11
68.009998
 21
-1.205386
 31
0.0
  0
LINE
  5
119
100
AcDbEntity
  8
0
 62
7
100
AcDbLine
 10
68.009998
 20
-1.205386
 30
0.0
 11
67.369998
 21
-0.825386
 31
0.0
  0
LINE
  5
11a
100
AcDbEntity
  8
0
 62
7
100
AcDbLine
 10
67.369998
 20
-0.825386
 30
0.0
 11
66.719998
 21
-0.475386
 31
0.0
  0
LINE
  5
11b
100
AcDbEntity
  8
0
 62
7
100
AcDbLine
 10
66.719998
 20
-0.475386
 30
0.0
 11
66.039998
 21
-0.165386
 31
0.0
  0
LINE
  5
11c
100
AcDbEntity
  8
0
 62
7
100
AcDbLine
 10
66.039998
 20
-0.165386
 30
0.0
 11
65.349998
 21
0.114614
 31
0.0
  0
LINE
  5
11d
100
AcDbEntity
  8
0
 62
7
100
AcDbLine
 10
65.349998
 20
0.114614
 30
0.0
 11
64.649998
 21
0.374614
 31
0.0
  0
LINE
  5
11e
100
AcDbEntity
  8
0
 62
7
100
AcDbLine
 10
64.649998
 20
0.374614
 30
0.0
 11
63.939998
 21
0.594614
 31
0.0
  0
LINE
  5
11f
100
AcDbEntity
  8
0
 62
7
100
AcDbLine
 10
63.939998
 20
0.594614
 30
0.0
 11
63.219998
 21
0.764614
 31
0.0
  0
LINE
  5
120
100
AcDbEntity
  8
0
 62
7
100
AcDbLine
 10
63.219998
 20
0.764614
 30
0.0
 11
62.489998
 21
0.904614
 31
0.0
  0
LINE
  5
121
100
AcDbEntity
  8
0
 62
7
100
AcDbLine
 10
62.489998
 20
0.904614
 30
0.0
 11
61.749998
 21
1.014614
 31
0.0
  0
LINE
  5
122
100
AcDbEntity
  8
0
 62
7
100
AcDbLine
 10
61.749998
 20
1.014614
 30
0.0
 11
61.009998
 21
1.084614
 31
0.0
  0
LINE
  5
123
100
AcDbEntity
  8
0
 62
7
100
AcDbLine
 10
61.009998
 20
1.084614
 30
0.0
 11
60.269998
 21
1.114614
 31
0.0
  0
LINE
  5
124
100
AcDbEntity
  8
0
 62
7
100
AcDbLine
 10
60.269998
 20
1.114614
 30
0.0
 11
59.529998
 21
1.104614
 31
0.0
  0
LINE
  5
125
100
AcDbEntity
  8
0
 62
7
100
AcDbLine
 10
59.529998
 20
1.104614
 30
0.0
 11
58.779998
 21
1.064614
 31
0.0
  0
LINE
  5
126
100
AcDbEntity
  8
0
 62
7
100
AcDbLine
 10
58.779998
 20
1.064614
 30
0.0
 11
58.039998
 21
0.984614
 31
0.0
  0
LINE
  5
127
100
AcDbEntity
  8
0
 62
7
100
AcDbLine
 10
58.039998
 20
0.984614
 30
0.0
 11
57.309998
 21
0.864614
 31
0.0
  0
LINE
  5
128
100
AcDbEntity
  8
0
 62
7
100
AcDbLine
 10
57.309998
 20
0.864614
 30
0.0
 11
56.579998
 21
0.714614
 31
0.0
  0
LINE
  5
129
100
AcDbEntity
  8
0
 62
7
100
AcDbLine
 10
56.579998
 20
0.714614
 30
0.0
 11
55.859998
 21
0.524614
 31
0.0
  0
LINE
  5
12a
100
AcDbEntity
  8
0
 62
7
100
AcDbLine
 10
55.859998
 20
0.524614
 30
0.0
 11
55.149998
 21
0.314614
 31
0.0
  0
LINE
  5
12b
100
AcDbEntity
  8
0
 62
7
100
AcDbLine
 10
55.149998
 20
0.314614
 30
0.0
 11
54.449998
 21
0.054614
 31
0.0
  0
LINE
  5
12c
100
AcDbEntity
  8
0
 62
7
100
AcDbLine
 10
54.449998
 20
0.054614
 30
0.0
 11
53.769998
 21
-0.235386
 31
0.0
  0
LINE
  5
12d
100
AcDbEntity
  8
0
 62
7
100
AcDbLine
 10
53.769998
 20
-0.235386
 30
0.0
 11
53.099998
 21
-0.565386
 31
0.0
  0
LINE
  5
12e
100
AcDbEntity
  8
0
 62
7
100
AcDbLine
 10
53.099998
 20
-0.565386
 30
0.0
 11
52.449998
 21
-0.925386
 31
0.0
  0
LINE
  5
12f
100
AcDbEntity
  8
0
 62
7
100
AcDbLine
 10
52.449998
 20
-0.925386
 30
0.0
 11
51.819998
 21
-1.315386
 31
0.0
  0
LINE
  5
130
100
AcDbEntity
  8
0
 62
7
100
AcDbLine
 10
51.819998
 20
-1.315386
 30
0.0
 11
51.209998
 21
-1.735386
 31
0.0
  0
LINE
  5
131
100
AcDbEntity
  8
0
 62
7
100
AcDbLine
 10
51.209998
 20
-1.735386
 30
0.0
 11
50.609998
 21
-2.185386
 31
0.0
  0
LINE
  5
132
100
AcDbEntity
  8
0
 62
7
100
AcDbLine
 10
50.609998
 20
-2.185386
 30
0.0
 11
50.049998
 21
-2.665386
 31
0.0
  0
LINE
  5
133
100
AcDbEntity
  8
0
 62
7
100
AcDbLine
 10
50.049998
 20
-2.665386
 30
0.0
 11
49.499998
 21
-3.175386
 31
0.0
  0
LINE
  5
134
100
AcDbEntity
  8
0
 62
7
100
AcDbLine
 10
49.499998
 20
-3.175386
 30
0.0
 11
48.989998
 21
-3.705386
 31
0.0
  0
LINE
  5
135
100
AcDbEntity
  8
0
 62
7
100
AcDbLine
 10
48.989998
 20
-3.705386
 30
0.0
 11
48.499998
 21
-4.265386
 31
0.0
  0
LINE
  5
136
100
AcDbEntity
  8
0
 62
7
100
AcDbLine
 10
48.499998
 20
-4.265386
 30
0.0
 11
48.029998
 21
-4.845386
 31
0.0
  0
LINE
  5
137
100
AcDbEntity
  8
0
 62
7
100
AcDbLine
 10
48.029998
 20
-4.845386
 30
0.0
 11
47.599998
 21
-5.455386
 31
0.0
  0
LINE
  5
138
100
AcDbEntity
  8
0
 62
7
100
AcDbLine
 10
47.599998
 20
-5.455386
 30
0.0
 11
47.199998
 21
-6.085386
 31
0.0
  0
LINE
  5
139
100
AcDbEntity
  8
0
 62
7
100
AcDbLine
 10
47.199998
 20
-6.085386
 30
0.0
 11
46.819998
 21
-6.725386
 31
0.0
  0
LINE
  5
13a
100
AcDbEntity
  8
0
 62
7
100
AcDbLine
 10
46.819998
 20
-6.725386
 30
0.0
 11
46.479998
 21
-7.385386
 31
0.0
  0
LINE
  5
13b
100
AcDbEntity
  8
0
 62
7
100
AcDbLine
 10
46.479998
 20
-7.385386
 30
0.0
 11
46.179998
 21
-8.065385
 31
0.0
  0
LINE
  5
13c
100
AcDbEntity
  8
0
 62
7
100
AcDbLine
 10
46.179998
 20
-8.065385
 30
0.0
 11
45.909998
 21
-8.755385
 31
0.0
  0
LINE
  5
13d
100
AcDbEntity
  8
0
 62
7
100
AcDbLine
 10
45.909998
 20
-8.755385
 30
0.0
 11
45.669998
 21
-9.455385
 31
0.0
  0
LINE
  5
13e
100
AcDbEntity
  8
0
 62
7
100
AcDbLine
 10
45.669998
 20
-9.455385
 30
0.0
 11
45.469998
 21
-10.175385
 31
0.0
  0
LINE
  5
13f
100
AcDbEntity
  8
0
 62
7
100
AcDbLine
 10
45.469998
 20
-10.175385
 30
0.0
 11
45.309998
 21
-10.895385
 31
0.0
  0
LINE
  5
140
100
AcDbEntity
  8
0
 62
7
100
AcDbLine
 10
45.309998
 20
-10.895385
 30
0.0
 11
45.179998
 21
-11.625385
 31
0.0
  0
LINE
  5
141
100
AcDbEntity
  8
0
 62
7
100
AcDbLine
 10
45.179998
 20
-11.625385
 30
0.0
 11
45.079998
 21
-12.365385
 31
0.0
  0
LINE
  5
142
100
AcDbEntity
  8
0
 62
7
100
AcDbLine
 10
45.079998
 20
-12.365385
 30
0.0
 11
45.029999
 21
-13.105385
 31
0.0
  0
LINE
  5
143
100
AcDbEntity
  8
0
 62
7
100
AcDbLine
 10
45.029999
 20
-13.105385
 30
0.0
 11
45.009999
 21
-13.855385
 31
0.0
  0
LINE
  5
144
100
AcDbEntity
  8
0
 62
7
100
AcDbLine
 10
45.009999
 20
-13.855385
 30
0.0
 11
45.029999
 21
-14.595385
 31
0.0
  0
LINE
  5
145
100
AcDbEntity
  8
0
 62
7
100
AcDbLine
 10
45.029999
 20
-14.595385
 30
0.0
 11
45.079998
 21
-15.335385
 31
0.0
  0
LINE
  5
146
100
AcDbEntity
  8
0
 62
7
100
AcDbLine
 10
45.079998
 20
-15.335385
 30
0.0
 11
45.179998
 21
-16.075385
 31
0.0
  0
LINE
  5
147
100
AcDbEntity
  8
0
 62
7
100
AcDbLine
 10
45.179998
 20
-16.075385
 30
0.0
 11
45.299998
 21
-16.805385
 31
0.0
  0
LINE
  5
148
100
AcDbEntity
  8
0
 62
7
100
AcDbLine
 10
45.299998
 20
-16.805385
 30
0.0
 11
45.469998
 21
-17.535385
 31
0.0
  0
LINE
  5
149
100
AcDbEntity
  8
0
 62
7
100
AcDbLine
 10
45.469998
 20
-17.535385
 30
0.0
 11
45.669998
 21
-18.245385
 31
0.0
  0
LINE
  5
14a
100
AcDbEntity
  8
0
 62
7
100
AcDbLine
 10
45.669998
 20
-18.245385
 30
0.0
 11
45.899998
 21
-18.965385
 31
0.0
  0
LINE
  5
14b
100
AcDbEntity
  8
0
 62
7
100
AcDbLine
 10
45.899998
 20
-18.965385
 30
0.0
 11
46.169998
 21
-19.655385
 31
0.0
  0
LINE
  5
14c
100
AcDbEntity
  8
0
 62
7
100
AcDbLine
 10
46.169998
 20
-19.655385
 30
0.0
 11
46.479998
 21
-20.335385
 31
0.0
  0
LINE
  5
14d
100
AcDbEntity
  8
0
 62
7
100
AcDbLine
 10
46.479998
 20
-20.335385
 30
0.0
 11
46.819998
 21
-20.995385
 31
0.0
  0
LINE
  5
14e
100
AcDbEntity
  8
0
 62
7
100
AcDbLine
 10
46.819998
 20
-20.995385
 30
0.0
 11
47.179998
 21
-21.645385
 31
0.0
  0
LINE
  5
14f
100
AcDbEntity
  8
0
 62
7
100
AcDbLine
 10
47.179998
 20
-21.645385
 30
0.0
 11
47.579998
 21
-22.265385
 31
0.0
  0
LINE
  5
150
100
AcDbEntity
  8
0
 62
7
100
AcDbLine
 10
47.579998
 20
-22.265385
 30
0.0
 11
48.009998
 21
-22.875385
 31
0.0
  0
LINE
  5
151
100
AcDbEntity
  8
0
 62
7
100
AcDbLine
 10
48.009998
 20
-22.875385
 30
0.0
 11
48.469998
 21
-23.455385
 31
0.0
  0
LINE
  5
152
100
AcDbEntity
  8
0
 62
7
100
AcDbLine
 10
48.469998
 20
-23.455385
 30
0.0
 11
48.959998
 21
-24.015385
 31
0.0
  0
LINE
  5
153
100
AcDbEntity
  8
0
 62
7
100
AcDbLine
 10
48.959998
 20
-24.015385
 30
0.0
 11
49.479998
 21
-24.555385
 31
0.0
  0
LINE
  5
154
100
AcDbEntity
  8
0
 62
7
100
AcDbLine
 10
49.479998
 20
-24.555385
 30
0.0
 11
50.019998
 21
-25.055385
 31
0.0
  0
LINE
  5
155
100
AcDbEntity
  8
0
 62
7
100
AcDbLine
 10
50.019998
 20
-25.055385
 30
0.0
 11
50.589998
 21
-25.545385
 31
0.0
  0
LINE
  5
156
100
AcDbEntity
  8
0
 62
7
100
AcDbLine
 10
50.589998
 20
-25.545385
 30
0.0
 11
51.179998
 21
-25.995385
 31
0.0
  0
LINE
  5
157
100
AcDbEntity
  8
0
 62
7
100
AcDbLine
 10
51.179998
 20
-25.995385
 30
0.0
 11
51.789998
 21
-26.415385
 31
0.0
  0
LINE
  5
158
100
AcDbEntity
  8
0
 62
7
100
AcDbLine
 10
51.789998
 20
-26.415385
 30
0.0
 11
52.419998
 21
-26.805385
 31
0.0
  0
LINE
  5
159
100
AcDbEntity
  8
0
 62
7
100
AcDbLine
 10
52.419998
 20
-26.805385
 30
0.0
 11
53.079998
 21
-27.165385
 31
0.0
  0
LINE
  5
15a
100
AcDbEntity
  8
0
 62
7
100
AcDbLine
 10
53.079998
 20
-27.165385
 30
0.0
 11
53.739998
 21
-27.495385
 31
0.0
  0
LINE
  5
15b
100
AcDbEntity
  8
0
 62
7
100
AcDbLine
 10
53.739998
 20
-27.495385
 30
0.0
 11
54.429998
 21
-27.785385
 31
0.0
  0
LINE
  5
15c
100
AcDbEntity
  8
0
 62
7
100
AcDbLine
 10
54.429998
 20
-27.785385
 30
0.0
 11
55.119998
 21
-28.045385
 31
0.0
  0
LINE
  5
15d
100
AcDbEntity
  8
0
 62
7
100
AcDbLine
 10
55.119998
 20
-28.045385
 30
0.0
 11
55.829998
 21
-28.275385
 31
0.0
  0
LINE
  5
15e
100
AcDbEntity
  8
0
 62
7
100
AcDbLine
 10
55.829998
 20
-28.275385
 30
0.0
 11
56.549998
 21
-28.465385
 31
0.0
  0
LINE
  5
15f
100
AcDbEntity
  8
0
 62
7
100
AcDbLine
 10
56.549998
 20
-28.465385
 30
0.0
 11
57.279998
 21
-28.615385
 31
0.0
  0
LINE
  5
160
100
AcDbEntity
  8
0
 62
7
100
AcDbLine
 10
57.279998
 20
-28.615385
 30
0.0
 11
58.019998
 21
-28.735385
 31
0.0
  0
LINE
  5
161
100
AcDbEntity
  8
0
 62
7
100
AcDbLine
 10
58.019998
 20
-28.735385
 30
0.0
 11
58.749998
 21
-28.815385
 31
0.0
  0
LINE
  5
162
100
AcDbEntity
  8
0
 62
7
100
AcDbLine
 10
58.749998
 20
-28.815385
 30
0.0
 11
59.499998
 21
-28.855385
 31
0.0
  0
LINE
  5
163
100
AcDbEntity
  8
0
 62
7
100
AcDbLine
 10
59.499998
 20
-28.855385
 30
0.0
 11
60.239998
 21
-28.865385
 31
0.0
  0
LINE
  5
164
100
AcDbEntity
  8
0
 62
7
100
AcDbLine
 10
60.239998
 20
-28.865385
 30
0.0
 11
60.979998
 21
-28.835385
 31
0.0
  0
LINE
  5
165
100
AcDbEntity
  8
0
 62
7
100
AcDbLine
 10
60.979998
 20
-28.835385
 30
0.0
 11
61.719998
 21
-28.765385
 31
0.0
  0
LINE
  5
166
100
AcDbEntity
  8
0
 62
7
100
AcDbLine
 10
61.719998
 20
-28.765385
 30
0.0
 11
62.459998
 21
-28.655385
 31
0.0
  0
LINE
  5
167
100
AcDbEntity
  8
0
 62
7
100
AcDbLine
 10
62.459998
 20
-28.655385
 30
0.0
 11
63.189998
 21
-28.515385
 31
0.0
  0
LINE
  5
168
100
AcDbEntity
  8
0
 62
7
100
AcDbLine
 10
63.189998
 20
-28.515385
 30
0.0
 11
63.909998
 21
-28.345385
 31
0.0
  0
LINE
  5
169
100
AcDbEntity
  8
0
 62
7
100
AcDbLine
 10
63.909998
 20
-28.345385
 30
0.0
 11
64.629998
 21
-28.135385
 31
0.0
  0
LINE
  5
16a
100
AcDbEntity
  8
0
 62
7
100
AcDbLine
 10
64.629998
 20
-28.135385
 30
0.0
 11
65.329998
 21
-27.895385
 31
0.0
  0
LINE
  5
16b
100
AcDbEntity
  8
0
 62
7
100
AcDbLine
 10
65.329998
 20
-27.895385
 30
0.0
 11
66.019998
 21
-27.615385
 31
0.0
  0
LINE
  5
16c
100
AcDbEntity
  8
0
 62
7
100
AcDbLine
 10
66.019998
 20
-27.615385
 30
0.0
 11
66.689998
 21
-27.295385
 31
0.0
  0
LINE
  5
16d
100
AcDbEntity
  8
0
 62
7
100
AcDbLine
 10
66.689998
 20
-27.295385
 30
0.0
 11
67.349998
 21
-26.945385
 31
0.0
  0
LINE
  5
16e
100
AcDbEntity
  8
0
 62
7
100
AcDbLine
 10
67.349998
 20
-26.945385
 30
0.0
 11
67.979998
 21
-26.565385
 31
0.0
  0
LINE
  5
16f
100
AcDbEntity
  8
0
 62
7
100
AcDbLine
 10
67.979998
 20
-26.565385
 30
0.0
 11
68.599998
 21
-26.155385
 31
0.0
  0
LINE
  5
170
100
AcDbEntity
  8
0
 62
7
100
AcDbLine
 10
68.599998
 20
-26.155385
 30
0.0
 11
69.199998
 21
-25.715385
 31
0.0
  0
LINE
  5
171
100
AcDbEntity
  8
0
 62
7
100
AcDbLine
 10
69.199998
 20
-25.715385
 30
0.0
 11
69.779998
 21
-25.235385
 31
0.0
  0
LINE
  5
172
100
AcDbEntity
  8
0
 62
7
100
AcDbLine
 10
69.779998
 20
-25.235385
 30
0.0
 11
70.329998
 21
-24.745385
 31
0.0
  0
LINE
  5
173
100
AcDbEntity
  8
0
 62
7
100
AcDbLine
 10
70.329998
 20
-24.745385
 30
0.0
 11
70.849998
 21
-24.215385
 31
0.0
  0
LINE
  5
174
100
AcDbEntity
  8
0
 62
7
100
AcDbLine
 10
70.849998
 20
-24.215385
 30
0.0
 11
71.349998
 21
-23.665385
 31
0.0
  0
LINE
  5
175
100
AcDbEntity
  8
0
 62
7
100
AcDbLine
 10
71.349998
 20
-23.665385
 30
0.0
 11
71.819998
 21
-23.085385
 31
0.0
  0
LINE
  5
176
100
AcDbEntity
  8
0
 62
7
100
AcDbLine
 10
71.819998
 20
-23.085385
 30
0.0
 11
72.269998
 21
-22.485385
 31
0.0
  0
LINE
  5
177
100
AcDbEntity
  8
0
 62
7
100
AcDbLine
 10
72.269998
 20
-22.485385
 30
0.0
 11
69.619998
 21
-20.635385
 31
0.0
  0
LINE
  5
178
100
AcDbEntity
  8
0
 62
7
100
AcDbLine
 10
69.619998
 20
-20.635385
 30
0.0
 11
69.259998
 21
-21.095385
 31
0.0
  0
LINE
  5
179
100
AcDbEntity
  8
0
 62
7
100
AcDbLine
 10
69.259998
 20
-21.095385
 30
0.0
 11
68.889998
 21
-21.555385
 31
0.0
  0
LINE
  5
17a
100
AcDbEntity
  8
0
 62
7
100
AcDbLine
 10
68.889998
 20
-21.555385
 30
0.0
 11
68.499998
 21
-21.985385
 31
0.0
  0
LINE
  5
17b
100
AcDbEntity
  8
0
 62
7
100
AcDbLine
 10
68.499998
 20
-21.985385
 30
0.0
 11
68.089998
 21
-22.395385
 31
0.0
  0
LINE
  5
17c
100
AcDbEntity
  8
0
 62
7
100
AcDbLine
 10
68.089998
 20
-22.395385
 30
0.0
 11
67.659998
 21
-22.785385
 31
0.0
  0
LINE
  5
17d
100
AcDbEntity
  8
0
 62
7
100
AcDbLine
 10
67.659998
 20
-22.785385
 30
0.0
 11
67.209998
 21
-23.155385
 31
0.0
  0
LINE
  5
17e
100
AcDbEntity
  8
0
 62
7
100
AcDbLine
 10
67.209998
 20
-23.155385
 30
0.0
 11
66.739998
 21
-23.505385
 31
0.0
  0
LINE
  5
17f
100
AcDbEntity
  8
0
 62
7
100
AcDbLine
 10
66.739998
 20
-23.505385
 30
0.0
 11
66.259998
 21
-23.825385
 31
0.0
  0
LINE
  5
180
100
AcDbEntity
  8
0
 62
7
100
AcDbLine
 10
66.259998
 20
-23.825385
 30
0.0
 11
65.749998
 21
-24.125385
 31
0.0
  0
LINE
  5
181
100
AcDbEntity
  8
0
 62
7
100
AcDbLine
 10
65.749998
 20
-24.125385
 30
0.0
 11
65.239998
 21
-24.405385
 31
0.0
  0
LINE
  5
182
100
AcDbEntity
  8
0
 62
7
100
AcDbLine
 10
65.239998
 20
-24.405385
 30
0.0
 11
64.709998
 21
-24.635385
 31
0.0
  0
LINE
  5
183
100
AcDbEntity
  8
0
 62
7
100
AcDbLine
 10
64.709998
 20
-24.635385
 30
0.0
 11
64.169998
 21
-24.865385
 31
0.0
  0
LINE
  5
184
100
AcDbEntity
  8
0
 62
7
100
AcDbLine
 10
64.169998
 20
-24.865385
 30
0.0
 11
63.619998
 21
-25.055385
 31
0.0
  0
LINE
  5
185
100
AcDbEntity
  8
0
 62
7
100
AcDbLine
 10
63.619998
 20
-25.055385
 30
0.0
 11
63.059998
 21
-25.225385
 31
0.0
  0
LINE
  5
186
100
AcDbEntity
  8
0
 62
7
100
AcDbLine
 10
63.059998
 20
-25.225385
 30
0.0
 11
62.499998
 21
-25.365385
 31
0.0
  0
LINE
  5
187
100
AcDbEntity
  8
0
 62
7
100
AcDbLine
 10
62.499998
 20
-25.365385
 30
0.0
 11
61.929998
 21
-25.475385
 31
0.0
  0
LINE
  5
188
100
AcDbEntity
  8
0
 62
7
100
AcDbLine
 10
61.929998
 20
-25.475385
 30
0.0
 11
61.349998
 21
-25.555385
 31
0.0
  0
LINE
  5
189
100
AcDbEntity
  8
0
 62
7
100
AcDbLine
 10
61.349998
 20
-25.555385
 30
0.0
 11
60.769998
 21
-25.605385
 31
0.0
  0
LINE
  5
18a
100
AcDbEntity
  8
0
 62
7
100
AcDbLine
 10
60.769998
 20
-25.605385
 30
0.0
 11
60.189998
 21
-25.635385
 31
0.0
  0
LINE
  5
18b
100
AcDbEntity
  8
0
 62
7
100
AcDbLine
 10
60.189998
 20
-25.635385
 30
0.0
 11
59.599998
 21
-25.625385
 31
0.0
  0
LINE
  5
18c
100
AcDbEntity
  8
0
 62
7
100
AcDbLine
 10
59.599998
 20
-25.625385
 30
0.0
 11
59.019998
 21
-25.595385
 31
0.0
  0
LINE
  5
18d
100
AcDbEntity
  8
0
 62
7
100
AcDbLine
 10
59.019998
 20
-25.595385
 30
0.0
 11
58.439998
 21
-25.535385
 31
0.0
  0
LINE
  5
18e
100
AcDbEntity
  8
0
 62
7
100
AcDbLine
 10
58.439998
 20
-25.535385
 30
0.0
 11
57.859998
 21
-25.445385
 31
0.0
  0
LINE
  5
18f
100
AcDbEntity
  8
0
 62
7
100
AcDbLine
 10
57.859998
 20
-25.445385
 30
0.0
 11
57.289998
 21
-25.325385
 31
0.0
  0
LINE
  5
190
100
AcDbEntity
  8
0
 62
7
100
AcDbLine
 10
57.289998
 20
-25.325385
 30
0.0
 11
56.729998
 21
-25.175385
 31
0.0
  0
LINE
  5
191
100
AcDbEntity
  8
0
 62
7
100
AcDbLine
 10
56.729998
 20
-25.175385
 30
0.0
 11
56.169998
 21
-25.005385
 31
0.0
  0
LINE
  5
192
100
AcDbEntity
  8
0
 62
7
100
AcDbLine
 10
56.169998
 20
-25.005385
 30
0.0
 11
55.629998
 21
-24.795385
 31
0.0
  0
LINE
  5
193
100
AcDbEntity
  8
0
 62
7
100
AcDbLine
 10
55.629998
 20
-24.795385
 30
0.0
 11
55.089998
 21
-24.555385
 31
0.0
  0
LINE
  5
194
100
AcDbEntity
  8
0
 62
7
100
AcDbLine
 10
55.089998
 20
-24.555385
 30
0.0
 11
54.569998
 21
-24.305385
 31
0.0
  0
LINE
  5
195
100
AcDbEntity
  8
0
 62
7
100
AcDbLine
 10
54.569998
 20
-24.305385
 30
0.0
 11
54.059998
 21
-24.025385
 31
0.0
  0
LINE
  5
196
100
AcDbEntity
  8
0
 62
7
100
AcDbLine
 10
54.059998
 20
-24.025385
 30
0.0
 11
53.559998
 21
-23.715385
 31
0.0
  0
LINE
  5
197
100
AcDbEntity
  8
0
 62
7
100
AcDbLine
 10
53.559998
 20
-23.715385
 30
0.0
 11
53.079998
 21
-23.385385
 31
0.0
  0
LINE
  5
198
100
AcDbEntity
  8
0
 62
7
100
AcDbLine
 10
53.079998
 20
-23.385385
 30
0.0
 11
52.619998
 21
-23.035385
 31
0.0
  0
LINE
  5
199
100
AcDbEntity
  8
0
 62
7
100
AcDbLine
 10
52.619998
 20
-23.035385
 30
0.0
 11
52.169998
 21
-22.655385
 31
0.0
  0
LINE
  5
19a
100
AcDbEntity
  8
0
 62
7
100
AcDbLine
 10
52.169998
 20
-22.655385
 30
0.0
 11
51.749998
 21
-22.255385
 31
0.0
  0
LINE
  5
19b
100
AcDbEntity
  8
0
 62
7
100
AcDbLine
 10
51.749998
 20
-22.255385
 30
0.0
 11
51.339998
 21
-21.835385
 31
0.0
  0
LINE
  5
19c
100
AcDbEntity
  8
0
 62
7
100
AcDbLine
 10
51.339998
 20
-21.835385
 30
0.0
 11
50.959998
 21
-21.395385
 31
0.0
  0
LINE
  5
19d
100
AcDbEntity
  8
0
 62
7
100
AcDbLine
 10
50.959998
 20
-21.395385
 30
0.0
 11
50.599998
 21
-20.945385
 31
0.0
  0
LINE
  5
19e
100
AcDbEntity
  8
0
 62
7
100
AcDbLine
 10
50.599998
 20
-20.945385
 30
0.0
 11
50.259998
 21
-20.465385
 31
0.0
  0
LINE
  5
19f
100
AcDbEntity
  8
0
 62
7
100
AcDbLine
 10
50.259998
 20
-20.465385
 30
0.0
 11
49.949998
 21
-19.975385
 31
0.0
  0
LINE
  5
1a0
100
AcDbEntity
  8
0
 62
7
100
AcDbLine
 10
49.949998
 20
-19.975385
 30
0.0
 11
49.659998
 21
-19.475385
 31
0.0
  0
LINE
  5
1a1
100
AcDbEntity
  8
0
 62
7
100
AcDbLine
 10
49.659998
 20
-19.475385
 30
0.0
 11
49.389998
 21
-18.955385
 31
0.0
  0
LINE
  5
1a2
100
AcDbEntity
  8
0
 62
7
100
AcDbLine
 10
49.389998
 20
-18.955385
 30
0.0
 11
49.159998
 21
-18.425385
 31
0.0
  0
LINE
  5
1a3
100
AcDbEntity
  8
0
 62
7
100
AcDbLine
 10
49.159998
 20
-18.425385
 30
0.0
 11
48.939998
 21
-17.875385
 31
0.0
  0
LINE
  5
1a4
100
AcDbEntity
  8
0
 62
7
100
AcDbLine
 10
48.939998
 20
-17.875385
 30
0.0
 11
48.759998
 21
-17.325385
 31
0.0
  0
LINE
  5
1a5
100
AcDbEntity
  8
0
 62
7
100
AcDbLine
 10
48.759998
 20
-17.325385
 30
0.0
 11
48.599998
 21
-16.765385
 31
0.0
  0
LINE
  5
1a6
100
AcDbEntity
  8
0
 62
7
100
AcDbLine
 10
48.599998
 20
-16.765385
 30
0.0
 11
48.469998
 21
-16.195385
 31
0.0
  0
LINE
  5
1a7
100
AcDbEntity
  8
0
 62
7
100
AcDbLine
 10
48.469998
 20
-16.195385
 30
0.0
 11
48.369998
 21
-15.625385
 31
0.0
  0
LINE
  5
1a8
100
AcDbEntity
  8
0
 62
7
100
AcDbLine
 10
48.369998
 20
-15.625385
 30
0.0
 11
48.299998
 21
-15.045385
 31
0.0
  0
LINE
  5
1a9
100
AcDbEntity
  8
0
 62
7
100
AcDbLine
 10
48.299998
 20
-15.045385
 30
0.0
 11
48.249998
 21
-14.465385
 31
0.0
  0
LINE
  5
1aa
100
AcDbEntity
  8
0
 62
7
100
AcDbLine
 10
48.249998
 20
-14.465385
 30
0.0
 11
48.239998
 21
-13.875385
 31
0.0
  0
LINE
  5
1ab
100
AcDbEntity
  8
0
 62
7
100
AcDbLine
 10
48.239998
 20
-13.875385
 30
0.0
 11
48.249998
 21
-13.295385
 31
0.0
  0
LINE
  5
1ac
100
AcDbEntity
  8
0
 62
7
100
AcDbLine
 10
48.249998
 20
-13.295385
 30
0.0
 11
48.299998
 21
-12.715385
 31
0.0
  0
LINE
  5
1ad
100
AcDbEntity
  8
0
 62
7
100
AcDbLine
 10
48.299998
 20
-12.715385
 30
0.0
 11
48.369998
 21
-12.135385
 31
0.0
  0
LINE
  5
1ae
100
AcDbEntity
  8
0
 62
7
100
AcDbLine
 10
48.369998
 20
-12.135385
 30
0.0
 11
48.469998
 21
-11.565385
 31
0.0
  0
LINE
  5
1af
100
AcDbEntity
  8
0
 62
7
100
AcDbLine
 10
48.469998
 20
-11.565385
 30
0.0
 11
48.599998
 21
-10.995385
 31
0.0
  0
LINE
  5
1b0
100
AcDbEntity
  8
0
 62
7
100
AcDbLine
 10
48.599998
 20
-10.995385
 30
0.0
 11
48.759998
 21
-10.435385
 31
0.0
  0
LINE
  5
1b1
100
AcDbEntity
  8
0
 62
7
100
AcDbLine
 10
48.759998
 20
-10.435385
 30
0.0
 11
48.939998
 21
-9.875385
 31
0.0
  0
LINE
  5
1b2
100
AcDbEntity
  8
0
 62
7
100
AcDbLine
 10
48.939998
 20
-9.875385
 30
0.0
 11
49.149998
 21
-9.335385
 31
0.0
  0
LINE
  5
1b3
100
AcDbEntity
  8
0
 62
7
100
AcDbLine
 10
49.149998
 20
-9.335385
 30
0.0
 11
49.389998
 21
-8.805385
 31
0.0
  0
LINE
  5
1b4
100
AcDbEntity
  8
0
 62
7
100
AcDbLine
 10
49.389998
 20
-8.805385
 30
0.0
 11
49.659998
 21
-8.285385
 31
0.0
  0
LINE
  5
1b5
100
AcDbEntity
  8
0
 62
7
100
AcDbLine
 10
49.659998
 20
-8.285385
 30
0.0
 11
49.949998
 21
-7.775385
 31
0.0
  0
LINE
  5
1b6
100
AcDbEntity
  8
0
 62
7
100
AcDbLine
 10
49.949998
 20
-7.775385
 30
0.0
 11
50.259998
 21
-7.285386
 31
0.0
  0
LINE
  5
1b7
100
AcDbEntity
  8
0
 62
7
100
AcDbLine
 10
50.259998
 20
-7.285386
 30
0.0
 11
50.599998
 21
-6.815386
 31
0.0
  0
LINE
  5
1b8
100
AcDbEntity
  8
0
 62
7
100
AcDbLine
 10
50.599998
 20
-6.815386
 30
0.0
 11
50.969998
 21
-6.355386
 31
0.0
  0
LINE
  5
1b9
100
AcDbEntity
  8
0
 62
7
100
AcDbLine
 10
50.969998
 20
-6.355386
 30
0.0
 11
51.359998
 21
-5.915386
 31
0.0
  0
LINE
  5
1ba
100
AcDbEntity
  8
0
 62
7
100
AcDbLine
 10
51.359998
 20
-5.915386
 30
0.0
 11
51.759998
 21
-5.495386
 31
0.0
  0
LINE
  5
1bb
100
AcDbEntity
  8
0
 62
7
100
AcDbLine
 10
51.759998
 20
-5.495386
 30
0.0
 11
52.189998
 21
-5.095386
 31
0.0
  0
LINE
  5
1bc
100
AcDbEntity
  8
0
 62
7
100
AcDbLine
 10
52.189998
 20
-5.095386
 30
0.0
 11
52.629998
 21
-4.725386
 31
0.0
  0
LINE
  5
1bd
100
AcDbEntity
  8
0
 62
7
100
AcDbLine
 10
52.629998
 20
-4.725386
 30
0.0
 11
53.089998
 21
-4.365386
 31
0.0
  0
LINE
  5
1be
100
AcDbEntity
  8
0
 62
7
100
AcDbLine
 10
53.089998
 20
-4.365386
 30
0.0
 11
53.569998
 21
-4.035386
 31
0.0
  0
LINE
  5
1bf
100
AcDbEntity
  8
0
 62
7
100
AcDbLine
 10
53.569998
 20
-4.035386
 30
0.0
 11
54.069998
 21
-3.735386
 31
0.0
  0
LINE
  5
1c0
100
AcDbEntity
  8
0
 62
7
100
AcDbLine
 10
54.069998
 20
-3.735386
 30
0.0
 11
54.579998
 21
-3.445386
 31
0.0
  0
LINE
  5
1c1
100
AcDbEntity
  8
0
 62
7
100
AcDbLine
 10
54.579998
 20
-3.445386
 30
0.0
 11
55.109998
 21
-3.195386
 31
0.0
  0
LINE
  5
1c2
100
AcDbEntity
  8
0
 62
7
100
AcDbLine
 10
55.109998
 20
-3.195386
 30
0.0
 11
55.639998
 21
-2.975386
 31
0.0
  0
LINE
  5
1c3
100
AcDbEntity
  8
0
 62
7
100
AcDbLine
 10
55.639998
 20
-2.975386
 30
0.0
 11
56.189998
 21
-2.775386
 31
0.0
  0
LINE
  5
1c4
100
AcDbEntity
  8
0
 62
7
100
AcDbLine
 10
56.189998
 20
-2.775386
 30
0.0
 11
56.739998
 21
-2.595386
 31
0.0
  0
LINE
  5
1c5
100
AcDbEntity
  8
0
 62
7
100
AcDbLine
 10
56.739998
 20
-2.595386
 30
0.0
 11
57.309998
 21
-2.445386
 31
0.0
  0
LINE
  5
1c6
100
AcDbEntity
  8
0
 62
7
100
AcDbLine
 10
57.309998
 20
-2.445386
 30
0.0
 11
57.879998
 21
-2.325386
 31
0.0
  0
LINE
  5
1c7
100
AcDbEntity
  8
0
 62
7
100
AcDbLine
 10
57.879998
 20
-2.325386
 30
0.0
 11
58.449998
 21
-2.235386
 31
0.0
  0
LINE
  5
1c8
100
AcDbEntity
  8
0
 62
7
100
AcDbLine
 10
58.449998
 20
-2.235386
 30
0.0
 11
59.029998
 21
-2.175386
 31
0.0
  0
LINE
  5
1c9
100
AcDbEntity
  8
0
 62
7
100
AcDbLine
 10
59.029998
 20
-2.175386
 30
0.0
 11
59.619998
 21
-2.145386
 31
0.0
  0
LINE
  5
1ca
100
AcDbEntity
  8
0
 62
7
100
AcDbLine
 10
59.619998
 20
-2.145386
 30
0.0
 11
60.199998
 21
-2.135386
 31
0.0
  0
LINE
  5
1cb
100
AcDbEntity
  8
0
 62
7
100
AcDbLine
 10
60.199998
 20
-2.135386
 30
0.0
 11
60.779998
 21
-2.165386
 31
0.0
  0
LINE
  5
1cc
100
AcDbEntity
  8
0
 62
7
100
AcDbLine
 10
60.779998
 20
-2.165386
 30
0.0
 11
61.359998
 21
-2.215386
 31
0.0
  0
LINE
  5
1cd
100
AcDbEntity
  8
0
 62
7
100
AcDbLine
 10
61.359998
 20
-2.215386
 30
0.0
 11
61.939998
 21
-2.295386
 31
0.0
  0
LINE
  5
1ce
100
AcDbEntity
  8
0
 62
7
100
AcDbLine
 10
61.939998
 20
-2.295386
 30
0.0
 11
62.509998
 21
-2.405386
 31
0.0
  0
LINE
  5
1cf
100
AcDbEntity
  8
0
 62
7
100
AcDbLine
 10
62.509998
 20
-2.405386
 30
0.0
 11
63.079998
 21
-2.545386
 31
0.0
  0
LINE
  5
1d0
100
AcDbEntity
  8
0
 62
7
100
AcDbLine
 10
63.079998
 20
-2.545386
 30
0.0
 11
63.639998
 21
-2.715386
 31
0.0
  0
LINE
  5
1d1
100
AcDbEntity
  8
0
 62
7
100
AcDbLine
 10
63.639998
 20
-2.715386
 30
0.0
 11
64.189998
 21
-2.905386
 31
0.0
  0
LINE
  5
1d2
100
AcDbEntity
  8
0
 62
7
100
AcDbLine
 10
64.189998
 20
-2.905386
 30
0.0
 11
64.729998
 21
-3.125386
 31
0.0
  0
LINE
  5
1d3
100
AcDbEntity
  8
0
 62
7
100
AcDbLine
 10
64.729998
 20
-3.125386
 30
0.0
 11
65.249998
 21
-3.385386
 31
0.0
  0
LINE
  5
1d4
100
AcDbEntity
  8
0
 62
7
100
AcDbLine
 10
65.249998
 20
-3.385386
 30
0.0
 11
65.769998
 21
-3.655386
 31
0.0
  0
LINE
  5
1d5
100
AcDbEntity
  8
0
 62
7
100
AcDbLine
 10
65.769998
 20
-3.655386
 30
0.0
 11
66.269998
 21
-3.955386
 31
0.0
  0
LINE
  5
1d6
100
AcDbEntity
  8
0
 62
7
100
AcDbLine
 10
66.269998
 20
-3.955386
 30
0.0
 11
66.749998
 21
-4.285386
 31
0.0
  0
LINE
  5
1d7
100
AcDbEntity
  8
0
 62
7
100
AcDbLine
 10
66.749998
 20
-4.285386
 30
0.0
 11
67.219998
 21
-4.625386
 31
0.0
  0
LINE
  5
1d8
100
AcDbEntity
  8
0
 62
7
100
AcDbLine
 10
67.219998
 20
-4.625386
 30
0.0
 11
67.669998
 21
-4.995386
 31
0.0
  0
LINE
  5
1d9
100
AcDbEntity
  8
0
 62
7
100
AcDbLine
 10
67.669998
 20
-4.995386
 30
0.0
 11
68.109998
 21
-5.385386
 31
0.0
  0
LINE
  5
1da
100
AcDbEntity
  8
0
 62
7
100
AcDbLine
 10
68.109998
 20
-5.385386
 30
0.0
 11
68.519998
 21
-5.805386
 31
0.0
  0
LINE
  5
1db
100
AcDbEntity
  8
0
 62
7
100
AcDbLine
 10
68.519998
 20
-5.805386
 30
0.0
 11
68.909998
 21
-6.235386
 31
0.0
  0
LINE
  5
1dc
100
AcDbEntity
  8
0
 62
7
100
AcDbLine
 10
68.909998
 20
-6.235386
 30
0.0
 11
69.279998
 21
-6.685386
 31
0.0
  0
LINE
  5
1dd
100
AcDbEntity
  8
0
 62
7
100
AcDbLine
 10
69.279998
 20
-6.685386
 30
0.0
 11
69.609998
 21
-7.155386
 31
0.0
  0
LINE
  5
1de
100
AcDbEntity
  8
0
 62
7
100
AcDbLine
 10
69.609998
 20
-7.155386
 30
0.0
 11
72.289998
 21
-5.285386
 31
0.0
  0
LINE
  5
1df
100
AcDbEntity
  8
0
 62
7
100
AcDbLine
 10
72.289998
 20
-5.285386
 30
0.0
 11
72.289998
 21
-5.285386
 31
0.0
  0
LINE
  5
1e0
100
AcDbEntity
  8
0
 62
7
100
AcDbLine
 10
44.999999
 20
-28.845385
 30
0.0
 11
44.999999
 21
-28.845385
 31
0.0
  0
LINE
  5
1e1
100
AcDbEntity
  8
0
 62
7
100
AcDbLine
 10
44.999999
 20
-28.845385
 30
0.0
 11
44.999999
 21
-28.845385
 31
0.0
  0
LINE
  5
1e2
100
AcDbEntity
  8
0
 62
7
100
AcDbLine
 10
74.999998
 20
1.094614
 30
0.0
 11
74.999998
 21
1.094614
 31
0.0
  0
LINE
  5
1e3
100
AcDbEntity
  8
0
 62
7
100
AcDbLine
 10
74.999998
 20
1.094614
 30
0.0
 11
74.999998
 21
1.094614
 31
0.0
  0
LINE
  5
1e4
100
AcDbEntity
  8
0
 62
7
100
AcDbLine
 10
89.999997
 20
1.134614
 30
0.0
 11
120.029996
 21
1.134614
 31
0.0
  0
LINE
  5
1e5
100
AcDbEntity
  8
0
 62
7
100
AcDbLine
 10
120.029996
 20
1.134614
 30
0.0
 11
120.029996
 21
-28.885385
 31
0.0
  0
LINE
  5
1e6
100
AcDbEntity
  8
0
 62
7
100
AcDbLine
 10
120.029996
 20
-28.885385
 30
0.0
 11
89.999997
 21
-28.885385
 31
0.0
  0
LINE
  5
1e7
100
AcDbEntity
  8
0
 62
7
100
AcDbLine
 10
89.999997
 20
-28.885385
 30
0.0
 11
89.999997
 21
1.134614
 31
0.0
  0
SPLINE
  5
1e8
100
AcDbEntity
  8
0
 62
7
100
AcDbSpline
 70
8
 71
3
 72
8
 73
4
 74
0
 40
0
 40
0
 40
0
 40
0
 40
1
 40
1
 40
1
 40
1
 10
104.999997
 20
1.134614
 30
0.0
 10
113.499996
 20
1.134614
 30
0.0
 10
119.999996
 20
-5.365386
 30
0.0
 10
119.999996
 20
-13.865385
 30
0.0
  0
SPLINE
  5
1e9
100
AcDbEntity
  8
0
 62
7
100
AcDbSpline
 70
8
 71
3
 72
8
 73
4
 74
0
 40
0
 40
0
 40
0
 40
0
 40
1
 40
1
 40
1
 40
1
 10
119.999996
 20
-13.865385
 30
0.0
 10
119.999996
 20
-22.365385
 30
0.0
 10
113.499996
 20
-28.865385
 30
0.0
 10
104.999997
 20
-28.865385
 30
0.0
  0
SPLINE
  5
1ea
100
AcDbEntity
  8
0
 62
7
100
AcDbSpline
 70
8
 71
3
 72
8
 73
4
 74
0
 40
0
 40
0
 40
0
 40
0
 40
1
 40
1
 40
1
 40
1
 10
104.999997
 20
-28.865385
 30
0.0
 10
96.499997
 20
-28.865385
 30
0.0
 10
89.999997
 20
-22.365385
 30
0.0
 10
89.999997
 20
-13.865385
 30
0.0
  0
SPLINE
  5
1eb
100
AcDbEntity
  8
0
 62
7
100
AcDbSpline
 70
8
 71
3
 72
8
 73
4
 74
0
 40
0
 40
0
 40
0
 40
0
 40
1
 40
1
 40
1
 40
1
 10
89.999997
 20
-13.865385
 30
0.0
 10
89.999997
 20
-5.365386
 30
0.0
 10
96.499997
 20
1.134614
 30
0.0
 10
104.999997
 20
1.134614
 30
0.0
  0
LINE
  5
1ec
100
AcDbEntity
  8
0
 62
7
100
AcDbLine
 10
104.999997
 20
1.134614
 30
0.0
 11
104.999997
 21
1.134614
 31
0.0
  0
SPLINE
  5
1ed
100
AcDbEntity
  8
0
 62
7
100
AcDbSpline
 70
8
 71
3
 72
8
 73
4
 74
0
 40
0
 40
0
 40
0
 40
0
 40
1
 40
1
 40
1
 40
1
 10
104.989997
 20
-2.155386
 30
0.0
 10
111.619996
 20
-2.155386
 30
0.0
 10
116.689996
 20
-7.225386
 30
0.0
 10
116.689996
 20
-13.855385
 30
0.0
  0
SPLINE
  5
1ee
100
AcDbEntity
  8
0
 62
7
100
AcDbSpline
 70
8
 71
3
 72
8
 73
4
 74
0
 40
0
 40
0
 40
0
 40
0
 40
1
 40
1
 40
1
 40
1
 10
116.689996
 20
-13.855385
 30
0.0
 10
116.689996
 20
-20.485385
 30
0.0
 10
111.619996
 20
-25.555385
 30
0.0
 10
104.989997
 20
-25.555385
 30
0.0
  0
SPLINE
  5
1ef
100
AcDbEntity
  8
0
 62
7
100
AcDbSpline
 70
8
 71
3
 72
8
 73
4
 74
0
 40
0
 40
0
 40
0
 40
0
 40
1
 40
1
 40
1
 40
1
 10
104.989997
 20
-25.555385
 30
0.0
 10
98.359997
 20
-25.555385
 30
0.0
 10
93.289997
 20
-20.485385
 30
0.0
 10
93.289997
 20
-13.855385
 30
0.0
  0
SPLINE
  5
1f0
100
AcDbEntity
  8
0
 62
7
100
AcDbSpline
 70
8
 71
3
 72
8
 73
4
 74
0
 40
0
 40
0
 40
0
 40
0
 40
1
 40
1
 40
1
 40
1
 10
93.289997
 20
-13.855385
 30
0.0
 10
93.289997
 20
-7.225386
 30
0.0
 10
98.359997
 20
-2.155386
 30
0.0
 10
104.989997
 20
-2.155386
 30
0.0
  0
LINE
  5
1f1
100
AcDbEntity
  8
0
 62
7
100
AcDbLine
 10
104.989997
 20
-2.155386
 30
0.0
 11
104.989997
 21
-2.155386
 31
0.0
  0
LINE
  5
1f2
100
AcDbEntity
  8
0
 62
7
100
AcDbLine
 10
89.999997
 20
1.134614
 30
0.0
 11
89.999997
 21
1.134614
 31
0.0
  0
LINE
  5
1f3
100
AcDbEntity
  8
0
 62
7
100
AcDbLine
 10
89.999997
 20
1.134614
 30
0.0
 11
89.999997
 21
1.134614
 31
0.0
  0
LINE
  5
1f4
100
AcDbEntity
  8
0
 62
7
100
AcDbLine
 10
120.009996
 20
-28.875385
 30
0.0
 11
120.009996
 21
-28.875385
 31
0.0
  0
LINE
  5
1f5
100
AcDbEntity
  8
0
 62
7
100
AcDbLine
 10
120.009996
 20
-28.875385
 30
0.0
 11
120.009996
 21
-28.875385
 31
0.0
  0
LINE
  5
1f6
100
AcDbEntity
  8
0
 62
7
100
AcDbLine
 10
0.000000
 20
1.134614
 30
0.0
 11
30.019999
 21
1.134614
 31
0.0
  0
LINE
  5
1f7
100
AcDbEntity
  8
0
 62
7
100
AcDbLine
 10
30.019999
 20
1.134614
 30
0.0
 11
30.019999
 21
-28.885385
 31
0.0
  0
LINE
  5
1f8
100
AcDbEntity
  8
0
 62
7
100
AcDbLine
 10
30.019999
 20
-28.885385
 30
0.0
 11
0.000000
 21
-28.885385
 31
0.0
  0
LINE
  5
1f9
100
AcDbEntity
  8
0
 62
7
100
AcDbLine
 10
0.000000
 20
-28.885385
 30
0.0
 11
0.000000
 21
1.134614
 31
0.0
  0
SPLINE
  5
1fa
100
AcDbEntity
  8
0
 62
7
100
AcDbSpline
 70
8
 71
3
 72
8
 73
4
 74
0
 40
0
 40
0
 40
0
 40
0
 40
1
 40
1
 40
1
 40
1
 10
15.000000
 20
1.134614
 30
0.0
 10
23.499999
 20
1.134614
 30
0.0
 10
29.999999
 20
-5.365386
 30
0.0
 10
29.999999
 20
-13.865385
 30
0.0
  0
SPLINE
  5
1fb
100
AcDbEntity
  8
0
 62
7
100
AcDbSpline
 70
8
 71
3
 72
8
 73
4
 74
0
 40
0
 40
0
 40
0
 40
0
 40
1
 40
1
 40
1
 40
1
 10
29.999999
 20
-13.865385
 30
0.0
 10
29.999999
 20
-22.365385
 30
0.0
 10
23.499999
 20
-28.865385
 30
0.0
 10
15.000000
 20
-28.865385
 30
0.0
  0
SPLINE
  5
1fc
100
AcDbEntity
  8
0
 62
7
100
AcDbSpline
 70
8
 71
3
 72
8
 73
4
 74
0
 40
0
 40
0
 40
0
 40
0
 40
1
 40
1
 40
1
 40
1
 10
15.000000
 20
-28.865385
 30
0.0
 10
6.500000
 20
-28.865385
 30
0.0
 10
0.000000
 20
-22.365385
 30
0.0
 10
0.000000
 20
-13.865385
 30
0.0
  0
SPLINE
  5
1fd
100
AcDbEntity
  8
0
 62
7
100
AcDbSpline
 70
8
 71
3
 72
8
 73
4
 74
0
 40
0
 40
0
 40
0
 40
0
 40
1
 40
1
 40
1
 40
1
 10
0.000000
 20
-13.865385
 30
0.0
 10
0.000000
 20
-5.365386
 30
0.0
 10
6.500000
 20
1.134614
 30
0.0
 10
15.000000
 20
1.134614
 30
0.0
  0
LINE
  5
1fe
100
AcDbEntity
  8
0
 62
7
100
AcDbLine
 10
15.000000
 20
1.134614
 30
0.0
 11
15.000000
 21
1.134614
 31
0.0
  0
SPLINE
  5
1ff
100
AcDbEntity
  8
0
 62
7
100
AcDbSpline
 70
8
 71
3
 72
8
 73
4
 74
0
 40
0
 40
0
 40
0
 40
0
 40
1
 40
1
 40
1
 40
1
 10
14.990000
 20
-2.155386
 30
0.0
 10
21.619999
 20
-2.155386
 30
0.0
 10
26.689999
 20
-7.225386
 30
0.0
 10
26.689999
 20
-13.855385
 30
0.0
  0
SPLINE
  5
200
100
AcDbEntity
  8
0
 62
7
100
AcDbSpline
 70
8
 71
3
 72
8
 73
4
 74
0
 40
0
 40
0
 40
0
 40
0
 40
1
 40
1
 40
1
 40
1
 10
26.689999
 20
-13.855385
 30
0.0
 10
26.689999
 20
-20.485385
 30
0.0
 10
21.619999
 20
-25.555385
 30
0.0
 10
14.990000
 20
-25.555385
 30
0.0
  0
SPLINE
  5
201
100
AcDbEntity
  8
0
 62
7
100
AcDbSpline
 70
8
 71
3
 72
8
 73
4
 74
0
 40
0
 40
0
 40
0
 40
0
 40
1
 40
1
 40
1
 40
1
 10
14.990000
 20
-25.555385
 30
0.0
 10
8.360000
 20
-25.555385
 30
0.0
 10
3.290000
 20
-20.485385
 30
0.0
 10
3.290000
 20
-13.855385
 30
0.0
  0
SPLINE
  5
202
100
AcDbEntity
  8
0
 62
7
100
AcDbSpline
 70
8
 71
3
 72
8
 73
4
 74
0
 40
0
 40
0
 40
0
 40
0
 40
1
 40
1
 40
1
 40
1
 10
3.290000
 20
-13.855385
 30
0.0
 10
3.290000
 20
-7.225386
 30
0.0
 10
8.360000
 20
-2.155386
 30
0.0
 10
14.990000
 20
-2.155386
 30
0.0
  0
LINE
  5
203
100
AcDbEntity
  8
0
 62
7
100
AcDbLine
 10
14.990000
 20
-2.155386
 30
0.0
 11
14.990000
 21
-2.155386
 31
0.0
  0
LINE
  5
204
100
AcDbEntity
  8
0
 62
7
100
AcDbLine
 10
0.000000
 20
1.134614
 30
0.0
 11
0.000000
 21
1.134614
 31
0.0
  0
LINE
  5
205
100
AcDbEntity
  8
0
 62
7
100
AcDbLine
 10
0.000000
 20
1.134614
 30
0.0
 11
0.000000
 21
1.134614
 31
0.0
  0
LINE
  5
206
100
AcDbEntity
  8
0
 62
7
100
AcDbLine
 10
30.009999
 20
-28.875385
 30
0.0
 11
30.009999
 21
-28.875385
 31
0.0
  0
LINE
  5
207
100
AcDbEntity
  8
0
 62
7
100
AcDbLine
 10
30.009999
 20
-28.875385
 30
0.0
 11
30.009999
 21
-28.875385
 31
0.0
  0
LINE
  5
208
100
AcDbEntity
  8
0
 62
7
100
AcDbLine
 10
28.999999
 20
-12.365385
 30
0.0
 11
46.009998
 21
-12.365385
 31
0.0
  0
LINE
  5
209
100
AcDbEntity
  8
0
 62
7
100
AcDbLine
 10
46.009998
 20
-12.365385
 30
0.0
 11
46.009998
 21
-15.375385
 31
0.0
  0
LINE
  5
20a
100
AcDbEntity
  8
0
 62
7
100
AcDbLine
 10
46.009998
 20
-15.375385
 30
0.0
 11
28.999999
 21
-15.375385
 31
0.0
  0
LINE
  5
20b
100
AcDbEntity
  8
0
 62
7
100
AcDbLine
 10
28.999999
 20
-15.375385
 30
0.0
 11
28.999999
 21
-12.365385
 31
0.0
  0
LINE
  5
20c
100
AcDbEntity
  8
0
 62
7
100
AcDbLine
 10
37.499999
 20
-15.365385
 30
0.0
 11
28.999999
 21
-15.365385
 31
0.0
  0
LINE
  5
20d
100
AcDbEntity
  8
0
 62
7
100
AcDbLine
 10
28.999999
 20
-15.365385
 30
0.0
 11
28.999999
 21
-12.365385
 31
0.0
  0
LINE
  5
20e
100
AcDbEntity
  8
0
 62
7
100
AcDbLine
 10
28.999999
 20
-12.365385
 30
0.0
 11
45.999998
 21
-12.365385
 31
0.0
  0
LINE
  5
20f
100
AcDbEntity
  8
0
 62
7
100
AcDbLine
 10
45.999998
 20
-12.365385
 30
0.0
 11
45.999998
 21
-15.365385
 31
0.0
  0
LINE
  5
210
100
AcDbEntity
  8
0
 62
7
100
AcDbLine
 10
45.999998
 20
-15.365385
 30
0.0
 11
37.499999
 21
-15.365385
 31
0.0
  0
LINE
  5
211
100
AcDbEntity
  8
0
 62
7
100
AcDbLine
 10
37.499999
 20
-15.365385
 30
0.0
 11
37.499999
 21
-15.365385
 31
0.0
  0
LINE
  5
212
100
AcDbEntity
  8
0
 62
7
100
AcDbLine
 10
64.499998
 20
-12.365385
 30
0.0
 11
90.509997
 21
-12.365385
 31
0.0
  0
LINE
  5
213
100
AcDbEntity
  8
0
 62
7
100
AcDbLine
 10
90.509997
 20
-12.365385
 30
0.0
 11
90.509997
 21
-15.375385
 31
0.0
  0
LINE
  5
214
100
AcDbEntity
  8
0
 62
7
100
AcDbLine
 10
90.509997
 20
-15.375385
 30
0.0
 11
64.499998
 21
-15.375385
 31
0.0
  0
LINE
  5
215
100
AcDbEntity
  8
0
 62
7
100
AcDbLine
 10
64.499998
 20
-15.375385
 30
0.0
 11
64.499998
 21
-12.365385
 31
0.0
  0
LINE
  5
216
100
AcDbEntity
  8
0
 62
7
100
AcDbLine
 10
77.499997
 20
-15.365385
 30
0.0
 11
64.499998
 21
-15.365385
 31
0.0
  0
LINE
  5
217
100
AcDbEntity
  8
0
 62
7
100
AcDbLine
 10
64.499998
 20
-15.365385
 30
0.0
 11
64.499998
 21
-12.365385
 31
0.0
  0
LINE
  5
218
100
AcDbEntity
  8
0
 62
7
100
AcDbLine
 10
64.499998
 20
-12.365385
 30
0.0
 11
90.499997
 21
-12.365385
 31
0.0
  0
LINE
  5
219
100
AcDbEntity
  8
0
 62
7
100
AcDbLine
 10
90.499997
 20
-12.365385
 30
0.0
 11
90.499997
 21
-15.365385
 31
0.0
  0
LINE
  5
21a
100
AcDbEntity
  8
0
 62
7
100
AcDbLine
 10
90.499997
 20
-15.365385
 30
0.0
 11
77.499997
 21
-15.365385
 31
0.0
  0
LINE
  5
21b
100
AcDbEntity
  8
0
 62
7
100
AcDbLine
 10
77.499997
 20
-15.365385
 30
0.0
 11
77.499997
 21
-15.365385
 31
0.0
  0
LINE
  5
21c
100
AcDbEntity
  8
0
 62
7
100
AcDbLine
 10
7.500000
 20
-12.365385
 30
0.0
 11
22.509999
 21
-12.365385
 31
0.0
  0
LINE
  5
21d
100
AcDbEntity
  8
0
 62
7
100
AcDbLine
 10
22.509999
 20
-12.365385
 30
0.0
 11
22.509999
 21
-15.375385
 31
0.0
  0
LINE
  5
21e
100
AcDbEntity
  8
0
 62
7
100
AcDbLine
 10
22.509999
 20
-15.375385
 30
0.0
 11
7.500000
 21
-15.375385
 31
0.0
  0
LINE
  5
21f
100
AcDbEntity
  8
0
 62
7
100
AcDbLine
 10
7.500000
 20
-15.375385
 30
0.0
 11
7.500000
 21
-12.365385
 31
0.0
  0
LINE
  5
220
100
AcDbEntity
  8
0
 62
7
100
AcDbLine
 10
15.000000
 20
-15.365385
 30
0.0
 11
7.500000
 21
-15.365385
 31
0.0
  0
LINE
  5
221
100
AcDbEntity
  8
0
 62
7
100
AcDbLine
 10
7.500000
 20
-15.365385
 30
0.0
 11
7.500000
 21
-12.365385
 31
0.0
  0
LINE
  5
222
100
AcDbEntity
  8
0
 62
7
100
AcDbLine
 10
7.500000
 20
-12.365385
 30
0.0
 11
22.499999
 21
-12.365385
 31
0.0
  0
LINE
  5
223
100
AcDbEntity
  8
0
 62
7
100
AcDbLine
 10
22.499999
 20
-12.365385
 30
0.0
 11
22.499999
 21
-15.365385
 31
0.0
  0
LINE
  5
224
100
AcDbEntity
  8
0
 62
7
100
AcDbLine
 10
22.499999
 20
-15.365385
 30
0.0
 11
15.000000
 21
-15.365385
 31
0.0
  0
LINE
  5
225
100
AcDbEntity
  8
0
 62
7
100
AcDbLine
 10
15.000000
 20
-15.365385
 30
0.0
 11
15.000000
 21
-15.365385
 31
0.0
  0
LINE
  5
226
100
AcDbEntity
  8
0
 62
7
100
AcDbLine
 10
97.499997
 20
-12.365385
 30
0.0
 11
112.509996
 21
-12.365385
 31
0.0
  0
LINE
  5
227
100
AcDbEntity
  8
0
 62
7
100
AcDbLine
 10
112.509996
 20
-12.365385
 30
0.0
 11
112.509996
 21
-15.375385
 31
0.0
  0
LINE
  5
228
100
AcDbEntity
  8
0
 62
7
100
AcDbLine
 10
112.509996
 20
-15.375385
 30
0.0
 11
97.499997
 21
-15.375385
 31
0.0
  0
LINE
  5
229
100
AcDbEntity
  8
0
 62
7
100
AcDbLine
 10
97.499997
 20
-15.375385
 30
0.0
 11
97.499997
 21
-12.365385
 31
0.0
  0
LINE
  5
22a
100
AcDbEntity
  8
0
 62
7
100
AcDbLine
 10
104.999997
 20
-15.365385
 30
0.0
 11
97.499997
 21
-15.365385
 31
0.0
  0
LINE
  5
22b
100
AcDbEntity
  8
0
 62
7
100
AcDbLine
 10
97.499997
 20
-15.365385
 30
0.0
 11
97.499997
 21
-12.365385
 31
0.0
  0
LINE
  5
22c
100
AcDbEntity
  8
0
 62
7
100
AcDbLine
 10
97.499997
 20
-12.365385
 30
0.0
 11
112.499996
 21
-12.365385
 31
0.0
  0
LINE
  5
22d
100
AcDbEntity
  8
0
 62
7
100
AcDbLine
 10
112.499996
 20
-12.365385
 30
0.0
 11
112.499996
 21
-15.365385
 31
0.0
  0
LINE
  5
22e
100
AcDbEntity
  8
0
 62
7
100
AcDbLine
 10
112.499996
 20
-15.365385
 30
0.0
 11
104.999997
 21
-15.365385
 31
0.0
  0
LINE
  5
22f
100
AcDbEntity
  8
0
 62
7
100
AcDbLine
 10
104.999997
 20
-15.365385
 30
0.0
 11
104.999997
 21
-15.365385
 31
0.0
  0
LINE
  5
230
100
AcDbEntity
  8
0
 62
7
100
AcDbLine
 10
103.499997
 20
-6.365386
 30
0.0
 11
106.509996
 21
-6.365386
 31
0.0
  0
LINE
  5
231
100
AcDbEntity
  8
0
 62
7
100
AcDbLine
 10
106.509996
 20
-6.365386
 30
0.0
 11
106.509996
 21
-21.375385
 31
0.0
  0
LINE
  5
232
100
AcDbEntity
  8
0
 62
7
100
AcDbLine
 10
106.509996
 20
-21.375385
 30
0.0
 11
103.499997
 21
-21.375385
 31
0.0
  0
LINE
  5
233
100
AcDbEntity
  8
0
 62
7
100
AcDbLine
 10
103.499997
 20
-21.375385
 30
0.0
 11
103.499997
 21
-6.365386
 31
0.0
  0
LINE
  5
234
100
AcDbEntity
  8
0
 62
7
100
AcDbLine
 10
104.999997
 20
-21.365385
 30
0.0
 11
103.499997
 21
-21.365385
 31
0.0
  0
LINE
  5
235
100
AcDbEntity
  8
0
 62
7
100
AcDbLine
 10
103.499997
 20
-21.365385
 30
0.0
 11
103.499997
 21
-6.365386
 31
0.0
  0
LINE
  5
236
100
AcDbEntity
  8
0
 62
7
100
AcDbLine
 10
103.499997
 20
-6.365386
 30
0.0
 11
106.499996
 21
-6.365386
 31
0.0
  0
LINE
  5
237
100
AcDbEntity
  8
0
 62
7
100
AcDbLine
 10
106.499996
 20
-6.365386
 30
0.0
 11
106.499996
 21
-21.365385
 31
0.0
  0
LINE
  5
238
100
AcDbEntity
  8
0
 62
7
100
AcDbLine
 10
106.499996
 20
-21.365385
 30
0.0
 11
104.999997
 21
-21.365385
 31
0.0
  0
LINE
  5
239
100
AcDbEntity
  8
0
 62
7
100
AcDbLine
 10
104.999997
 20
-21.365385
 30
0.0
 11
104.999997
 21
-21.365385
 31
0.0
  0
ENDSEC
  0
SECTION
  2
OBJECTS
  0
DICTIONARY
  5
C
330
0
100
AcDbDictionary
  3
ACAD_GROUP
350
D
  3
ACAD_MLINESTYLE
350
17
  0
DICTIONARY
  5
D
330
C
100
AcDbDictionary
  0
DICTIONARY
  5
1A
330
C
100
AcDbDictionary
  0
DICTIONARY
  5
17
330
C
100
AcDbDictionary
  3
STANDARD
350
18
  0
DICTIONARY
  5
19
330
C
100
AcDbDictionary
  0
ENDSEC
  0
EOF
