  0
SECTION
  2
HEADER
  9
$ACADVER
  1
AC1014
  9
$HANDSEED
  5
FFFF
  9
$MEASUREMENT
 70
     1
  0
ENDSEC
  0
SECTION
  2
TABLES
  0
TABLE
  2
VPORT
  5
8
330
0
100
AcDbSymbolTable
 70
     4
  0
VPORT
  5
2E
330
8
100
AcDbSymbolTableRecord
100
AcDbViewportTableRecord
  2
*ACTIVE
 70
     0
 10
0.0
 20
0.0
 11
1.0
 21
1.0
 12
210.0
 22
148.5
 13
0.0
 23
0.0
 14
10.0
 24
10.0
 15
10.0
 25
10.0
 16
0.0
 26
0.0
 36
1.0
 17
0.0
 27
0.0
 37
0.0
 40
341.0
 41
1.24
 42
50.0
 43
0.0
 44
0.0
 50
0.0
 51
0.0
 71
     0
 72
   100
 73
     1
 74
     3
 75
     0
 76
     0
 77
     0
 78
     0
  0
ENDTAB
  0
TABLE
  2
LTYPE
  5
5
330
0
100
AcDbSymbolTable
 70
     1
  0
LTYPE
  5
14
330
5
100
AcDbSymbolTableRecord
100
AcDbLinetypeTableRecord
  2
BYBLOCK
 70
     0
  3

 72
    65
 73
     0
 40
0.0
  0
LTYPE
  5
15
330
5
100
AcDbSymbolTableRecord
100
AcDbLinetypeTableRecord
  2
BYLAYER
 70
     0
  3

 72
    65
 73
     0
 40
0.0
  0
LTYPE
  5
16
330
5
100
AcDbSymbolTableRecord
100
AcDbLinetypeTableRecord
  2
CONTINUOUS
 70
     0
  3
Solid line
 72
    65
 73
     0
 40
0.0
  0
ENDTAB
  0
TABLE
  2
LAYER
  5
2
100
AcDbSymbolTable
 70
2
  0
LAYER
  5
50
100
AcDbSymbolTableRecord
100
AcDbLayerTableRecord
  2
0
 70
0
  6
CONTINUOUS
  0
LAYER
  5
51
100
AcDbSymbolTableRecord
100
AcDbLayerTableRecord
  2
Layer_1
 70
0
  6
CONTINUOUS
  0
ENDTAB
  0
TABLE
  2
STYLE
  5
3
330
0
100
AcDbSymbolTable
 70
     1
  0
STYLE
  5
11
330
3
100
AcDbSymbolTableRecord
100
AcDbTextStyleTableRecord
  2
STANDARD
 70
     0
 40
0.0
 41
1.0
 50
0.0
 71
     0
 42
2.5
  3
txt
  4

  0
ENDTAB
  0
TABLE
  2
VIEW
  5
6
330
0
100
AcDbSymbolTable
 70
     0
  0
ENDTAB
  0
TABLE
  2
UCS
  5
7
330
0
100
AcDbSymbolTable
 70
     0
  0
ENDTAB
  0
TABLE
  2
APPID
  5
9
330
0
100
AcDbSymbolTable
 70
     2
  0
APPID
  5
12
330
9
100
AcDbSymbolTableRecord
100
AcDbRegAppTableRecord
  2
ACAD
 70
     0
  0
ENDTAB
  0
TABLE
  2
DIMSTYLE
  5
A
330
0
100
AcDbSymbolTable
 70
     1
  0
DIMSTYLE
105
27
330
A
100
AcDbSymbolTableRecord
100
AcDbDimStyleTableRecord
  2
ISO-25
 70
     0
  3

  4

  5

  6

  7

 40
1.0
 41
2.5
 42
0.625
 43
3.75
 44
1.25
 45
0.0
 46
0.0
 47
0.0
 48
0.0
140
2.5
141
2.5
142
0.0
143
0.03937007874016
144
1.0
145
0.0
146
1.0
147
0.625
 71
     0
 72
     0
 73
     0
 74
     0
 75
     0
 76
     0
 77
     1
 78
     8
170
     0
171
     3
172
     1
173
     0
174
     0
175
     0
176
     0
177
     0
178
     0
270
     2
271
     2
272
     2
273
     2
274
     3
340
11
275
     0
280
     0
281
     0
282
     0
283
     0
284
     8
285
     0
286
     0
287
     3
288
     0
  0
ENDTAB
  0
TABLE
  2
BLOCK_RECORD
  5
1
330
0
100
AcDbSymbolTable
 70
     1
  0
BLOCK_RECORD
  5
1F
330
1
100
AcDbSymbolTableRecord
100
AcDbBlockTableRecord
  2
*MODEL_SPACE
  0
BLOCK_RECORD
  5
1B
330
1
100
AcDbSymbolTableRecord
100
AcDbBlockTableRecord
  2
*PAPER_SPACE
  0
ENDTAB
  0
ENDSEC
  0
SECTION
  2
BLOCKS
  0
BLOCK
  5
20
330
1F
100
AcDbEntity
  8
0
100
AcDbBlockBegin
  2
*MODEL_SPACE
 70
     0
 10
0.0
 20
0.0
 30
0.0
  3
*MODEL_SPACE
  1

  0
ENDBLK
  5
21
330
1F
100
AcDbEntity
  8
0
100
AcDbBlockEnd
  0
BLOCK
  5
1C
330
1B
100
AcDbEntity
 67
     1
  8
0
100
AcDbBlockBegin
  2
*PAPER_SPACE
  1

  0
ENDBLK
  5
1D
330
1B
100
AcDbEntity
 67
     1
  8
0
100
AcDbBlockEnd
  0
ENDSEC
  0
SECTION
  2
ENTITIES
  0
SPLINE
  5
100
100
AcDbEntity
  8
Layer_1
 62
7
100
AcDbSpline
 70
8
 71
3
 72
8
 73
4
 74
0
 40
0
 40
0
 40
0
 40
0
 40
1
 40
1
 40
1
 40
1
 10
82.285416
 20
134.627020
 30
0.0
 10
81.894457
 20
134.683520
 30
0.0
 10
81.203812
 20
135.226340
 30
0.0
 10
80.596570
 20
135.954500
 30
0.0
  0
SPLINE
  5
101
100
AcDbEntity
  8
Layer_1
 62
7
100
AcDbSpline
 70
8
 71
3
 72
8
 73
4
 74
0
 40
0
 40
0
 40
0
 40
0
 40
1
 40
1
 40
1
 40
1
 10
80.596570
 20
135.954500
 30
0.0
 10
79.573190
 20
137.181650
 30
0.0
 10
79.550053
 20
137.192240
 30
0.0
 10
74.667064
 20
138.665710
 30
0.0
  0
SPLINE
  5
102
100
AcDbEntity
  8
Layer_1
 62
7
100
AcDbSpline
 70
8
 71
3
 72
8
 73
4
 74
0
 40
0
 40
0
 40
0
 40
0
 40
1
 40
1
 40
1
 40
1
 10
74.667064
 20
138.665710
 30
0.0
 10
70.284596
 20
139.988150
 30
0.0
 10
69.636229
 20
140.119910
 30
0.0
 10
68.550702
 20
139.908640
 30
0.0
  0
SPLINE
  5
103
100
AcDbEntity
  8
Layer_1
 62
7
100
AcDbSpline
 70
8
 71
3
 72
8
 73
4
 74
0
 40
0
 40
0
 40
0
 40
0
 40
1
 40
1
 40
1
 40
1
 10
68.550702
 20
139.908640
 30
0.0
 10
67.882867
 20
139.778660
 30
0.0
 10
66.896270
 20
139.738470
 30
0.0
 10
66.358264
 20
139.819340
 30
0.0
  0
SPLINE
  5
104
100
AcDbEntity
  8
Layer_1
 62
7
100
AcDbSpline
 70
8
 71
3
 72
8
 73
4
 74
0
 40
0
 40
0
 40
0
 40
0
 40
1
 40
1
 40
1
 40
1
 10
66.358264
 20
139.819340
 30
0.0
 10
65.820257
 20
139.900240
 30
0.0
 10
64.093851
 20
139.788740
 30
0.0
 10
62.521806
 20
139.571550
 30
0.0
  0
SPLINE
  5
105
100
AcDbEntity
  8
Layer_1
 62
7
100
AcDbSpline
 70
8
 71
3
 72
8
 73
4
 74
0
 40
0
 40
0
 40
0
 40
0
 40
1
 40
1
 40
1
 40
1
 10
62.521806
 20
139.571550
 30
0.0
 10
60.949760
 20
139.354390
 30
0.0
 10
58.651510
 20
139.047910
 30
0.0
 10
57.414583
 20
138.890460
 30
0.0
  0
SPLINE
  5
106
100
AcDbEntity
  8
Layer_1
 62
7
100
AcDbSpline
 70
8
 71
3
 72
8
 73
4
 74
0
 40
0
 40
0
 40
0
 40
0
 40
1
 40
1
 40
1
 40
1
 10
57.414583
 20
138.890460
 30
0.0
 10
56.177656
 20
138.733010
 30
0.0
 10
54.748906
 20
138.449140
 30
0.0
 10
54.239583
 20
138.259630
 30
0.0
  0
SPLINE
  5
107
100
AcDbEntity
  8
Layer_1
 62
7
100
AcDbSpline
 70
8
 71
3
 72
8
 73
4
 74
0
 40
0
 40
0
 40
0
 40
0
 40
1
 40
1
 40
1
 40
1
 10
54.239583
 20
138.259630
 30
0.0
 10
53.730260
 20
138.070120
 30
0.0
 10
52.480104
 20
137.830470
 30
0.0
 10
51.461458
 20
137.727070
 30
0.0
  0
SPLINE
  5
108
100
AcDbEntity
  8
Layer_1
 62
7
100
AcDbSpline
 70
8
 71
3
 72
8
 73
4
 74
0
 40
0
 40
0
 40
0
 40
0
 40
1
 40
1
 40
1
 40
1
 10
51.461458
 20
137.727070
 30
0.0
 10
50.442812
 20
137.623670
 30
0.0
 10
48.121093
 20
137.315840
 30
0.0
 10
46.302083
 20
137.042990
 30
0.0
  0
SPLINE
  5
109
100
AcDbEntity
  8
Layer_1
 62
7
100
AcDbSpline
 70
8
 71
3
 72
8
 73
4
 74
0
 40
0
 40
0
 40
0
 40
0
 40
1
 40
1
 40
1
 40
1
 10
46.302083
 20
137.042990
 30
0.0
 10
39.713538
 20
136.054740
 30
0.0
 10
38.554954
 20
135.974360
 30
0.0
 10
34.903806
 20
136.252220
 30
0.0
  0
SPLINE
  5
10a
100
AcDbEntity
  8
Layer_1
 62
7
100
AcDbSpline
 70
8
 71
3
 72
8
 73
4
 74
0
 40
0
 40
0
 40
0
 40
0
 40
1
 40
1
 40
1
 40
1
 10
34.903806
 20
136.252220
 30
0.0
 10
32.978716
 20
136.398720
 30
0.0
 10
31.336193
 20
136.586030
 30
0.0
 10
31.253755
 20
136.668470
 30
0.0
  0
SPLINE
  5
10b
100
AcDbEntity
  8
Layer_1
 62
7
100
AcDbSpline
 70
8
 71
3
 72
8
 73
4
 74
0
 40
0
 40
0
 40
0
 40
0
 40
1
 40
1
 40
1
 40
1
 10
31.253755
 20
136.668470
 30
0.0
 10
31.009855
 20
136.912370
 30
0.0
 10
31.682734
 20
137.222780
 30
0.0
 10
35.180017
 20
138.479730
 30
0.0
  0
SPLINE
  5
10c
100
AcDbEntity
  8
Layer_1
 62
7
100
AcDbSpline
 70
8
 71
3
 72
8
 73
4
 74
0
 40
0
 40
0
 40
0
 40
0
 40
1
 40
1
 40
1
 40
1
 10
35.180017
 20
138.479730
 30
0.0
 10
38.238985
 20
139.579140
 30
0.0
 10
39.062595
 20
139.746910
 30
0.0
 10
45.772916
 20
140.637420
 30
0.0
  0
SPLINE
  5
10d
100
AcDbEntity
  8
Layer_1
 62
7
100
AcDbSpline
 70
8
 71
3
 72
8
 73
4
 74
0
 40
0
 40
0
 40
0
 40
0
 40
1
 40
1
 40
1
 40
1
 10
45.772916
 20
140.637420
 30
0.0
 10
49.774739
 20
141.168500
 30
0.0
 10
53.108489
 20
141.615150
 30
0.0
 10
53.181249
 20
141.629970
 30
0.0
  0
SPLINE
  5
10e
100
AcDbEntity
  8
Layer_1
 62
7
100
AcDbSpline
 70
8
 71
3
 72
8
 73
4
 74
0
 40
0
 40
0
 40
0
 40
0
 40
1
 40
1
 40
1
 40
1
 10
53.181249
 20
141.629970
 30
0.0
 10
53.254009
 20
141.644770
 30
0.0
 10
53.578958
 20
141.566570
 30
0.0
 10
53.903357
 20
141.456130
 30
0.0
  0
SPLINE
  5
10f
100
AcDbEntity
  8
Layer_1
 62
7
100
AcDbSpline
 70
8
 71
3
 72
8
 73
4
 74
0
 40
0
 40
0
 40
0
 40
0
 40
1
 40
1
 40
1
 40
1
 10
53.903357
 20
141.456130
 30
0.0
 10
54.233135
 20
141.343860
 30
0.0
 10
56.157846
 20
141.487630
 30
0.0
 10
58.268980
 20
141.782150
 30
0.0
  0
SPLINE
  5
110
100
AcDbEntity
  8
Layer_1
 62
7
100
AcDbSpline
 70
8
 71
3
 72
8
 73
4
 74
0
 40
0
 40
0
 40
0
 40
0
 40
1
 40
1
 40
1
 40
1
 10
58.268980
 20
141.782150
 30
0.0
 10
60.345676
 20
142.071900
 30
0.0
 10
62.783534
 20
142.387860
 30
0.0
 10
63.686446
 20
142.484280
 30
0.0
  0
SPLINE
  5
111
100
AcDbEntity
  8
Layer_1
 62
7
100
AcDbSpline
 70
8
 71
3
 72
8
 73
4
 74
0
 40
0
 40
0
 40
0
 40
0
 40
1
 40
1
 40
1
 40
1
 10
63.686446
 20
142.484280
 30
0.0
 10
64.589355
 20
142.580680
 30
0.0
 10
65.455924
 20
142.813620
 30
0.0
 10
65.612155
 20
143.001860
 30
0.0
  0
SPLINE
  5
112
100
AcDbEntity
  8
Layer_1
 62
7
100
AcDbSpline
 70
8
 71
3
 72
8
 73
4
 74
0
 40
0
 40
0
 40
0
 40
0
 40
1
 40
1
 40
1
 40
1
 10
65.612155
 20
143.001860
 30
0.0
 10
65.768386
 20
143.190110
 30
0.0
 10
66.677373
 20
143.427780
 30
0.0
 10
67.632124
 20
143.530030
 30
0.0
  0
SPLINE
  5
113
100
AcDbEntity
  8
Layer_1
 62
7
100
AcDbSpline
 70
8
 71
3
 72
8
 73
4
 74
0
 40
0
 40
0
 40
0
 40
0
 40
1
 40
1
 40
1
 40
1
 10
67.632124
 20
143.530030
 30
0.0
 10
69.136971
 20
143.691180
 30
0.0
 10
69.708280
 20
143.928520
 30
0.0
 10
71.924123
 20
145.313070
 30
0.0
  0
SPLINE
  5
114
100
AcDbEntity
  8
Layer_1
 62
7
100
AcDbSpline
 70
8
 71
3
 72
8
 73
4
 74
0
 40
0
 40
0
 40
0
 40
0
 40
1
 40
1
 40
1
 40
1
 10
71.924123
 20
145.313070
 30
0.0
 10
77.677054
 20
148.907710
 30
0.0
 10
78.012958
 20
149.165470
 30
0.0
 10
78.643815
 20
150.469370
 30
0.0
  0
SPLINE
  5
115
100
AcDbEntity
  8
Layer_1
 62
7
100
AcDbSpline
 70
8
 71
3
 72
8
 73
4
 74
0
 40
0
 40
0
 40
0
 40
0
 40
1
 40
1
 40
1
 40
1
 10
78.643815
 20
150.469370
 30
0.0
 10
79.688943
 20
152.629530
 30
0.0
 10
80.051724
 20
152.760310
 30
0.0
 10
84.260792
 20
152.494340
 30
0.0
  0
SPLINE
  5
116
100
AcDbEntity
  8
Layer_1
 62
7
100
AcDbSpline
 70
8
 71
3
 72
8
 73
4
 74
0
 40
0
 40
0
 40
0
 40
0
 40
1
 40
1
 40
1
 40
1
 10
84.260792
 20
152.494340
 30
0.0
 10
86.253266
 20
152.368430
 30
0.0
 10
87.915852
 20
152.297800
 30
0.0
 10
87.955426
 20
152.337380
 30
0.0
  0
SPLINE
  5
117
100
AcDbEntity
  8
Layer_1
 62
7
100
AcDbSpline
 70
8
 71
3
 72
8
 73
4
 74
0
 40
0
 40
0
 40
0
 40
0
 40
1
 40
1
 40
1
 40
1
 10
87.955426
 20
152.337380
 30
0.0
 10
87.995006
 20
152.376980
 30
0.0
 10
89.444112
 20
152.462940
 30
0.0
 10
91.175670
 20
152.528460
 30
0.0
  0
SPLINE
  5
118
100
AcDbEntity
  8
Layer_1
 62
7
100
AcDbSpline
 70
8
 71
3
 72
8
 73
4
 74
0
 40
0
 40
0
 40
0
 40
0
 40
1
 40
1
 40
1
 40
1
 10
91.175670
 20
152.528460
 30
0.0
 10
92.907227
 20
152.593960
 30
0.0
 10
94.919270
 20
152.778760
 30
0.0
 10
95.646874
 20
152.939090
 30
0.0
  0
SPLINE
  5
119
100
AcDbEntity
  8
Layer_1
 62
7
100
AcDbSpline
 70
8
 71
3
 72
8
 73
4
 74
0
 40
0
 40
0
 40
0
 40
0
 40
1
 40
1
 40
1
 40
1
 10
95.646874
 20
152.939090
 30
0.0
 10
96.374478
 20
153.099410
 30
0.0
 10
97.594503
 20
153.252070
 30
0.0
 10
98.358041
 20
153.278320
 30
0.0
  0
SPLINE
  5
11a
100
AcDbEntity
  8
Layer_1
 62
7
100
AcDbSpline
 70
8
 71
3
 72
8
 73
4
 74
0
 40
0
 40
0
 40
0
 40
0
 40
1
 40
1
 40
1
 40
1
 10
98.358041
 20
153.278320
 30
0.0
 10
99.121581
 20
153.304620
 30
0.0
 10
99.746659
 20
153.404580
 30
0.0
 10
99.747103
 20
153.500580
 30
0.0
  0
SPLINE
  5
11b
100
AcDbEntity
  8
Layer_1
 62
7
100
AcDbSpline
 70
8
 71
3
 72
8
 73
4
 74
0
 40
0
 40
0
 40
0
 40
0
 40
1
 40
1
 40
1
 40
1
 10
99.747103
 20
153.500580
 30
0.0
 10
99.748203
 20
153.705280
 30
0.0
 10
104.022810
 20
154.465230
 30
0.0
 10
106.135060
 20
154.636210
 30
0.0
  0
SPLINE
  5
11c
100
AcDbEntity
  8
Layer_1
 62
7
100
AcDbSpline
 70
8
 71
3
 72
8
 73
4
 74
0
 40
0
 40
0
 40
0
 40
0
 40
1
 40
1
 40
1
 40
1
 10
106.135060
 20
154.636210
 30
0.0
 10
106.664810
 20
154.679110
 30
0.0
 10
107.205660
 20
154.780560
 30
0.0
 10
107.336940
 20
154.861700
 30
0.0
  0
SPLINE
  5
11d
100
AcDbEntity
  8
Layer_1
 62
7
100
AcDbSpline
 70
8
 71
3
 72
8
 73
4
 74
0
 40
0
 40
0
 40
0
 40
0
 40
1
 40
1
 40
1
 40
1
 10
107.336940
 20
154.861700
 30
0.0
 10
107.468220
 20
154.942800
 30
0.0
 10
108.046820
 20
155.069370
 30
0.0
 10
108.622710
 20
155.142900
 30
0.0
  0
SPLINE
  5
11e
100
AcDbEntity
  8
Layer_1
 62
7
100
AcDbSpline
 70
8
 71
3
 72
8
 73
4
 74
0
 40
0
 40
0
 40
0
 40
0
 40
1
 40
1
 40
1
 40
1
 10
108.622710
 20
155.142900
 30
0.0
 10
109.198600
 20
155.216400
 30
0.0
 10
111.902610
 20
155.577970
 30
0.0
 10
114.631620
 20
155.946320
 30
0.0
  0
SPLINE
  5
11f
100
AcDbEntity
  8
Layer_1
 62
7
100
AcDbSpline
 70
8
 71
3
 72
8
 73
4
 74
0
 40
0
 40
0
 40
0
 40
0
 40
1
 40
1
 40
1
 40
1
 10
114.631620
 20
155.946320
 30
0.0
 10
117.360630
 20
156.314670
 30
0.0
 10
119.801410
 20
156.541960
 30
0.0
 10
120.055580
 20
156.451420
 30
0.0
  0
SPLINE
  5
120
100
AcDbEntity
  8
Layer_1
 62
7
100
AcDbSpline
 70
8
 71
3
 72
8
 73
4
 74
0
 40
0
 40
0
 40
0
 40
0
 40
1
 40
1
 40
1
 40
1
 10
120.055580
 20
156.451420
 30
0.0
 10
120.309750
 20
156.360920
 30
0.0
 10
120.755830
 20
156.005240
 30
0.0
 10
121.046870
 20
155.661110
 30
0.0
  0
LINE
  5
121
100
AcDbEntity
  8
Layer_1
 62
7
100
AcDbLine
 10
121.046870
 20
155.661110
 30
0.0
 11
121.576040
 21
155.035410
 31
0.0
  0
LINE
  5
122
100
AcDbEntity
  8
Layer_1
 62
7
100
AcDbLine
 10
121.576040
 20
155.035410
 30
0.0
 11
124.618750
 21
155.437100
 31
0.0
  0
SPLINE
  5
123
100
AcDbEntity
  8
Layer_1
 62
7
100
AcDbSpline
 70
8
 71
3
 72
8
 73
4
 74
0
 40
0
 40
0
 40
0
 40
0
 40
1
 40
1
 40
1
 40
1
 10
124.618750
 20
155.437100
 30
0.0
 10
126.292240
 20
155.658020
 30
0.0
 10
128.530640
 20
155.967640
 30
0.0
 10
129.592970
 20
156.125140
 30
0.0
  0
SPLINE
  5
124
100
AcDbEntity
  8
Layer_1
 62
7
100
AcDbSpline
 70
8
 71
3
 72
8
 73
4
 74
0
 40
0
 40
0
 40
0
 40
0
 40
1
 40
1
 40
1
 40
1
 10
129.592970
 20
156.125140
 30
0.0
 10
130.864200
 20
156.313610
 30
0.0
 10
131.633000
 20
156.322410
 30
0.0
 10
131.841930
 20
156.150940
 30
0.0
  0
SPLINE
  5
125
100
AcDbEntity
  8
Layer_1
 62
7
100
AcDbSpline
 70
8
 71
3
 72
8
 73
4
 74
0
 40
0
 40
0
 40
0
 40
0
 40
1
 40
1
 40
1
 40
1
 10
131.841930
 20
156.150940
 30
0.0
 10
132.016520
 20
156.007610
 30
0.0
 10
132.452940
 20
155.849170
 30
0.0
 10
132.811740
 20
155.798840
 30
0.0
  0
SPLINE
  5
126
100
AcDbEntity
  8
Layer_1
 62
7
100
AcDbSpline
 70
8
 71
3
 72
8
 73
4
 74
0
 40
0
 40
0
 40
0
 40
0
 40
1
 40
1
 40
1
 40
1
 10
132.811740
 20
155.798840
 30
0.0
 10
133.395540
 20
155.716940
 30
0.0
 10
133.676430
 20
155.412030
 30
0.0
 10
134.805210
 20
153.634770
 30
0.0
  0
SPLINE
  5
127
100
AcDbEntity
  8
Layer_1
 62
7
100
AcDbSpline
 70
8
 71
3
 72
8
 73
4
 74
0
 40
0
 40
0
 40
0
 40
0
 40
1
 40
1
 40
1
 40
1
 10
134.805210
 20
153.634770
 30
0.0
 10
135.020280
 20
153.296140
 30
0.0
 10
135.292590
 20
153.261090
 30
0.0
 10
136.260410
 20
153.447460
 30
0.0
  0
SPLINE
  5
128
100
AcDbEntity
  8
Layer_1
 62
7
100
AcDbSpline
 70
8
 71
3
 72
8
 73
4
 74
0
 40
0
 40
0
 40
0
 40
0
 40
1
 40
1
 40
1
 40
1
 10
136.260410
 20
153.447460
 30
0.0
 10
139.201930
 20
154.013900
 30
0.0
 10
144.217260
 20
154.525870
 30
0.0
 10
144.656650
 20
154.304550
 30
0.0
  0
SPLINE
  5
129
100
AcDbEntity
  8
Layer_1
 62
7
100
AcDbSpline
 70
8
 71
3
 72
8
 73
4
 74
0
 40
0
 40
0
 40
0
 40
0
 40
1
 40
1
 40
1
 40
1
 10
144.656650
 20
154.304550
 30
0.0
 10
144.949550
 20
154.157020
 30
0.0
 10
145.895080
 20
154.219050
 30
0.0
 10
147.190130
 20
154.470640
 30
0.0
  0
LINE
  5
12a
100
AcDbEntity
  8
Layer_1
 62
7
100
AcDbLine
 10
147.190130
 20
154.470640
 30
0.0
 11
149.256300
 21
154.872120
 31
0.0
  0
LINE
  5
12b
100
AcDbEntity
  8
Layer_1
 62
7
100
AcDbLine
 10
149.256300
 20
154.872120
 30
0.0
 11
150.069580
 21
154.058840
 31
0.0
  0
SPLINE
  5
12c
100
AcDbEntity
  8
Layer_1
 62
7
100
AcDbSpline
 70
8
 71
3
 72
8
 73
4
 74
0
 40
0
 40
0
 40
0
 40
0
 40
1
 40
1
 40
1
 40
1
 10
150.069580
 20
154.058840
 30
0.0
 10
150.697590
 20
153.430830
 30
0.0
 10
150.845470
 20
153.096610
 30
0.0
 10
150.718740
 20
152.591680
 30
0.0
  0
SPLINE
  5
12d
100
AcDbEntity
  8
Layer_1
 62
7
100
AcDbSpline
 70
8
 71
3
 72
8
 73
4
 74
0
 40
0
 40
0
 40
0
 40
0
 40
1
 40
1
 40
1
 40
1
 10
150.718740
 20
152.591680
 30
0.0
 10
150.373430
 20
151.215840
 30
0.0
 10
149.759010
 20
150.828070
 30
0.0
 10
147.637500
 20
150.647050
 30
0.0
  0
SPLINE
  5
12e
100
AcDbEntity
  8
Layer_1
 62
7
100
AcDbSpline
 70
8
 71
3
 72
8
 73
4
 74
0
 40
0
 40
0
 40
0
 40
0
 40
1
 40
1
 40
1
 40
1
 10
147.637500
 20
150.647050
 30
0.0
 10
146.546090
 20
150.553950
 30
0.0
 10
145.474530
 20
150.329350
 30
0.0
 10
145.256250
 20
150.147990
 30
0.0
  0
SPLINE
  5
12f
100
AcDbEntity
  8
Layer_1
 62
7
100
AcDbSpline
 70
8
 71
3
 72
8
 73
4
 74
0
 40
0
 40
0
 40
0
 40
0
 40
1
 40
1
 40
1
 40
1
 10
145.256250
 20
150.147990
 30
0.0
 10
145.037970
 20
149.966630
 30
0.0
 10
143.013900
 20
149.558100
 30
0.0
 10
140.758330
 20
149.240130
 30
0.0
  0
SPLINE
  5
130
100
AcDbEntity
  8
Layer_1
 62
7
100
AcDbSpline
 70
8
 71
3
 72
8
 73
4
 74
0
 40
0
 40
0
 40
0
 40
0
 40
1
 40
1
 40
1
 40
1
 10
140.758330
 20
149.240130
 30
0.0
 10
135.482720
 20
148.496430
 30
0.0
 10
135.469170
 20
148.492770
 30
0.0
 10
135.454730
 20
147.807310
 30
0.0
  0
SPLINE
  5
131
100
AcDbEntity
  8
Layer_1
 62
7
100
AcDbSpline
 70
8
 71
3
 72
8
 73
4
 74
0
 40
0
 40
0
 40
0
 40
0
 40
1
 40
1
 40
1
 40
1
 10
135.454730
 20
147.807310
 30
0.0
 10
135.434030
 20
146.823000
 30
0.0
 10
134.836850
 20
145.833210
 30
0.0
 10
133.873370
 20
145.186190
 30
0.0
  0
SPLINE
  5
132
100
AcDbEntity
  8
Layer_1
 62
7
100
AcDbSpline
 70
8
 71
3
 72
8
 73
4
 74
0
 40
0
 40
0
 40
0
 40
0
 40
1
 40
1
 40
1
 40
1
 10
133.873370
 20
145.186190
 30
0.0
 10
132.973670
 20
144.581990
 30
0.0
 10
130.735400
 20
144.168330
 30
0.0
 10
124.807490
 20
143.510680
 30
0.0
  0
SPLINE
  5
133
100
AcDbEntity
  8
Layer_1
 62
7
100
AcDbSpline
 70
8
 71
3
 72
8
 73
4
 74
0
 40
0
 40
0
 40
0
 40
0
 40
1
 40
1
 40
1
 40
1
 10
124.807490
 20
143.510680
 30
0.0
 10
123.408250
 20
143.355450
 30
0.0
 10
123.246640
 20
143.269530
 30
0.0
 10
122.930250
 20
142.512630
 30
0.0
  0
SPLINE
  5
134
100
AcDbEntity
  8
Layer_1
 62
7
100
AcDbSpline
 70
8
 71
3
 72
8
 73
4
 74
0
 40
0
 40
0
 40
0
 40
0
 40
1
 40
1
 40
1
 40
1
 10
122.930250
 20
142.512630
 30
0.0
 10
122.739840
 20
142.057120
 30
0.0
 10
122.413980
 20
141.543400
 30
0.0
 10
122.206110
 20
141.371030
 30
0.0
  0
SPLINE
  5
135
100
AcDbEntity
  8
Layer_1
 62
7
100
AcDbSpline
 70
8
 71
3
 72
8
 73
4
 74
0
 40
0
 40
0
 40
0
 40
0
 40
1
 40
1
 40
1
 40
1
 10
122.206110
 20
141.371030
 30
0.0
 10
121.703600
 20
140.954340
 30
0.0
 10
112.334470
 20
139.605670
 30
0.0
 10
104.113540
 20
138.766630
 30
0.0
  0
SPLINE
  5
136
100
AcDbEntity
  8
Layer_1
 62
7
100
AcDbSpline
 70
8
 71
3
 72
8
 73
4
 74
0
 40
0
 40
0
 40
0
 40
0
 40
1
 40
1
 40
1
 40
1
 10
104.113540
 20
138.766630
 30
0.0
 10
95.172852
 20
137.854140
 30
0.0
 10
94.483107
 20
137.736260
 30
0.0
 10
89.164582
 20
136.211830
 30
0.0
  0
SPLINE
  5
137
100
AcDbEntity
  8
Layer_1
 62
7
100
AcDbSpline
 70
8
 71
3
 72
8
 73
4
 74
0
 40
0
 40
0
 40
0
 40
0
 40
1
 40
1
 40
1
 40
1
 10
89.164582
 20
136.211830
 30
0.0
 10
83.562144
 20
134.606030
 30
0.0
 10
83.126388
 20
134.505650
 30
0.0
 10
82.285416
 20
134.627070
 30
0.0
  0
LINE
  5
138
100
AcDbEntity
  8
Layer_1
 62
7
100
AcDbLine
 10
82.285416
 20
134.627070
 30
0.0
 11
82.285416
 21
134.627020
 31
0.0
  0
SPLINE
  5
139
100
AcDbEntity
  8
Layer_1
 62
7
100
AcDbSpline
 70
8
 71
3
 72
8
 73
4
 74
0
 40
0
 40
0
 40
0
 40
0
 40
1
 40
1
 40
1
 40
1
 10
44.846874
 20
138.913380
 30
0.0
 10
47.611770
 20
139.311570
 30
0.0
 10
49.601142
 20
139.651470
 30
0.0
 10
49.267701
 20
139.668690
 30
0.0
  0
SPLINE
  5
13a
100
AcDbEntity
  8
Layer_1
 62
7
100
AcDbSpline
 70
8
 71
3
 72
8
 73
4
 74
0
 40
0
 40
0
 40
0
 40
0
 40
1
 40
1
 40
1
 40
1
 10
49.267701
 20
139.668690
 30
0.0
 10
48.312611
 20
139.717990
 30
0.0
 10
39.222992
 20
138.388110
 30
0.0
 10
38.562121
 20
138.102340
 30
0.0
  0
SPLINE
  5
13b
100
AcDbEntity
  8
Layer_1
 62
7
100
AcDbSpline
 70
8
 71
3
 72
8
 73
4
 74
0
 40
0
 40
0
 40
0
 40
0
 40
1
 40
1
 40
1
 40
1
 10
38.562121
 20
138.102340
 30
0.0
 10
38.091328
 20
137.898770
 30
0.0
 10
38.160297
 20
137.881090
 30
0.0
 10
38.893750
 20
138.017340
 30
0.0
  0
SPLINE
  5
13c
100
AcDbEntity
  8
Layer_1
 62
7
100
AcDbSpline
 70
8
 71
3
 72
8
 73
4
 74
0
 40
0
 40
0
 40
0
 40
0
 40
1
 40
1
 40
1
 40
1
 10
38.893750
 20
138.017340
 30
0.0
 10
39.403072
 20
138.111940
 30
0.0
 10
42.081979
 20
138.515180
 30
0.0
 10
44.846874
 20
138.913380
 30
0.0
  0
LINE
  5
13d
100
AcDbEntity
  8
Layer_1
 62
7
100
AcDbLine
 10
44.846874
 20
138.913380
 30
0.0
 11
44.846874
 21
138.913380
 31
0.0
  0
SPLINE
  5
13e
100
AcDbEntity
  8
Layer_1
 62
7
100
AcDbSpline
 70
8
 71
3
 72
8
 73
4
 74
0
 40
0
 40
0
 40
0
 40
0
 40
1
 40
1
 40
1
 40
1
 10
51.263020
 20
139.882390
 30
0.0
 10
51.008359
 20
139.948990
 30
0.0
 10
50.591640
 20
139.948990
 30
0.0
 10
50.336979
 20
139.882390
 30
0.0
  0
SPLINE
  5
13f
100
AcDbEntity
  8
Layer_1
 62
7
100
AcDbSpline
 70
8
 71
3
 72
8
 73
4
 74
0
 40
0
 40
0
 40
0
 40
0
 40
1
 40
1
 40
1
 40
1
 10
50.336979
 20
139.882390
 30
0.0
 10
50.082317
 20
139.815890
 30
0.0
 10
50.290679
 20
139.761390
 30
0.0
 10
50.799999
 20
139.761390
 30
0.0
  0
SPLINE
  5
140
100
AcDbEntity
  8
Layer_1
 62
7
100
AcDbSpline
 70
8
 71
3
 72
8
 73
4
 74
0
 40
0
 40
0
 40
0
 40
0
 40
1
 40
1
 40
1
 40
1
 10
50.799999
 20
139.761390
 30
0.0
 10
51.309322
 20
139.761390
 30
0.0
 10
51.517682
 20
139.815890
 30
0.0
 10
51.263020
 20
139.882390
 30
0.0
  0
LINE
  5
141
100
AcDbEntity
  8
Layer_1
 62
7
100
AcDbLine
 10
51.263020
 20
139.882390
 30
0.0
 11
51.263020
 21
139.882390
 31
0.0
  0
SPLINE
  5
142
100
AcDbEntity
  8
Layer_1
 62
7
100
AcDbSpline
 70
8
 71
3
 72
8
 73
4
 74
0
 40
0
 40
0
 40
0
 40
0
 40
1
 40
1
 40
1
 40
1
 10
53.115104
 20
140.146970
 30
0.0
 10
52.860442
 20
140.213470
 30
0.0
 10
52.443723
 20
140.213470
 30
0.0
 10
52.189062
 20
140.146970
 30
0.0
  0
SPLINE
  5
143
100
AcDbEntity
  8
Layer_1
 62
7
100
AcDbSpline
 70
8
 71
3
 72
8
 73
4
 74
0
 40
0
 40
0
 40
0
 40
0
 40
1
 40
1
 40
1
 40
1
 10
52.189062
 20
140.146970
 30
0.0
 10
51.934400
 20
140.080370
 30
0.0
 10
52.142762
 20
140.025970
 30
0.0
 10
52.652083
 20
140.025970
 30
0.0
  0
SPLINE
  5
144
100
AcDbEntity
  8
Layer_1
 62
7
100
AcDbSpline
 70
8
 71
3
 72
8
 73
4
 74
0
 40
0
 40
0
 40
0
 40
0
 40
1
 40
1
 40
1
 40
1
 10
52.652083
 20
140.025970
 30
0.0
 10
53.161406
 20
140.025970
 30
0.0
 10
53.369765
 20
140.080470
 30
0.0
 10
53.115104
 20
140.146970
 30
0.0
  0
LINE
  5
145
100
AcDbEntity
  8
Layer_1
 62
7
100
AcDbLine
 10
53.115104
 20
140.146970
 30
0.0
 11
53.115104
 21
140.146970
 31
0.0
  0
SPLINE
  5
146
100
AcDbEntity
  8
Layer_1
 62
7
100
AcDbSpline
 70
8
 71
3
 72
8
 73
4
 74
0
 40
0
 40
0
 40
0
 40
0
 40
1
 40
1
 40
1
 40
1
 10
69.249175
 20
142.241110
 30
0.0
 10
69.161255
 20
142.329010
 30
0.0
 10
68.933051
 20
142.338410
 30
0.0
 10
68.742056
 20
142.262010
 30
0.0
  0
SPLINE
  5
147
100
AcDbEntity
  8
Layer_1
 62
7
100
AcDbSpline
 70
8
 71
3
 72
8
 73
4
 74
0
 40
0
 40
0
 40
0
 40
0
 40
1
 40
1
 40
1
 40
1
 10
68.742056
 20
142.262010
 30
0.0
 10
68.530990
 20
142.177510
 30
0.0
 10
68.593683
 20
142.114860
 30
0.0
 10
68.901910
 20
142.102160
 30
0.0
  0
SPLINE
  5
148
100
AcDbEntity
  8
Layer_1
 62
7
100
AcDbSpline
 70
8
 71
3
 72
8
 73
4
 74
0
 40
0
 40
0
 40
0
 40
0
 40
1
 40
1
 40
1
 40
1
 10
68.901910
 20
142.102160
 30
0.0
 10
69.180823
 20
142.090660
 30
0.0
 10
69.337094
 20
142.153260
 30
0.0
 10
69.249175
 20
142.241130
 30
0.0
  0
LINE
  5
149
100
AcDbEntity
  8
Layer_1
 62
7
100
AcDbLine
 10
69.249175
 20
142.241130
 30
0.0
 11
69.249175
 21
142.241110
 31
0.0
  0
SPLINE
  5
14a
100
AcDbEntity
  8
Layer_1
 62
7
100
AcDbSpline
 70
8
 71
3
 72
8
 73
4
 74
0
 40
0
 40
0
 40
0
 40
0
 40
1
 40
1
 40
1
 40
1
 10
76.561370
 20
145.005220
 30
0.0
 10
79.636833
 20
146.031310
 30
0.0
 10
82.263828
 20
146.981410
 30
0.0
 10
82.399131
 20
147.116540
 30
0.0
  0
SPLINE
  5
14b
100
AcDbEntity
  8
Layer_1
 62
7
100
AcDbSpline
 70
8
 71
3
 72
8
 73
4
 74
0
 40
0
 40
0
 40
0
 40
0
 40
1
 40
1
 40
1
 40
1
 10
82.399131
 20
147.116540
 30
0.0
 10
82.693718
 20
147.410750
 30
0.0
 10
82.074209
 20
148.695840
 30
0.0
 10
81.637792
 20
148.695840
 30
0.0
  0
SPLINE
  5
14c
100
AcDbEntity
  8
Layer_1
 62
7
100
AcDbSpline
 70
8
 71
3
 72
8
 73
4
 74
0
 40
0
 40
0
 40
0
 40
0
 40
1
 40
1
 40
1
 40
1
 10
81.637792
 20
148.695840
 30
0.0
 10
81.476301
 20
148.695840
 30
0.0
 10
79.978373
 20
148.026910
 30
0.0
 10
78.309064
 20
147.209330
 30
0.0
  0
SPLINE
  5
14d
100
AcDbEntity
  8
Layer_1
 62
7
100
AcDbSpline
 70
8
 71
3
 72
8
 73
4
 74
0
 40
0
 40
0
 40
0
 40
0
 40
1
 40
1
 40
1
 40
1
 10
78.309064
 20
147.209330
 30
0.0
 10
76.639755
 20
146.391760
 30
0.0
 10
74.172629
 20
145.206280
 30
0.0
 10
72.826562
 20
144.574930
 30
0.0
  0
SPLINE
  5
14e
100
AcDbEntity
  8
Layer_1
 62
7
100
AcDbSpline
 70
8
 71
3
 72
8
 73
4
 74
0
 40
0
 40
0
 40
0
 40
0
 40
1
 40
1
 40
1
 40
1
 10
72.826562
 20
144.574930
 30
0.0
 10
70.517768
 20
143.492030
 30
0.0
 10
69.989308
 20
143.139590
 30
0.0
 10
70.674391
 20
143.139590
 30
0.0
  0
SPLINE
  5
14f
100
AcDbEntity
  8
Layer_1
 62
7
100
AcDbSpline
 70
8
 71
3
 72
8
 73
4
 74
0
 40
0
 40
0
 40
0
 40
0
 40
1
 40
1
 40
1
 40
1
 10
70.674391
 20
143.139590
 30
0.0
 10
70.836765
 20
143.139590
 30
0.0
 10
73.485906
 20
143.979120
 30
0.0
 10
76.561370
 20
145.005220
 30
0.0
  0
LINE
  5
150
100
AcDbEntity
  8
Layer_1
 62
7
100
AcDbLine
 10
76.561370
 20
145.005220
 30
0.0
 11
76.561370
 21
145.005220
 31
0.0
  0
SPLINE
  5
151
100
AcDbEntity
  8
Layer_1
 62
7
100
AcDbSpline
 70
8
 71
3
 72
8
 73
4
 74
0
 40
0
 40
0
 40
0
 40
0
 40
1
 40
1
 40
1
 40
1
 10
125.390450
 20
150.718220
 30
0.0
 10
125.451050
 20
150.770120
 30
0.0
 10
125.433450
 20
150.879710
 30
0.0
 10
125.351350
 20
150.961860
 30
0.0
  0
SPLINE
  5
152
100
AcDbEntity
  8
Layer_1
 62
7
100
AcDbSpline
 70
8
 71
3
 72
8
 73
4
 74
0
 40
0
 40
0
 40
0
 40
0
 40
1
 40
1
 40
1
 40
1
 10
125.351350
 20
150.961860
 30
0.0
 10
125.116020
 20
151.197190
 30
0.0
 10
123.284190
 20
150.780820
 30
0.0
 10
123.440710
 20
150.527580
 30
0.0
  0
SPLINE
  5
153
100
AcDbEntity
  8
Layer_1
 62
7
100
AcDbSpline
 70
8
 71
3
 72
8
 73
4
 74
0
 40
0
 40
0
 40
0
 40
0
 40
1
 40
1
 40
1
 40
1
 10
123.440710
 20
150.527580
 30
0.0
 10
123.565300
 20
150.325980
 30
0.0
 10
125.108240
 20
150.476880
 30
0.0
 10
125.390460
 20
150.718220
 30
0.0
  0
LINE
  5
154
100
AcDbEntity
  8
Layer_1
 62
7
100
AcDbLine
 10
125.390460
 20
150.718220
 30
0.0
 11
125.390450
 21
150.718220
 31
0.0
  0
SPLINE
  5
155
100
AcDbEntity
  8
Layer_1
 62
7
100
AcDbSpline
 70
8
 71
3
 72
8
 73
4
 74
0
 40
0
 40
0
 40
0
 40
0
 40
1
 40
1
 40
1
 40
1
 10
134.180680
 20
151.606250
 30
0.0
 10
134.609740
 20
151.606250
 30
0.0
 10
134.937510
 20
151.749490
 30
0.0
 10
134.937520
 20
151.936980
 30
0.0
  0
SPLINE
  5
156
100
AcDbEntity
  8
Layer_1
 62
7
100
AcDbSpline
 70
8
 71
3
 72
8
 73
4
 74
0
 40
0
 40
0
 40
0
 40
0
 40
1
 40
1
 40
1
 40
1
 10
134.937520
 20
151.936980
 30
0.0
 10
134.937530
 20
152.143120
 30
0.0
 10
134.613590
 20
152.250460
 30
0.0
 10
134.077620
 20
152.221930
 30
0.0
  0
SPLINE
  5
157
100
AcDbEntity
  8
Layer_1
 62
7
100
AcDbSpline
 70
8
 71
3
 72
8
 73
4
 74
0
 40
0
 40
0
 40
0
 40
0
 40
1
 40
1
 40
1
 40
1
 10
134.077620
 20
152.221930
 30
0.0
 10
133.604670
 20
152.196730
 30
0.0
 10
132.913040
 20
152.167030
 30
0.0
 10
132.540670
 20
152.155830
 30
0.0
  0
SPLINE
  5
158
100
AcDbEntity
  8
Layer_1
 62
7
100
AcDbSpline
 70
8
 71
3
 72
8
 73
4
 74
0
 40
0
 40
0
 40
0
 40
0
 40
1
 40
1
 40
1
 40
1
 10
132.540670
 20
152.155830
 30
0.0
 10
132.168300
 20
152.144630
 30
0.0
 10
131.632520
 20
151.948520
 30
0.0
 10
131.350050
 20
151.720030
 30
0.0
  0
SPLINE
  5
159
100
AcDbEntity
  8
Layer_1
 62
7
100
AcDbSpline
 70
8
 71
3
 72
8
 73
4
 74
0
 40
0
 40
0
 40
0
 40
0
 40
1
 40
1
 40
1
 40
1
 10
131.350050
 20
151.720030
 30
0.0
 10
130.871010
 20
151.332560
 30
0.0
 10
130.923500
 20
151.314750
 30
0.0
 10
132.130160
 20
151.455450
 30
0.0
  0
SPLINE
  5
15a
100
AcDbEntity
  8
Layer_1
 62
7
100
AcDbSpline
 70
8
 71
3
 72
8
 73
4
 74
0
 40
0
 40
0
 40
0
 40
0
 40
1
 40
1
 40
1
 40
1
 10
132.130160
 20
151.455450
 30
0.0
 10
132.841690
 20
151.538450
 30
0.0
 10
133.764430
 20
151.606290
 30
0.0
 10
134.180680
 20
151.606290
 30
0.0
  0
LINE
  5
15b
100
AcDbEntity
  8
Layer_1
 62
7
100
AcDbLine
 10
134.180680
 20
151.606290
 30
0.0
 11
134.180680
 21
151.606250
 31
0.0
  0
SPLINE
  5
15c
100
AcDbEntity
  8
Layer_1
 62
7
100
AcDbSpline
 70
8
 71
3
 72
8
 73
4
 74
0
 40
0
 40
0
 40
0
 40
0
 40
1
 40
1
 40
1
 40
1
 10
136.188760
 20
151.501520
 30
0.0
 10
136.100860
 20
151.589420
 30
0.0
 10
135.872630
 20
151.598820
 30
0.0
 10
135.681640
 20
151.522420
 30
0.0
  0
SPLINE
  5
15d
100
AcDbEntity
  8
Layer_1
 62
7
100
AcDbSpline
 70
8
 71
3
 72
8
 73
4
 74
0
 40
0
 40
0
 40
0
 40
0
 40
1
 40
1
 40
1
 40
1
 10
135.681640
 20
151.522420
 30
0.0
 10
135.470570
 20
151.437920
 30
0.0
 10
135.533270
 20
151.375260
 30
0.0
 10
135.841490
 20
151.362570
 30
0.0
  0
SPLINE
  5
15e
100
AcDbEntity
  8
Layer_1
 62
7
100
AcDbSpline
 70
8
 71
3
 72
8
 73
4
 74
0
 40
0
 40
0
 40
0
 40
0
 40
1
 40
1
 40
1
 40
1
 10
135.841490
 20
151.362570
 30
0.0
 10
136.120410
 20
151.351070
 30
0.0
 10
136.276680
 20
151.413570
 30
0.0
 10
136.188760
 20
151.501530
 30
0.0
  0
LINE
  5
15f
100
AcDbEntity
  8
Layer_1
 62
7
100
AcDbLine
 10
136.188760
 20
151.501530
 30
0.0
 11
136.188760
 21
151.501520
 31
0.0
  0
SPLINE
  5
160
100
AcDbEntity
  8
Layer_1
 62
7
100
AcDbSpline
 70
8
 71
3
 72
8
 73
4
 74
0
 40
0
 40
0
 40
0
 40
0
 40
1
 40
1
 40
1
 40
1
 10
138.310940
 20
151.788640
 30
0.0
 10
138.056270
 20
151.855240
 30
0.0
 10
137.639560
 20
151.855240
 30
0.0
 10
137.384890
 20
151.788640
 30
0.0
  0
SPLINE
  5
161
100
AcDbEntity
  8
Layer_1
 62
7
100
AcDbSpline
 70
8
 71
3
 72
8
 73
4
 74
0
 40
0
 40
0
 40
0
 40
0
 40
1
 40
1
 40
1
 40
1
 10
137.384890
 20
151.788640
 30
0.0
 10
137.130230
 20
151.722140
 30
0.0
 10
137.338590
 20
151.667640
 30
0.0
 10
137.847910
 20
151.667640
 30
0.0
  0
SPLINE
  5
162
100
AcDbEntity
  8
Layer_1
 62
7
100
AcDbSpline
 70
8
 71
3
 72
8
 73
4
 74
0
 40
0
 40
0
 40
0
 40
0
 40
1
 40
1
 40
1
 40
1
 10
137.847910
 20
151.667640
 30
0.0
 10
138.357240
 20
151.667640
 30
0.0
 10
138.565600
 20
151.722140
 30
0.0
 10
138.310940
 20
151.788640
 30
0.0
  0
LINE
  5
163
100
AcDbEntity
  8
Layer_1
 62
7
100
AcDbLine
 10
138.310940
 20
151.788640
 30
0.0
 11
138.310940
 21
151.788640
 31
0.0
  0
SPLINE
  5
164
100
AcDbEntity
  8
Layer_1
 62
7
100
AcDbSpline
 70
8
 71
3
 72
8
 73
4
 74
0
 40
0
 40
0
 40
0
 40
0
 40
1
 40
1
 40
1
 40
1
 10
139.766140
 20
152.046070
 30
0.0
 10
139.584240
 20
152.119470
 30
0.0
 10
139.286590
 20
152.119470
 30
0.0
 10
139.104690
 20
152.046070
 30
0.0
  0
SPLINE
  5
165
100
AcDbEntity
  8
Layer_1
 62
7
100
AcDbSpline
 70
8
 71
3
 72
8
 73
4
 74
0
 40
0
 40
0
 40
0
 40
0
 40
1
 40
1
 40
1
 40
1
 10
139.104690
 20
152.046070
 30
0.0
 10
138.922780
 20
151.972670
 30
0.0
 10
139.071590
 20
151.912610
 30
0.0
 10
139.435410
 20
151.912610
 30
0.0
  0
SPLINE
  5
166
100
AcDbEntity
  8
Layer_1
 62
7
100
AcDbSpline
 70
8
 71
3
 72
8
 73
4
 74
0
 40
0
 40
0
 40
0
 40
0
 40
1
 40
1
 40
1
 40
1
 10
139.435410
 20
151.912610
 30
0.0
 10
139.799220
 20
151.912610
 30
0.0
 10
139.948050
 20
151.972710
 30
0.0
 10
139.766140
 20
152.046070
 30
0.0
  0
LINE
  5
167
100
AcDbEntity
  8
Layer_1
 62
7
100
AcDbLine
 10
139.766140
 20
152.046070
 30
0.0
 11
139.766140
 21
152.046070
 31
0.0
  0
SPLINE
  5
168
100
AcDbEntity
  8
Layer_1
 62
7
100
AcDbSpline
 70
8
 71
3
 72
8
 73
4
 74
0
 40
0
 40
0
 40
0
 40
0
 40
1
 40
1
 40
1
 40
1
 10
143.734890
 20
152.575230
 30
0.0
 10
143.552990
 20
152.648630
 30
0.0
 10
143.255340
 20
152.648630
 30
0.0
 10
143.073440
 20
152.575230
 30
0.0
  0
SPLINE
  5
169
100
AcDbEntity
  8
Layer_1
 62
7
100
AcDbSpline
 70
8
 71
3
 72
8
 73
4
 74
0
 40
0
 40
0
 40
0
 40
0
 40
1
 40
1
 40
1
 40
1
 10
143.073440
 20
152.575230
 30
0.0
 10
142.891530
 20
152.501830
 30
0.0
 10
143.040340
 20
152.441780
 30
0.0
 10
143.404160
 20
152.441780
 30
0.0
  0
SPLINE
  5
16a
100
AcDbEntity
  8
Layer_1
 62
7
100
AcDbSpline
 70
8
 71
3
 72
8
 73
4
 74
0
 40
0
 40
0
 40
0
 40
0
 40
1
 40
1
 40
1
 40
1
 10
143.404160
 20
152.441780
 30
0.0
 10
143.767970
 20
152.441780
 30
0.0
 10
143.916800
 20
152.501880
 30
0.0
 10
143.734890
 20
152.575230
 30
0.0
  0
LINE
  5
16b
100
AcDbEntity
  8
Layer_1
 62
7
100
AcDbLine
 10
143.734890
 20
152.575230
 30
0.0
 11
143.734890
 21
152.575230
 31
0.0
  0
ENDSEC
  0
SECTION
  2
OBJECTS
  0
DICTIONARY
  5
C
330
0
100
AcDbDictionary
  3
ACAD_GROUP
350
D
  3
ACAD_MLINESTYLE
350
17
  0
DICTIONARY
  5
D
330
C
100
AcDbDictionary
  0
DICTIONARY
  5
1A
330
C
100
AcDbDictionary
  0
DICTIONARY
  5
17
330
C
100
AcDbDictionary
  3
STANDARD
350
18
  0
DICTIONARY
  5
19
330
C
100
AcDbDictionary
  0
ENDSEC
  0
EOF
