M48
METRIC
T1C0.400
T2C0.650
T3C0.700
T4C0.800
T5C1.000
T6C1.200
T7C1.500
%
G90
G05
T1
X101.1Y-118.85
X101.45Y-138.2
X101.45Y-139.2
X101.45Y-140.2
X101.45Y-141.3
X101.55Y-130.6
X101.55Y-131.6
X101.55Y-132.6
X101.55Y-133.7
X102.3Y-118.85
X102.45Y-138.2
X102.45Y-139.2
X102.45Y-140.2
X102.45Y-141.3
X102.55Y-130.6
X102.55Y-131.6
X102.55Y-132.6
X102.55Y-133.7
X103.5Y-118.85
X103.9Y-122.45
X103.9Y-125.65
X104.7Y-118.85
X104.9Y-122.45
X104.9Y-125.65
X105.9Y-118.85
X105.9Y-122.45
X105.9Y-125.65
X107.05Y-138.4
X107.05Y-139.4
X107.05Y-140.4
X107.05Y-141.5
X107.15Y-130.8
X107.15Y-131.8
X107.15Y-132.8
X107.15Y-133.9
X108.05Y-138.4
X108.05Y-139.4
X108.05Y-140.4
X108.05Y-141.5
X108.15Y-130.8
X108.15Y-131.8
X108.15Y-132.8
X108.15Y-133.9
X116.6Y-129.5
X117.9Y-129.5
X119.1Y-129.5
X121.3Y-143.3
X121.3Y-144.3
X121.3Y-145.3
X121.3Y-146.3
X121.3Y-147.3
X121.3Y-148.3
X122.4Y-143.3
X122.4Y-144.3
X122.4Y-145.3
X122.4Y-146.3
X122.4Y-147.3
X122.4Y-148.3
X123.4Y-143.3
X123.4Y-144.3
X123.4Y-145.3
X123.4Y-146.3
X123.4Y-147.3
X123.4Y-148.3
X124.1Y-131.4
X124.1Y-132.4
X124.4Y-143.3
X124.4Y-144.3
X124.4Y-145.3
X124.4Y-146.3
X124.4Y-147.3
X124.4Y-148.3
X125.2Y-131.4
X125.2Y-132.4
X125.4Y-143.3
X125.4Y-144.3
X125.4Y-145.3
X125.4Y-146.3
X125.4Y-147.3
X125.4Y-148.3
X126.2Y-131.4
X126.2Y-132.4
X126.5Y-143.3
X126.5Y-144.3
X126.5Y-145.3
X126.5Y-146.3
X126.5Y-147.3
X126.5Y-148.3
X127.2Y-131.4
X127.2Y-132.4
X127.5Y-143.3
X127.5Y-144.3
X127.5Y-145.3
X127.5Y-146.3
X127.5Y-147.3
X127.5Y-148.3
X127.85Y-125.55
X128.1Y-136.4
X128.1Y-137.4
X128.1Y-138.4
X128.1Y-139.5
X128.5Y-143.3
X128.5Y-144.3
X128.5Y-145.3
X128.5Y-146.3
X128.5Y-147.3
X128.5Y-148.3
X129.1Y-136.4
X129.1Y-137.4
X129.1Y-138.4
X129.1Y-139.5
X130.05Y-116.75
X131.3Y-136.9
X134.037Y-116.712
X134.112Y-108.712
X136.2Y-118.3
X136.35Y-110.3
X138.7Y-136.8
X140.2Y-110.6
X140.213Y-117.512
X141.7Y-143.0
X141.8Y-110.6
X141.95Y-102.05
X141.95Y-105.9
X142.55Y-108.95
X143.512Y-132.637
X144.213Y-126.188
X144.3Y-145.0
X145.1Y-108.9
X145.8Y-115.8
X146.15Y-131.75
X146.5Y-124.3
X147.05Y-114.8
X147.05Y-117.2
X147.5Y-125.4
X148.0Y-139.2
X148.455Y-120.57
X148.838Y-127.738
X149.15Y-113.9
X149.6Y-133.1
X150.8Y-114.9
X150.95Y-113.4
X151.3Y-116.75
X151.3Y-117.9
X151.4Y-125.4
X151.7Y-108.9
X151.75Y-128.85
X152.0Y-139.2
X152.523Y-118.172
X152.6Y-129.6
X153.459Y-118.638
X153.6Y-131.9
X154.25Y-102.0
X154.25Y-105.75
X155.4Y-108.9
X155.637Y-145.037
X156.387Y-132.762
X157.3Y-123.6
X157.8Y-115.9
X158.3Y-143.0
X158.6Y-119.8
X158.6Y-121.3
X161.3Y-136.8
X165.3Y-109.55
X165.3Y-110.4
X165.3Y-111.25
X168.0Y-115.35
X168.05Y-112.8
X168.05Y-120.4
X168.8Y-136.8
X170.8Y-110.3
X171.35Y-131.5
X171.35Y-132.5
X171.35Y-133.5
X171.35Y-137.8
X171.35Y-138.9
X171.35Y-139.9
X171.35Y-140.9
X171.9Y-110.3
X172.35Y-131.5
X172.35Y-132.5
X172.35Y-133.5
X172.35Y-137.8
X172.35Y-138.9
X172.35Y-139.9
X172.35Y-140.9
X176.85Y-131.5
X176.85Y-132.5
X176.85Y-133.5
X176.95Y-138.0
X176.95Y-139.1
X176.95Y-140.1
X176.95Y-141.1
X177.85Y-131.5
X177.85Y-132.5
X177.85Y-133.5
X177.95Y-138.0
X177.95Y-139.1
X177.95Y-140.1
X177.95Y-141.1
X180.675Y-124.35
X184.3Y-124.35
X184.35Y-110.15
X184.4Y-111.55
X186.6Y-129.4
X187.9Y-129.4
X189.1Y-129.4
X191.3Y-143.3
X191.3Y-144.3
X191.3Y-145.3
X191.3Y-146.3
X191.3Y-147.3
X191.3Y-148.3
X191.95Y-108.75
X192.4Y-143.3
X192.4Y-144.3
X192.4Y-145.3
X192.4Y-146.3
X192.4Y-147.3
X192.4Y-148.3
X193.4Y-147.3
X193.4Y-148.3
X193.9Y-131.4
X193.9Y-132.4
X194.4Y-147.3
X194.4Y-148.3
X195.0Y-131.4
X195.0Y-132.4
X195.4Y-147.3
X195.4Y-148.3
X196.0Y-131.4
X196.0Y-132.4
X196.5Y-147.3
X196.5Y-148.3
X197.0Y-131.4
X197.0Y-132.4
X197.5Y-143.3
X197.5Y-144.3
X197.5Y-145.3
X197.5Y-146.3
X197.5Y-147.3
X197.5Y-148.3
X198.0Y-136.5
X198.0Y-137.5
X198.0Y-138.5
X198.0Y-139.6
X198.5Y-143.3
X198.5Y-144.3
X198.5Y-145.3
X198.5Y-146.3
X198.5Y-147.3
X198.5Y-148.3
X199.0Y-136.5
X199.0Y-137.5
X199.0Y-138.5
X199.0Y-139.6
T5
X102.16Y-113.45
X104.7Y-113.45
X182.5Y-115.464
X182.5Y-117.964
X182.5Y-120.464
X197.0Y-115.464
X197.0Y-120.464
X102.16Y-109.85
X104.7Y-109.85
X150.0Y-102.01
X150.0Y-104.55
X126.5Y-115.2
X126.5Y-117.74
X126.5Y-120.28
X126.5Y-122.82
X178.5Y-110.27
X178.5Y-112.81
X178.5Y-115.35
X178.5Y-117.89
X178.5Y-120.43
X178.5Y-122.97
X178.5Y-125.51
X178.5Y-128.05
X137.6Y-123.44
X138.06Y-120.9
X138.06Y-125.98
X140.1Y-123.44
X140.6Y-120.9
X140.6Y-125.98
X146.25Y-102.01
X146.25Y-104.55
T6
X120.3Y-106.6
X120.3Y-111.68
T7
X112.15Y-141.16
X112.15Y-145.61
X113.65Y-138.86
X113.65Y-147.76
X182.15Y-141.16
X182.15Y-145.61
X183.65Y-138.86
X183.65Y-147.76
T2
G00X161.605Y-104.685
M15
G01X161.605Y-105.085
M16
G05
G00X166.445Y-104.685
M15
G01X166.445Y-105.085
M16
G05
T3
G00X161.295Y-101.635
M15
G01X161.295Y-102.135
M16
G05
G00X166.755Y-101.635
M15
G01X166.755Y-102.135
M16
G05
T4
G00X110.7Y-107.9
M15
G01X110.7Y-110.1
M16
G05
G00X116.6Y-106.2
M15
G01X114.4Y-106.2
M16
G05
G00X116.8Y-112.0
M15
G01X114.2Y-112.0
M16
G05
T5
G00X112.0Y-119.55
M15
G01X110.7Y-119.55
M16
G05
G00X112.0Y-124.0
M15
G01X110.7Y-124.0
M16
G05
G00X112.0Y-128.45
M15
G01X110.7Y-128.45
M16
G05
T7
G00X189.35Y-112.364
M15
G01X190.65Y-112.364
M16
G05
G00X189.35Y-123.564
M15
G01X190.65Y-123.564
M16
G05
T0
M30
