G04 #@! TF.GenerationSoftware,KiCad,Pcbnew,(5.1.2)-1*
G04 #@! TF.CreationDate,2020-10-29T23:57:23+01:00*
G04 #@! TF.ProjectId,SolderingRT1,536f6c64-6572-4696-9e67-5254312e6b69,rev?*
G04 #@! TF.SameCoordinates,Original*
G04 #@! TF.FileFunction,Legend,Bot*
G04 #@! TF.FilePolarity,Positive*
%FSLAX46Y46*%
G04 Gerber Fmt 4.6, Leading zero omitted, Abs format (unit mm)*
G04 Created by KiCad (PCBNEW (5.1.2)-1) date 2020-10-29 23:57:23*
%MOMM*%
%LPD*%
G04 APERTURE LIST*
%ADD10C,0.150000*%
%ADD11C,0.120000*%
G04 APERTURE END LIST*
D10*
X116933333Y-113752380D02*
X116600000Y-114752380D01*
X116266666Y-113752380D01*
X115933333Y-114752380D02*
X115933333Y-113752380D01*
X115695238Y-113752380D01*
X115552380Y-113800000D01*
X115457142Y-113895238D01*
X115409523Y-113990476D01*
X115361904Y-114180952D01*
X115361904Y-114323809D01*
X115409523Y-114514285D01*
X115457142Y-114609523D01*
X115552380Y-114704761D01*
X115695238Y-114752380D01*
X115933333Y-114752380D01*
X114361904Y-114657142D02*
X114409523Y-114704761D01*
X114552380Y-114752380D01*
X114647619Y-114752380D01*
X114790476Y-114704761D01*
X114885714Y-114609523D01*
X114933333Y-114514285D01*
X114980952Y-114323809D01*
X114980952Y-114180952D01*
X114933333Y-113990476D01*
X114885714Y-113895238D01*
X114790476Y-113800000D01*
X114647619Y-113752380D01*
X114552380Y-113752380D01*
X114409523Y-113800000D01*
X114361904Y-113847619D01*
X116161904Y-103700000D02*
X116257142Y-103652380D01*
X116400000Y-103652380D01*
X116542857Y-103700000D01*
X116638095Y-103795238D01*
X116685714Y-103890476D01*
X116733333Y-104080952D01*
X116733333Y-104223809D01*
X116685714Y-104414285D01*
X116638095Y-104509523D01*
X116542857Y-104604761D01*
X116400000Y-104652380D01*
X116304761Y-104652380D01*
X116161904Y-104604761D01*
X116114285Y-104557142D01*
X116114285Y-104223809D01*
X116304761Y-104223809D01*
X115685714Y-104652380D02*
X115685714Y-103652380D01*
X115114285Y-104652380D01*
X115114285Y-103652380D01*
X114638095Y-104652380D02*
X114638095Y-103652380D01*
X114400000Y-103652380D01*
X114257142Y-103700000D01*
X114161904Y-103795238D01*
X114114285Y-103890476D01*
X114066666Y-104080952D01*
X114066666Y-104223809D01*
X114114285Y-104414285D01*
X114161904Y-104509523D01*
X114257142Y-104604761D01*
X114400000Y-104652380D01*
X114638095Y-104652380D01*
D11*
X119020000Y-103980000D02*
X128380000Y-103980000D01*
X128380000Y-103980000D02*
X128380000Y-114300000D01*
X128380000Y-114300000D02*
X119020000Y-114300000D01*
X119020000Y-103980000D02*
X119020000Y-105550000D01*
X119020000Y-114300000D02*
X119020000Y-112730000D01*
X119020000Y-107650000D02*
X119020000Y-110630000D01*
X125100000Y-103980000D02*
X125100000Y-114300000D01*
X117700000Y-106900000D02*
X118300000Y-106600000D01*
X118300000Y-106600000D02*
X117700000Y-106300000D01*
X117700000Y-106300000D02*
X117700000Y-106900000D01*
D10*
X116952380Y-109806666D02*
X117666666Y-109806666D01*
X117809523Y-109759047D01*
X117904761Y-109663809D01*
X117952380Y-109520952D01*
X117952380Y-109425714D01*
X117952380Y-110806666D02*
X117952380Y-110235238D01*
X117952380Y-110520952D02*
X116952380Y-110520952D01*
X117095238Y-110425714D01*
X117190476Y-110330476D01*
X117238095Y-110235238D01*
M02*
