G04 #@! TF.GenerationSoftware,KiCad,Pcbnew,(5.1.2)-1*
G04 #@! TF.CreationDate,2020-10-29T23:57:23+01:00*
G04 #@! TF.ProjectId,SolderingRT1,536f6c64-6572-4696-9e67-5254312e6b69,rev?*
G04 #@! TF.SameCoordinates,Original*
G04 #@! TF.FileFunction,Copper,L4,Bot*
G04 #@! TF.FilePolarity,Positive*
%FSLAX46Y46*%
G04 Gerber Fmt 4.6, Leading zero omitted, Abs format (unit mm)*
G04 Created by KiCad (PCBNEW (5.1.2)-1) date 2020-10-29 23:57:23*
%MOMM*%
%LPD*%
G04 APERTURE LIST*
%ADD10C,2.000000*%
%ADD11O,1.700000X1.700000*%
%ADD12R,1.700000X1.700000*%
%ADD13R,3.600000X1.800000*%
%ADD14O,3.600000X1.800000*%
%ADD15O,5.000000X3.200000*%
%ADD16R,2.000000X2.000000*%
%ADD17R,3.200000X2.000000*%
%ADD18O,1.350000X1.700000*%
%ADD19O,1.100000X1.500000*%
%ADD20R,4.400000X1.800000*%
%ADD21O,4.000000X1.800000*%
%ADD22O,1.800000X4.000000*%
%ADD23C,0.800000*%
%ADD24C,2.000000*%
%ADD25C,0.250000*%
%ADD26C,3.000000*%
%ADD27C,0.500000*%
%ADD28C,0.254000*%
G04 APERTURE END LIST*
D10*
X183650000Y-138860000D03*
X182150000Y-141160000D03*
X183650000Y-147760000D03*
X182150000Y-145610000D03*
X113650000Y-138860000D03*
X112150000Y-141160000D03*
X113650000Y-147760000D03*
X112150000Y-145610000D03*
D11*
X102160000Y-109850000D03*
D12*
X104700000Y-109850000D03*
D13*
X120300000Y-106600000D03*
D14*
X120300000Y-111680000D03*
D11*
X178500000Y-110270000D03*
X178500000Y-112810000D03*
X178500000Y-115350000D03*
X178500000Y-117890000D03*
X178500000Y-120430000D03*
X178500000Y-122970000D03*
X178500000Y-125510000D03*
D12*
X178500000Y-128050000D03*
D15*
X111350000Y-119550000D03*
X111350000Y-124000000D03*
X111350000Y-128450000D03*
D16*
X182500000Y-115463615D03*
D10*
X182500000Y-117963615D03*
X182500000Y-120463615D03*
D17*
X190000000Y-112363615D03*
X190000000Y-123563615D03*
D10*
X197000000Y-115463615D03*
X197000000Y-120463615D03*
D11*
X140600000Y-125980000D03*
X138060000Y-125980000D03*
X140100000Y-123440000D03*
X137600000Y-123440000D03*
X140600000Y-120900000D03*
D12*
X138060000Y-120900000D03*
D18*
X161295000Y-101885000D03*
X166755000Y-101885000D03*
D19*
X161605000Y-104885000D03*
X166445000Y-104885000D03*
D20*
X115500000Y-112000000D03*
D21*
X115500000Y-106200000D03*
D22*
X110700000Y-109000000D03*
D11*
X102160000Y-113450000D03*
D12*
X104700000Y-113450000D03*
D11*
X146250000Y-102010000D03*
D12*
X146250000Y-104550000D03*
D11*
X150000000Y-102010000D03*
D12*
X150000000Y-104550000D03*
D11*
X126500000Y-122820000D03*
X126500000Y-120280000D03*
X126500000Y-117740000D03*
D12*
X126500000Y-115200000D03*
D23*
X104900000Y-122450000D03*
X103900000Y-122450000D03*
X104900000Y-125650000D03*
X103900000Y-125650000D03*
X105900000Y-125650000D03*
X102450000Y-141300000D03*
X101450000Y-139200000D03*
X102450000Y-140200000D03*
X107050000Y-141500000D03*
X102450000Y-138200000D03*
X108050000Y-138400000D03*
X101450000Y-140200000D03*
X102450000Y-139200000D03*
X107050000Y-139400000D03*
X108050000Y-141500000D03*
X107050000Y-138400000D03*
X108050000Y-139400000D03*
X108050000Y-140400000D03*
X101450000Y-141300000D03*
X101450000Y-138200000D03*
X107050000Y-140400000D03*
X176950000Y-138000000D03*
X177950000Y-140100000D03*
X176950000Y-139100000D03*
X172350000Y-137800000D03*
X176950000Y-141100000D03*
X171350000Y-140900000D03*
X177950000Y-139100000D03*
X176950000Y-140100000D03*
X172350000Y-139900000D03*
X171350000Y-137800000D03*
X172350000Y-140900000D03*
X171350000Y-139900000D03*
X171350000Y-138900000D03*
X177950000Y-138000000D03*
X177950000Y-141100000D03*
X172350000Y-138900000D03*
X121300000Y-148300000D03*
X122400000Y-147300000D03*
X124400000Y-148300000D03*
X122400000Y-148300000D03*
X123400000Y-147300000D03*
X124400000Y-147300000D03*
X121300000Y-147300000D03*
X123400000Y-148300000D03*
X121300000Y-146300000D03*
X122400000Y-145300000D03*
X124400000Y-146300000D03*
X122400000Y-146300000D03*
X123400000Y-145300000D03*
X124400000Y-145300000D03*
X121300000Y-145300000D03*
X123400000Y-146300000D03*
X121300000Y-144300000D03*
X122400000Y-143300000D03*
X124400000Y-144300000D03*
X122400000Y-144300000D03*
X123400000Y-143300000D03*
X124400000Y-143300000D03*
X121300000Y-143300000D03*
X123400000Y-144300000D03*
X125400000Y-144300000D03*
X126500000Y-143300000D03*
X128500000Y-144300000D03*
X126500000Y-144300000D03*
X127500000Y-143300000D03*
X128500000Y-143300000D03*
X125400000Y-143300000D03*
X127500000Y-144300000D03*
X125400000Y-146300000D03*
X126500000Y-145300000D03*
X128500000Y-146300000D03*
X126500000Y-146300000D03*
X127500000Y-145300000D03*
X128500000Y-145300000D03*
X125400000Y-145300000D03*
X127500000Y-146300000D03*
X125400000Y-148300000D03*
X126500000Y-147300000D03*
X128500000Y-148300000D03*
X126500000Y-148300000D03*
X127500000Y-147300000D03*
X128500000Y-147300000D03*
X125400000Y-147300000D03*
X127500000Y-148300000D03*
X199000000Y-139600000D03*
X198000000Y-138500000D03*
X199000000Y-136500000D03*
X199000000Y-138500000D03*
X198000000Y-137500000D03*
X198000000Y-136500000D03*
X198000000Y-139600000D03*
X199000000Y-137500000D03*
X129100000Y-139500000D03*
X128100000Y-138400000D03*
X129100000Y-136400000D03*
X129100000Y-138400000D03*
X128100000Y-137400000D03*
X128100000Y-136400000D03*
X128100000Y-139500000D03*
X129100000Y-137400000D03*
X194400000Y-148300000D03*
X192400000Y-145300000D03*
X197500000Y-145300000D03*
X196500000Y-147300000D03*
X191300000Y-147300000D03*
X198500000Y-148300000D03*
X191300000Y-145300000D03*
X198500000Y-146300000D03*
X198500000Y-144300000D03*
X197500000Y-147300000D03*
X193400000Y-148300000D03*
X191300000Y-146300000D03*
X197500000Y-144300000D03*
X197500000Y-146300000D03*
X192400000Y-148300000D03*
X192400000Y-146300000D03*
X191300000Y-143300000D03*
X195400000Y-148300000D03*
X196500000Y-148300000D03*
X191300000Y-144300000D03*
X192400000Y-147300000D03*
X197500000Y-148300000D03*
X194400000Y-147300000D03*
X192400000Y-144300000D03*
X191300000Y-148300000D03*
X195400000Y-147300000D03*
X192400000Y-143300000D03*
X198500000Y-145300000D03*
X198500000Y-147300000D03*
X197500000Y-143300000D03*
X193400000Y-147300000D03*
X198500000Y-143300000D03*
X186600000Y-129400000D03*
X187900000Y-129400000D03*
X189100000Y-129400000D03*
X116600000Y-129500000D03*
X145800000Y-115800000D03*
X140212500Y-117512500D03*
X140200000Y-110600000D03*
X146500000Y-124300000D03*
X147500000Y-125400000D03*
X151400000Y-125400000D03*
X151700000Y-108900000D03*
X145100000Y-108900000D03*
X138700000Y-136800000D03*
X161300000Y-136800000D03*
X155637500Y-145037500D03*
X148000000Y-139200000D03*
X153600000Y-131900000D03*
X149600000Y-133100000D03*
X117900000Y-129500000D03*
X119100000Y-129500000D03*
X105900000Y-122450000D03*
X134112500Y-108712500D03*
X134037500Y-116712500D03*
X184400000Y-111550000D03*
X191950000Y-108750000D03*
X184300000Y-124350000D03*
X148837660Y-127737660D03*
X146150000Y-131750000D03*
X148455493Y-120569826D03*
X144300020Y-145000000D03*
X154250000Y-102000000D03*
X141950000Y-102050000D03*
X158600000Y-121300000D03*
X136350000Y-110300000D03*
X149150000Y-113900000D03*
X108150000Y-133900000D03*
X108150000Y-131800000D03*
X108150000Y-132800000D03*
X107150000Y-133900000D03*
X107150000Y-131800000D03*
X108150000Y-130800000D03*
X107150000Y-132800000D03*
X107150000Y-130800000D03*
X171350000Y-132500000D03*
X171350000Y-131500000D03*
X172350000Y-132500000D03*
X171350000Y-133500000D03*
X172350000Y-131500000D03*
X172350000Y-133500000D03*
X176850000Y-132500000D03*
X176850000Y-131500000D03*
X177850000Y-132500000D03*
X176850000Y-133500000D03*
X177850000Y-131500000D03*
X177850000Y-133500000D03*
X102550000Y-133700000D03*
X102550000Y-131600000D03*
X102550000Y-132600000D03*
X101550000Y-133700000D03*
X101550000Y-131600000D03*
X102550000Y-130600000D03*
X101550000Y-132600000D03*
X101550000Y-130600000D03*
X124100000Y-132400000D03*
X125200000Y-131400000D03*
X127200000Y-132400000D03*
X125200000Y-132400000D03*
X126200000Y-131400000D03*
X127200000Y-131400000D03*
X124100000Y-131400000D03*
X126200000Y-132400000D03*
X193900000Y-132400000D03*
X195000000Y-132400000D03*
X196000000Y-132400000D03*
X197000000Y-132400000D03*
X197000000Y-131400000D03*
X196000000Y-131400000D03*
X195000000Y-131400000D03*
X193900000Y-131400000D03*
X101100000Y-118850000D03*
X102300000Y-118850000D03*
X103500000Y-118850000D03*
X104700000Y-118850000D03*
X105900000Y-118850000D03*
X141800000Y-110600000D03*
X144212500Y-126187500D03*
X155400000Y-108900000D03*
X131300000Y-136900000D03*
X168800000Y-136800000D03*
X152000000Y-139200000D03*
X158300000Y-143000000D03*
X141700000Y-143000000D03*
X130050000Y-116750000D03*
X157300000Y-123600000D03*
X171900000Y-110300000D03*
X170800000Y-110300000D03*
X165300000Y-109550000D03*
X165300000Y-110400000D03*
X165300000Y-111250000D03*
X184350000Y-110150000D03*
X180675010Y-124350000D03*
X154250000Y-105750000D03*
X141950000Y-105900000D03*
X158600000Y-119800000D03*
X157800000Y-115900000D03*
X143512500Y-132637500D03*
X150950000Y-113400000D03*
X152600000Y-129600002D03*
X151750000Y-128849998D03*
X151300000Y-116750000D03*
X142550000Y-108950000D03*
X156387500Y-132762500D03*
X150800000Y-114900000D03*
X147050000Y-114800000D03*
X136200000Y-118300000D03*
X168000000Y-115350000D03*
X152522756Y-118171750D03*
X168050000Y-112800000D03*
X151300000Y-117900004D03*
X127850000Y-125550000D03*
X147050000Y-117200000D03*
X168050000Y-120400000D03*
X153458885Y-118637988D03*
D24*
X115500000Y-106200000D02*
X119900000Y-106200000D01*
D25*
X148584315Y-113900000D02*
X149150000Y-113900000D01*
X136350000Y-110300000D02*
X139950000Y-113900000D01*
X139950000Y-113900000D02*
X148584315Y-113900000D01*
D26*
X168400000Y-131900000D02*
X196500000Y-131900000D01*
X165100000Y-135200000D02*
X168400000Y-131900000D01*
X165100000Y-144600000D02*
X165100000Y-135200000D01*
X162200000Y-147500000D02*
X165100000Y-144600000D01*
X132400000Y-131900000D02*
X135000000Y-134500000D01*
X135000000Y-134500000D02*
X135000000Y-144800000D01*
X135000000Y-144800000D02*
X137700000Y-147500000D01*
X137700000Y-147500000D02*
X162200000Y-147500000D01*
X124600000Y-131900000D02*
X128900000Y-131900000D01*
X128900000Y-131900000D02*
X132400000Y-131900000D01*
X128900000Y-131900000D02*
X123800000Y-131900000D01*
X102000000Y-131900000D02*
X125400000Y-131900000D01*
D27*
X106050000Y-113450000D02*
X107300000Y-114700000D01*
X104700000Y-113450000D02*
X106050000Y-113450000D01*
X107300000Y-114700000D02*
X107300000Y-127700000D01*
D25*
X188936385Y-107400000D02*
X166300000Y-107400000D01*
X197000000Y-115463615D02*
X188936385Y-107400000D01*
X158199999Y-115500001D02*
X157800000Y-115900000D01*
X166300000Y-107400000D02*
X158199999Y-115500001D01*
X149900000Y-114450000D02*
X150950000Y-113400000D01*
X149900000Y-130450000D02*
X149900000Y-114450000D01*
X143512500Y-132637500D02*
X147712500Y-132637500D01*
X147712500Y-132637500D02*
X149900000Y-130450000D01*
X184763615Y-115463615D02*
X182500000Y-115463615D01*
X186600000Y-117300000D02*
X184763615Y-115463615D01*
X186600000Y-126750000D02*
X186600000Y-117300000D01*
X183350000Y-130000000D02*
X186600000Y-126750000D01*
X152600000Y-129600002D02*
X152999998Y-130000000D01*
X152999998Y-130000000D02*
X183350000Y-130000000D01*
X183499999Y-121463614D02*
X183499999Y-128600001D01*
X182500000Y-120463615D02*
X183499999Y-121463614D01*
X183499999Y-128600001D02*
X182750000Y-129350000D01*
X182750000Y-129350000D02*
X154450000Y-129350000D01*
X152315685Y-128849998D02*
X151750000Y-128849998D01*
X154450000Y-129350000D02*
X153949998Y-128849998D01*
X153949998Y-128849998D02*
X152315685Y-128849998D01*
X150000000Y-105650000D02*
X150450000Y-106100000D01*
X150000000Y-104550000D02*
X150000000Y-105650000D01*
X150450000Y-106100000D02*
X150450000Y-110750000D01*
X151300000Y-116750000D02*
X152300000Y-115750000D01*
X152300000Y-112600000D02*
X150450000Y-110750000D01*
X152300000Y-115750000D02*
X152300000Y-112600000D01*
X150000000Y-102010000D02*
X150000000Y-104550000D01*
X146250000Y-105250000D02*
X146250000Y-104550000D01*
X142550000Y-108950000D02*
X146250000Y-105250000D01*
X146250000Y-102010000D02*
X146250000Y-104550000D01*
X150450000Y-115250000D02*
X150800000Y-114900000D01*
X150450000Y-130550000D02*
X150450000Y-115250000D01*
X156387500Y-132762500D02*
X152662500Y-132762500D01*
X152662500Y-132762500D02*
X150450000Y-130550000D01*
X146484315Y-114800000D02*
X147050000Y-114800000D01*
X136200000Y-118300000D02*
X139700000Y-114800000D01*
X139700000Y-114800000D02*
X146484315Y-114800000D01*
X168000000Y-115350000D02*
X165950000Y-117400000D01*
X152922755Y-117771751D02*
X152522756Y-118171750D01*
X153294506Y-117400000D02*
X152922755Y-117771751D01*
X165950000Y-117400000D02*
X153294506Y-117400000D01*
X151699999Y-117500005D02*
X151300000Y-117900004D01*
X152249995Y-117500005D02*
X151699999Y-117500005D01*
X152850000Y-116900000D02*
X152249995Y-117500005D01*
X163950000Y-116900000D02*
X152850000Y-116900000D01*
X168050000Y-112800000D02*
X163950000Y-116900000D01*
X130850000Y-125550000D02*
X131550000Y-124850000D01*
X127850000Y-125550000D02*
X130850000Y-125550000D01*
X131550000Y-124850000D02*
X131550000Y-119900000D01*
X146484315Y-117200000D02*
X147050000Y-117200000D01*
X131550000Y-119900000D02*
X132250000Y-119200000D01*
X132250000Y-119200000D02*
X144484315Y-119200000D01*
X144484315Y-119200000D02*
X146484315Y-117200000D01*
X168050000Y-120400000D02*
X165887989Y-118237989D01*
X153858884Y-118237989D02*
X153458885Y-118637988D01*
X165887989Y-118237989D02*
X153858884Y-118237989D01*
D28*
G36*
X122646787Y-110476377D02*
G01*
X122499212Y-125922571D01*
X108177000Y-125873773D01*
X108177000Y-114743079D01*
X108181243Y-114700000D01*
X108164310Y-114528077D01*
X108117650Y-114374260D01*
X108126556Y-111827000D01*
X112500000Y-111827000D01*
X112524776Y-111824560D01*
X112548601Y-111817333D01*
X112570557Y-111805597D01*
X112589803Y-111789803D01*
X112605597Y-111770557D01*
X112617333Y-111748601D01*
X112624560Y-111724776D01*
X112627000Y-111700000D01*
X112627000Y-110427619D01*
X122646787Y-110476377D01*
X122646787Y-110476377D01*
G37*
X122646787Y-110476377D02*
X122499212Y-125922571D01*
X108177000Y-125873773D01*
X108177000Y-114743079D01*
X108181243Y-114700000D01*
X108164310Y-114528077D01*
X108117650Y-114374260D01*
X108126556Y-111827000D01*
X112500000Y-111827000D01*
X112524776Y-111824560D01*
X112548601Y-111817333D01*
X112570557Y-111805597D01*
X112589803Y-111789803D01*
X112605597Y-111770557D01*
X112617333Y-111748601D01*
X112624560Y-111724776D01*
X112627000Y-111700000D01*
X112627000Y-110427619D01*
X122646787Y-110476377D01*
G36*
X114016945Y-126708079D02*
G01*
X114029054Y-134591577D01*
X100677000Y-134573444D01*
X100677000Y-126690093D01*
X114016945Y-126708079D01*
X114016945Y-126708079D01*
G37*
X114016945Y-126708079D02*
X114029054Y-134591577D01*
X100677000Y-134573444D01*
X100677000Y-126690093D01*
X114016945Y-126708079D01*
G36*
X178874276Y-134373000D02*
G01*
X170125724Y-134373000D01*
X170089149Y-130752000D01*
X178910851Y-130752000D01*
X178874276Y-134373000D01*
X178874276Y-134373000D01*
G37*
X178874276Y-134373000D02*
X170125724Y-134373000D01*
X170089149Y-130752000D01*
X178910851Y-130752000D01*
X178874276Y-134373000D01*
M02*
