G04 #@! TF.GenerationSoftware,KiCad,Pcbnew,(5.1.2)-1*
G04 #@! TF.CreationDate,2020-11-28T18:44:11+01:00*
G04 #@! TF.ProjectId,Kicad_Tweezers,4b696361-645f-4547-9765-657a6572732e,rev?*
G04 #@! TF.SameCoordinates,Original*
G04 #@! TF.FileFunction,Legend,Top*
G04 #@! TF.FilePolarity,Positive*
%FSLAX46Y46*%
G04 Gerber Fmt 4.6, Leading zero omitted, Abs format (unit mm)*
G04 Created by KiCad (PCBNEW (5.1.2)-1) date 2020-11-28 18:44:11*
%MOMM*%
%LPD*%
G04 APERTURE LIST*
%ADD10C,0.120000*%
%ADD11C,0.150000*%
G04 APERTURE END LIST*
D10*
X132000000Y-109000000D02*
X132500000Y-108500000D01*
X123000000Y-109000000D02*
X132000000Y-109000000D01*
X122500000Y-108500000D02*
X123000000Y-109000000D01*
X143000000Y-109000000D02*
X143500000Y-108500000D01*
X134000000Y-109000000D02*
X143000000Y-109000000D01*
X133500000Y-108500000D02*
X134000000Y-109000000D01*
D11*
X126464285Y-111535714D02*
X126392857Y-111607142D01*
X126178571Y-111678571D01*
X126035714Y-111678571D01*
X125821428Y-111607142D01*
X125678571Y-111464285D01*
X125607142Y-111321428D01*
X125535714Y-111035714D01*
X125535714Y-110821428D01*
X125607142Y-110535714D01*
X125678571Y-110392857D01*
X125821428Y-110250000D01*
X126035714Y-110178571D01*
X126178571Y-110178571D01*
X126392857Y-110250000D01*
X126464285Y-110321428D01*
X127107142Y-111678571D02*
X127107142Y-110178571D01*
X127107142Y-110892857D02*
X127964285Y-110892857D01*
X127964285Y-111678571D02*
X127964285Y-110178571D01*
X129464285Y-111678571D02*
X128607142Y-111678571D01*
X129035714Y-111678571D02*
X129035714Y-110178571D01*
X128892857Y-110392857D01*
X128750000Y-110535714D01*
X128607142Y-110607142D01*
X137464285Y-111535714D02*
X137392857Y-111607142D01*
X137178571Y-111678571D01*
X137035714Y-111678571D01*
X136821428Y-111607142D01*
X136678571Y-111464285D01*
X136607142Y-111321428D01*
X136535714Y-111035714D01*
X136535714Y-110821428D01*
X136607142Y-110535714D01*
X136678571Y-110392857D01*
X136821428Y-110250000D01*
X137035714Y-110178571D01*
X137178571Y-110178571D01*
X137392857Y-110250000D01*
X137464285Y-110321428D01*
X138107142Y-111678571D02*
X138107142Y-110178571D01*
X138107142Y-110892857D02*
X138964285Y-110892857D01*
X138964285Y-111678571D02*
X138964285Y-110178571D01*
X139607142Y-110321428D02*
X139678571Y-110250000D01*
X139821428Y-110178571D01*
X140178571Y-110178571D01*
X140321428Y-110250000D01*
X140392857Y-110321428D01*
X140464285Y-110464285D01*
X140464285Y-110607142D01*
X140392857Y-110821428D01*
X139535714Y-111678571D01*
X140464285Y-111678571D01*
X138000000Y-100607142D02*
X138214285Y-100678571D01*
X138571428Y-100678571D01*
X138714285Y-100607142D01*
X138785714Y-100535714D01*
X138857142Y-100392857D01*
X138857142Y-100250000D01*
X138785714Y-100107142D01*
X138714285Y-100035714D01*
X138571428Y-99964285D01*
X138285714Y-99892857D01*
X138142857Y-99821428D01*
X138071428Y-99750000D01*
X138000000Y-99607142D01*
X138000000Y-99464285D01*
X138071428Y-99321428D01*
X138142857Y-99250000D01*
X138285714Y-99178571D01*
X138642857Y-99178571D01*
X138857142Y-99250000D01*
X140214285Y-100678571D02*
X139500000Y-100678571D01*
X139500000Y-99178571D01*
X140642857Y-100250000D02*
X141357142Y-100250000D01*
X140500000Y-100678571D02*
X141000000Y-99178571D01*
X141500000Y-100678571D01*
X141785714Y-99178571D02*
X142285714Y-100678571D01*
X142785714Y-99178571D01*
X143285714Y-99892857D02*
X143785714Y-99892857D01*
X144000000Y-100678571D02*
X143285714Y-100678571D01*
X143285714Y-99178571D01*
X144000000Y-99178571D01*
X121142857Y-100678571D02*
X121142857Y-99178571D01*
X121642857Y-100250000D01*
X122142857Y-99178571D01*
X122142857Y-100678571D01*
X122785714Y-100250000D02*
X123500000Y-100250000D01*
X122642857Y-100678571D02*
X123142857Y-99178571D01*
X123642857Y-100678571D01*
X124071428Y-100607142D02*
X124285714Y-100678571D01*
X124642857Y-100678571D01*
X124785714Y-100607142D01*
X124857142Y-100535714D01*
X124928571Y-100392857D01*
X124928571Y-100250000D01*
X124857142Y-100107142D01*
X124785714Y-100035714D01*
X124642857Y-99964285D01*
X124357142Y-99892857D01*
X124214285Y-99821428D01*
X124142857Y-99750000D01*
X124071428Y-99607142D01*
X124071428Y-99464285D01*
X124142857Y-99321428D01*
X124214285Y-99250000D01*
X124357142Y-99178571D01*
X124714285Y-99178571D01*
X124928571Y-99250000D01*
X125357142Y-99178571D02*
X126214285Y-99178571D01*
X125785714Y-100678571D02*
X125785714Y-99178571D01*
X126714285Y-99892857D02*
X127214285Y-99892857D01*
X127428571Y-100678571D02*
X126714285Y-100678571D01*
X126714285Y-99178571D01*
X127428571Y-99178571D01*
X128928571Y-100678571D02*
X128428571Y-99964285D01*
X128071428Y-100678571D02*
X128071428Y-99178571D01*
X128642857Y-99178571D01*
X128785714Y-99250000D01*
X128857142Y-99321428D01*
X128928571Y-99464285D01*
X128928571Y-99678571D01*
X128857142Y-99821428D01*
X128785714Y-99892857D01*
X128642857Y-99964285D01*
X128071428Y-99964285D01*
X133714285Y-119452380D02*
X133809523Y-119547619D01*
X133904761Y-119833333D01*
X133904761Y-120023809D01*
X133809523Y-120309523D01*
X133619047Y-120500000D01*
X133428571Y-120595238D01*
X133047619Y-120690476D01*
X132761904Y-120690476D01*
X132380952Y-120595238D01*
X132190476Y-120500000D01*
X132000000Y-120309523D01*
X131904761Y-120023809D01*
X131904761Y-119833333D01*
X132000000Y-119547619D01*
X132095238Y-119452380D01*
X133333333Y-118690476D02*
X133333333Y-117738095D01*
X133904761Y-118880952D02*
X131904761Y-118214285D01*
X133904761Y-117547619D01*
X132857142Y-116214285D02*
X132952380Y-115928571D01*
X133047619Y-115833333D01*
X133238095Y-115738095D01*
X133523809Y-115738095D01*
X133714285Y-115833333D01*
X133809523Y-115928571D01*
X133904761Y-116119047D01*
X133904761Y-116880952D01*
X131904761Y-116880952D01*
X131904761Y-116214285D01*
X132000000Y-116023809D01*
X132095238Y-115928571D01*
X132285714Y-115833333D01*
X132476190Y-115833333D01*
X132666666Y-115928571D01*
X132761904Y-116023809D01*
X132857142Y-116214285D01*
X132857142Y-116880952D01*
X133904761Y-113928571D02*
X133904761Y-114880952D01*
X131904761Y-114880952D01*
X132857142Y-113261904D02*
X132857142Y-112595238D01*
X133904761Y-112309523D02*
X133904761Y-113261904D01*
X131904761Y-113261904D01*
X131904761Y-112309523D01*
D10*
X130500000Y-110000000D02*
X135500000Y-110000000D01*
X135500000Y-122500000D02*
X135500000Y-110000000D01*
X130500000Y-110000000D02*
X130500000Y-122500000D01*
D11*
X138500000Y-84500000D02*
X138500000Y-87500000D01*
X143500000Y-84500000D02*
X138500000Y-84500000D01*
X143500000Y-87500000D02*
X143500000Y-84500000D01*
X147000000Y-87500000D02*
X141000000Y-87500000D01*
X147000000Y-98500000D02*
X147000000Y-87500000D01*
X135000000Y-98500000D02*
X147000000Y-98500000D01*
X135000000Y-87500000D02*
X135000000Y-98500000D01*
X141000000Y-87500000D02*
X135000000Y-87500000D01*
X122500000Y-84500000D02*
X122500000Y-87500000D01*
X127500000Y-84500000D02*
X122500000Y-84500000D01*
X127500000Y-87500000D02*
X127500000Y-84500000D01*
X131000000Y-87500000D02*
X125000000Y-87500000D01*
X131000000Y-98500000D02*
X131000000Y-87500000D01*
X119000000Y-98500000D02*
X131000000Y-98500000D01*
X119000000Y-87500000D02*
X119000000Y-98500000D01*
X125000000Y-87500000D02*
X119000000Y-87500000D01*
X141238095Y-101052380D02*
X141809523Y-101052380D01*
X141523809Y-102052380D02*
X141523809Y-101052380D01*
X142095238Y-101147619D02*
X142142857Y-101100000D01*
X142238095Y-101052380D01*
X142476190Y-101052380D01*
X142571428Y-101100000D01*
X142619047Y-101147619D01*
X142666666Y-101242857D01*
X142666666Y-101338095D01*
X142619047Y-101480952D01*
X142047619Y-102052380D01*
X142666666Y-102052380D01*
X123238095Y-101052380D02*
X123809523Y-101052380D01*
X123523809Y-102052380D02*
X123523809Y-101052380D01*
X124666666Y-102052380D02*
X124095238Y-102052380D01*
X124380952Y-102052380D02*
X124380952Y-101052380D01*
X124285714Y-101195238D01*
X124190476Y-101290476D01*
X124095238Y-101338095D01*
X134238095Y-102004761D02*
X134380952Y-102052380D01*
X134619047Y-102052380D01*
X134714285Y-102004761D01*
X134761904Y-101957142D01*
X134809523Y-101861904D01*
X134809523Y-101766666D01*
X134761904Y-101671428D01*
X134714285Y-101623809D01*
X134619047Y-101576190D01*
X134428571Y-101528571D01*
X134333333Y-101480952D01*
X134285714Y-101433333D01*
X134238095Y-101338095D01*
X134238095Y-101242857D01*
X134285714Y-101147619D01*
X134333333Y-101100000D01*
X134428571Y-101052380D01*
X134666666Y-101052380D01*
X134809523Y-101100000D01*
X135190476Y-101147619D02*
X135238095Y-101100000D01*
X135333333Y-101052380D01*
X135571428Y-101052380D01*
X135666666Y-101100000D01*
X135714285Y-101147619D01*
X135761904Y-101242857D01*
X135761904Y-101338095D01*
X135714285Y-101480952D01*
X135142857Y-102052380D01*
X135761904Y-102052380D01*
X130238095Y-101904761D02*
X130380952Y-101952380D01*
X130619047Y-101952380D01*
X130714285Y-101904761D01*
X130761904Y-101857142D01*
X130809523Y-101761904D01*
X130809523Y-101666666D01*
X130761904Y-101571428D01*
X130714285Y-101523809D01*
X130619047Y-101476190D01*
X130428571Y-101428571D01*
X130333333Y-101380952D01*
X130285714Y-101333333D01*
X130238095Y-101238095D01*
X130238095Y-101142857D01*
X130285714Y-101047619D01*
X130333333Y-101000000D01*
X130428571Y-100952380D01*
X130666666Y-100952380D01*
X130809523Y-101000000D01*
X131761904Y-101952380D02*
X131190476Y-101952380D01*
X131476190Y-101952380D02*
X131476190Y-100952380D01*
X131380952Y-101095238D01*
X131285714Y-101190476D01*
X131190476Y-101238095D01*
X138333333Y-102052380D02*
X138000000Y-101576190D01*
X137761904Y-102052380D02*
X137761904Y-101052380D01*
X138142857Y-101052380D01*
X138238095Y-101100000D01*
X138285714Y-101147619D01*
X138333333Y-101242857D01*
X138333333Y-101385714D01*
X138285714Y-101480952D01*
X138238095Y-101528571D01*
X138142857Y-101576190D01*
X137761904Y-101576190D01*
X138714285Y-101147619D02*
X138761904Y-101100000D01*
X138857142Y-101052380D01*
X139095238Y-101052380D01*
X139190476Y-101100000D01*
X139238095Y-101147619D01*
X139285714Y-101242857D01*
X139285714Y-101338095D01*
X139238095Y-101480952D01*
X138666666Y-102052380D01*
X139285714Y-102052380D01*
X127333333Y-102052380D02*
X127000000Y-101576190D01*
X126761904Y-102052380D02*
X126761904Y-101052380D01*
X127142857Y-101052380D01*
X127238095Y-101100000D01*
X127285714Y-101147619D01*
X127333333Y-101242857D01*
X127333333Y-101385714D01*
X127285714Y-101480952D01*
X127238095Y-101528571D01*
X127142857Y-101576190D01*
X126761904Y-101576190D01*
X128285714Y-102052380D02*
X127714285Y-102052380D01*
X128000000Y-102052380D02*
X128000000Y-101052380D01*
X127904761Y-101195238D01*
X127809523Y-101290476D01*
X127714285Y-101338095D01*
X133666666Y-97452380D02*
X133666666Y-98166666D01*
X133619047Y-98309523D01*
X133523809Y-98404761D01*
X133380952Y-98452380D01*
X133285714Y-98452380D01*
X134095238Y-97547619D02*
X134142857Y-97500000D01*
X134238095Y-97452380D01*
X134476190Y-97452380D01*
X134571428Y-97500000D01*
X134619047Y-97547619D01*
X134666666Y-97642857D01*
X134666666Y-97738095D01*
X134619047Y-97880952D01*
X134047619Y-98452380D01*
X134666666Y-98452380D01*
X131666666Y-97452380D02*
X131666666Y-98166666D01*
X131619047Y-98309523D01*
X131523809Y-98404761D01*
X131380952Y-98452380D01*
X131285714Y-98452380D01*
X132666666Y-98452380D02*
X132095238Y-98452380D01*
X132380952Y-98452380D02*
X132380952Y-97452380D01*
X132285714Y-97595238D01*
X132190476Y-97690476D01*
X132095238Y-97738095D01*
M02*
