M48
METRIC
T1C1.000
T2C1.500
%
G90
G05
T2
X127.5Y-103.5
X131.0Y-103.5
X142.0Y-103.5
X124.0Y-103.5
X135.0Y-103.5
X138.5Y-103.5
T1
G00X120.0Y-96.375
M15
G01X120.0Y-95.625
M16
G05
G00X122.5Y-96.375
M15
G01X122.5Y-95.625
M16
G05
G00X124.625Y-91.0
M15
G01X125.375Y-91.0
M16
G05
G00X127.5Y-96.375
M15
G01X127.5Y-95.625
M16
G05
G00X130.0Y-96.375
M15
G01X130.0Y-95.625
M16
G05
G00X136.0Y-96.375
M15
G01X136.0Y-95.625
M16
G05
G00X138.5Y-96.375
M15
G01X138.5Y-95.625
M16
G05
G00X140.625Y-91.0
M15
G01X141.375Y-91.0
M16
G05
G00X143.5Y-96.375
M15
G01X143.5Y-95.625
M16
G05
G00X146.0Y-96.375
M15
G01X146.0Y-95.625
M16
G05
T0
M30
