G04 #@! TF.GenerationSoftware,KiCad,Pcbnew,(5.1.2)-1*
G04 #@! TF.CreationDate,2020-11-28T18:44:11+01:00*
G04 #@! TF.ProjectId,Kicad_Tweezers,4b696361-645f-4547-9765-657a6572732e,rev?*
G04 #@! TF.SameCoordinates,Original*
G04 #@! TF.FileFunction,Copper,L2,Bot*
G04 #@! TF.FilePolarity,Positive*
%FSLAX46Y46*%
G04 Gerber Fmt 4.6, Leading zero omitted, Abs format (unit mm)*
G04 Created by KiCad (PCBNEW (5.1.2)-1) date 2020-11-28 18:44:11*
%MOMM*%
%LPD*%
G04 APERTURE LIST*
%ADD10C,2.000000*%
%ADD11O,1.500000X2.250000*%
%ADD12O,2.250000X1.500000*%
%ADD13C,1.000000*%
G04 APERTURE END LIST*
D10*
X142000000Y-103500000D03*
X124000000Y-103500000D03*
X135000000Y-103500000D03*
X131000000Y-103500000D03*
X138500000Y-103500000D03*
X127500000Y-103500000D03*
D11*
X143500000Y-96000000D03*
X146000000Y-96000000D03*
X136000000Y-96000000D03*
X138500000Y-96000000D03*
D12*
X141000000Y-91000000D03*
D11*
X127500000Y-96000000D03*
X130000000Y-96000000D03*
X120000000Y-96000000D03*
X122500000Y-96000000D03*
D12*
X125000000Y-91000000D03*
D13*
X141500000Y-98000000D02*
X144000000Y-98000000D01*
X138500000Y-101000000D02*
X141500000Y-98000000D01*
X127500000Y-103500000D02*
X130000000Y-101000000D01*
X130000000Y-101000000D02*
X138500000Y-101000000D01*
X138500000Y-98500000D02*
X138500000Y-96000000D01*
X137500000Y-99500000D02*
X138500000Y-98500000D01*
X124000000Y-103500000D02*
X128000000Y-99500000D01*
X128000000Y-99500000D02*
X137500000Y-99500000D01*
X146000000Y-98500000D02*
X146000000Y-96000000D01*
X145000000Y-99500000D02*
X146000000Y-98500000D01*
X138500000Y-103500000D02*
X142500000Y-99500000D01*
X142500000Y-99500000D02*
X145000000Y-99500000D01*
M02*
