G04 #@! TF.GenerationSoftware,KiCad,Pcbnew,(5.1.2)-1*
G04 #@! TF.CreationDate,2020-11-28T18:44:11+01:00*
G04 #@! TF.ProjectId,Kicad_Tweezers,4b696361-645f-4547-9765-657a6572732e,rev?*
G04 #@! TF.SameCoordinates,Original*
G04 #@! TF.FileFunction,Legend,Bot*
G04 #@! TF.FilePolarity,Positive*
%FSLAX46Y46*%
G04 Gerber Fmt 4.6, Leading zero omitted, Abs format (unit mm)*
G04 Created by KiCad (PCBNEW (5.1.2)-1) date 2020-11-28 18:44:11*
%MOMM*%
%LPD*%
G04 APERTURE LIST*
%ADD10C,0.150000*%
G04 APERTURE END LIST*
D10*
X143571428Y-99678571D02*
X142714285Y-99678571D01*
X143142857Y-101178571D02*
X143142857Y-99678571D01*
X142357142Y-99678571D02*
X142000000Y-101178571D01*
X141714285Y-100107142D01*
X141428571Y-101178571D01*
X141071428Y-99678571D01*
X140500000Y-100392857D02*
X140000000Y-100392857D01*
X139785714Y-101178571D02*
X140500000Y-101178571D01*
X140500000Y-99678571D01*
X139785714Y-99678571D01*
X139142857Y-100392857D02*
X138642857Y-100392857D01*
X138428571Y-101178571D02*
X139142857Y-101178571D01*
X139142857Y-99678571D01*
X138428571Y-99678571D01*
X137928571Y-99678571D02*
X136928571Y-99678571D01*
X137928571Y-101178571D01*
X136928571Y-101178571D01*
X136357142Y-100392857D02*
X135857142Y-100392857D01*
X135642857Y-101178571D02*
X136357142Y-101178571D01*
X136357142Y-99678571D01*
X135642857Y-99678571D01*
X134142857Y-101178571D02*
X134642857Y-100464285D01*
X135000000Y-101178571D02*
X135000000Y-99678571D01*
X134428571Y-99678571D01*
X134285714Y-99750000D01*
X134214285Y-99821428D01*
X134142857Y-99964285D01*
X134142857Y-100178571D01*
X134214285Y-100321428D01*
X134285714Y-100392857D01*
X134428571Y-100464285D01*
X135000000Y-100464285D01*
X131857142Y-100392857D02*
X131642857Y-100464285D01*
X131571428Y-100535714D01*
X131500000Y-100678571D01*
X131500000Y-100892857D01*
X131571428Y-101035714D01*
X131642857Y-101107142D01*
X131785714Y-101178571D01*
X132357142Y-101178571D01*
X132357142Y-99678571D01*
X131857142Y-99678571D01*
X131714285Y-99750000D01*
X131642857Y-99821428D01*
X131571428Y-99964285D01*
X131571428Y-100107142D01*
X131642857Y-100250000D01*
X131714285Y-100321428D01*
X131857142Y-100392857D01*
X132357142Y-100392857D01*
X130000000Y-101178571D02*
X130500000Y-100464285D01*
X130857142Y-101178571D02*
X130857142Y-99678571D01*
X130285714Y-99678571D01*
X130142857Y-99750000D01*
X130071428Y-99821428D01*
X130000000Y-99964285D01*
X130000000Y-100178571D01*
X130071428Y-100321428D01*
X130142857Y-100392857D01*
X130285714Y-100464285D01*
X130857142Y-100464285D01*
X129357142Y-100392857D02*
X128857142Y-100392857D01*
X128642857Y-101178571D02*
X129357142Y-101178571D01*
X129357142Y-99678571D01*
X128642857Y-99678571D01*
X128071428Y-100750000D02*
X127357142Y-100750000D01*
X128214285Y-101178571D02*
X127714285Y-99678571D01*
X127214285Y-101178571D01*
X126714285Y-101178571D02*
X126714285Y-99678571D01*
X125857142Y-101178571D02*
X126500000Y-100321428D01*
X125857142Y-99678571D02*
X126714285Y-100535714D01*
X124928571Y-99678571D02*
X124642857Y-99678571D01*
X124500000Y-99750000D01*
X124357142Y-99892857D01*
X124285714Y-100178571D01*
X124285714Y-100678571D01*
X124357142Y-100964285D01*
X124500000Y-101107142D01*
X124642857Y-101178571D01*
X124928571Y-101178571D01*
X125071428Y-101107142D01*
X125214285Y-100964285D01*
X125285714Y-100678571D01*
X125285714Y-100178571D01*
X125214285Y-99892857D01*
X125071428Y-99750000D01*
X124928571Y-99678571D01*
X123642857Y-99678571D02*
X123642857Y-100892857D01*
X123571428Y-101035714D01*
X123500000Y-101107142D01*
X123357142Y-101178571D01*
X123071428Y-101178571D01*
X122928571Y-101107142D01*
X122857142Y-101035714D01*
X122785714Y-100892857D01*
X122785714Y-99678571D01*
X122285714Y-99678571D02*
X121428571Y-99678571D01*
X121857142Y-101178571D02*
X121857142Y-99678571D01*
X135824802Y-108009305D02*
X135754598Y-108091506D01*
X135754598Y-108091506D02*
X135678392Y-108172168D01*
X135678392Y-108172168D02*
X135603625Y-108249397D01*
X135603625Y-108249397D02*
X135525376Y-108329046D01*
X135525376Y-108329046D02*
X135449358Y-108405543D01*
X135449358Y-108405543D02*
X135373751Y-108480850D01*
X135373751Y-108480850D02*
X135297366Y-108556113D01*
X135297366Y-108556113D02*
X135218104Y-108633163D01*
X135218104Y-108633163D02*
X135138970Y-108708499D01*
X135138970Y-108708499D02*
X135059934Y-108779912D01*
X135059934Y-108779912D02*
X135036762Y-108797340D01*
X134044956Y-107945940D02*
X134041045Y-107798729D01*
X134041045Y-107798729D02*
X134039996Y-107649669D01*
X134039996Y-107649669D02*
X134039694Y-107478560D01*
X134039694Y-107478560D02*
X134039956Y-107326416D01*
X134039956Y-107326416D02*
X134040611Y-107178648D01*
X134950787Y-108322706D02*
X135195528Y-108078233D01*
X132691791Y-111494664D02*
X132688316Y-109506981D01*
X135540865Y-106348735D02*
X135663499Y-106320284D01*
X135663499Y-106320284D02*
X135771952Y-106362660D01*
X135771952Y-106362660D02*
X135820391Y-106419348D01*
X132725239Y-113530547D02*
X132695266Y-113482347D01*
X131962452Y-108322971D02*
X131953795Y-108180881D01*
X131953795Y-108180881D02*
X131950589Y-108031718D01*
X131950589Y-108031718D02*
X131948773Y-107882874D01*
X131948773Y-107882874D02*
X131947772Y-107731718D01*
X131947772Y-107731718D02*
X131947426Y-107581518D01*
X131947426Y-107581518D02*
X131947670Y-107431383D01*
X131947670Y-107431383D02*
X131948541Y-107281706D01*
X131948541Y-107281706D02*
X131950222Y-107130277D01*
X131950222Y-107130277D02*
X131953219Y-106977662D01*
X131953219Y-106977662D02*
X131959737Y-106833640D01*
X131959737Y-106833640D02*
X131962452Y-106814846D01*
X130403588Y-109480992D02*
X130322965Y-109411382D01*
X130322965Y-109411382D02*
X130292441Y-109290384D01*
X130292441Y-109290384D02*
X130331873Y-109179798D01*
X130331873Y-109179798D02*
X130399803Y-109121362D01*
X135850138Y-107215555D02*
X135850145Y-107373595D01*
X135850145Y-107373595D02*
X135850001Y-107528507D01*
X135850001Y-107528507D02*
X135849424Y-107681393D01*
X135849424Y-107681393D02*
X135847502Y-107831206D01*
X135847502Y-107831206D02*
X135837778Y-107972445D01*
X135837778Y-107972445D02*
X135824802Y-108009305D01*
X135440269Y-107152117D02*
X135440262Y-106990033D01*
X135440262Y-106990033D02*
X135440486Y-106840109D01*
X135440486Y-106840109D02*
X135441724Y-106689009D01*
X135441724Y-106689009D02*
X135446553Y-106542613D01*
X135446553Y-106542613D02*
X135468200Y-106414013D01*
X135468200Y-106414013D02*
X135540865Y-106348735D01*
X133098759Y-109507407D02*
X133098759Y-111494874D01*
X132800000Y-113600000D02*
X132725239Y-113530547D01*
X133098759Y-111494874D02*
X133098754Y-111694525D01*
X133098754Y-111694525D02*
X133098744Y-111860352D01*
X133098744Y-111860352D02*
X133098721Y-112015618D01*
X133098721Y-112015618D02*
X133098679Y-112169396D01*
X133098679Y-112169396D02*
X133098603Y-112322161D01*
X133098603Y-112322161D02*
X133098488Y-112473708D01*
X133098488Y-112473708D02*
X133098285Y-112636246D01*
X133098285Y-112636246D02*
X133097978Y-112786299D01*
X133097978Y-112786299D02*
X133097486Y-112936979D01*
X133097486Y-112936979D02*
X133096640Y-113092023D01*
X133096640Y-113092023D02*
X133095135Y-113242511D01*
X133095135Y-113242511D02*
X133091843Y-113389783D01*
X133091843Y-113389783D02*
X133074272Y-113522336D01*
X133074272Y-113522336D02*
X133072421Y-113525455D01*
X135440269Y-107833759D02*
X135440269Y-107152117D01*
X132177352Y-106558679D02*
X132254228Y-106482467D01*
X132254228Y-106482467D02*
X132332429Y-106408805D01*
X132332429Y-106408805D02*
X132414355Y-106340389D01*
X132414355Y-106340389D02*
X132420336Y-106337091D01*
X135400580Y-109124886D02*
X135477486Y-109198260D01*
X135477486Y-109198260D02*
X135502054Y-109324260D01*
X135502054Y-109324260D02*
X135455062Y-109428851D01*
X135455062Y-109428851D02*
X135408773Y-109473082D01*
X134235502Y-109503883D02*
X133098759Y-109507407D01*
X132695266Y-113482347D02*
X132691791Y-111494664D01*
X135195528Y-108078233D02*
X135440269Y-107833759D01*
X135820391Y-106419348D02*
X135849938Y-106470888D01*
X132418521Y-108798840D02*
X132334914Y-108730053D01*
X132334914Y-108730053D02*
X132256016Y-108655855D01*
X132256016Y-108655855D02*
X132179633Y-108580491D01*
X132179633Y-108580491D02*
X132176421Y-108577252D01*
X133072421Y-113525455D02*
X132994073Y-113597827D01*
X132994073Y-113597827D02*
X132865557Y-113619485D01*
X132865557Y-113619485D02*
X132800053Y-113599993D01*
X134448081Y-107820524D02*
X134699434Y-108071614D01*
X131573927Y-109506681D02*
X131415820Y-109506622D01*
X131415820Y-109506622D02*
X131248097Y-109506517D01*
X131248097Y-109506517D02*
X131098281Y-109506329D01*
X131098281Y-109506329D02*
X130948451Y-109505972D01*
X130948451Y-109505972D02*
X130797753Y-109505244D01*
X130797753Y-109505244D02*
X130647603Y-109503630D01*
X130647603Y-109503630D02*
X130500782Y-109498931D01*
X130500782Y-109498931D02*
X130403588Y-109480992D01*
X136445738Y-114243023D02*
X136445738Y-105670523D01*
X134040611Y-107178648D02*
X134041569Y-107015928D01*
X134041569Y-107015928D02*
X134042638Y-106863468D01*
X134042638Y-106863468D02*
X134044206Y-106713162D01*
X134044206Y-106713162D02*
X134047656Y-106564528D01*
X134047656Y-106564528D02*
X134067028Y-106433210D01*
X134067028Y-106433210D02*
X134071816Y-106424631D01*
X132688316Y-109506981D02*
X131573927Y-109506681D01*
X132898314Y-109096868D02*
X135350730Y-109096868D01*
X134439248Y-108393832D02*
X134362714Y-108316757D01*
X134362714Y-108316757D02*
X134287539Y-108240806D01*
X134287539Y-108240806D02*
X134211936Y-108163751D01*
X134211936Y-108163751D02*
X134138188Y-108086623D01*
X134138188Y-108086623D02*
X134068795Y-108004951D01*
X134068795Y-108004951D02*
X134044956Y-107945940D01*
X134071816Y-106424631D02*
X134145947Y-106348429D01*
X134145947Y-106348429D02*
X134266781Y-106318848D01*
X134266781Y-106318848D02*
X134375186Y-106361184D01*
X134375186Y-106361184D02*
X134421745Y-106414542D01*
X129235843Y-114243023D02*
X136445738Y-114243023D01*
X134448081Y-107139091D02*
X134448081Y-107820524D01*
X130399803Y-109121362D02*
X130535686Y-109104761D01*
X130535686Y-109104761D02*
X130686995Y-109101373D01*
X130686995Y-109101373D02*
X130840112Y-109099740D01*
X130840112Y-109099740D02*
X130989537Y-109098800D01*
X130989537Y-109098800D02*
X131146367Y-109098167D01*
X131146367Y-109098167D02*
X131315791Y-109097718D01*
X131315791Y-109097718D02*
X131474480Y-109097435D01*
X131474480Y-109097435D02*
X131625291Y-109097249D01*
X131625291Y-109097249D02*
X131785336Y-109097111D01*
X131785336Y-109097111D02*
X131939083Y-109097019D01*
X131939083Y-109097019D02*
X132093397Y-109096958D01*
X132093397Y-109096958D02*
X132269282Y-109096912D01*
X132269282Y-109096912D02*
X132445111Y-109096885D01*
X132445111Y-109096885D02*
X132606259Y-109096873D01*
X132606259Y-109096873D02*
X132898314Y-109096868D01*
X130327702Y-108798550D02*
X130327702Y-108798550D01*
X136961872Y-105184078D02*
X128719705Y-105184078D01*
X135036762Y-108797340D02*
X134901000Y-108811787D01*
X134901000Y-108811787D02*
X134867666Y-108800630D01*
X135408773Y-109473082D02*
X135280506Y-109495659D01*
X135280506Y-109495659D02*
X135132885Y-109499177D01*
X135132885Y-109499177D02*
X134984288Y-109500740D01*
X134984288Y-109500740D02*
X134833893Y-109501691D01*
X134833893Y-109501691D02*
X134676112Y-109502401D01*
X134676112Y-109502401D02*
X134501603Y-109503032D01*
X134501603Y-109503032D02*
X134312829Y-109503642D01*
X134312829Y-109503642D02*
X134235502Y-109503883D01*
X131550680Y-108795893D02*
X131420090Y-108815351D01*
X131420090Y-108815351D02*
X131271285Y-108818152D01*
X131271285Y-108818152D02*
X131121565Y-108818874D01*
X131121565Y-108818874D02*
X130967347Y-108819038D01*
X130967347Y-108819038D02*
X130937786Y-108819044D01*
X131259902Y-106728857D02*
X130879825Y-106728857D01*
X128719705Y-105184078D02*
X128719705Y-114729467D01*
X128719705Y-114729467D02*
X136961872Y-114729467D01*
X136961872Y-114729467D02*
X136961872Y-105184078D01*
X131636217Y-106424631D02*
X131658614Y-106553003D01*
X131658614Y-106553003D02*
X131662426Y-106700649D01*
X131662426Y-106700649D02*
X131664185Y-106857074D01*
X131664185Y-106857074D02*
X131665220Y-107008360D01*
X131665220Y-107008360D02*
X131665989Y-107158041D01*
X131665989Y-107158041D02*
X131666644Y-107308643D01*
X131666644Y-107308643D02*
X131667352Y-107485593D01*
X131667352Y-107485593D02*
X131667446Y-107509378D01*
X134867733Y-108800629D02*
X134785367Y-108730758D01*
X134785367Y-108730758D02*
X134706784Y-108656862D01*
X134706784Y-108656862D02*
X134629229Y-108582031D01*
X134629229Y-108582031D02*
X134552237Y-108506503D01*
X134552237Y-108506503D02*
X134475162Y-108429871D01*
X134475162Y-108429871D02*
X134439248Y-108393832D01*
X132970033Y-106728857D02*
X132589957Y-106728857D01*
X132176421Y-108577252D02*
X132101025Y-108500271D01*
X132101025Y-108500271D02*
X132027863Y-108421578D01*
X132027863Y-108421578D02*
X131965932Y-108333429D01*
X131965932Y-108333429D02*
X131962452Y-108322971D01*
X131962452Y-106814846D02*
X132021463Y-106723441D01*
X132021463Y-106723441D02*
X132093458Y-106644883D01*
X132093458Y-106644883D02*
X132168188Y-106567977D01*
X132168188Y-106567977D02*
X132177352Y-106558679D01*
X135350730Y-109096868D02*
X135400580Y-109124886D01*
X130937786Y-108819044D02*
X130785471Y-108818908D01*
X130785471Y-108818908D02*
X130635108Y-108818251D01*
X130635108Y-108818251D02*
X130486197Y-108816020D01*
X130486197Y-108816020D02*
X130346963Y-108805035D01*
X130346963Y-108805035D02*
X130327702Y-108798550D01*
X132800053Y-113599993D02*
X132800000Y-113600000D01*
X134699434Y-108071614D02*
X134950787Y-108322706D01*
X136445738Y-105670523D02*
X129235843Y-105670523D01*
X135849938Y-106470888D02*
X135850138Y-107215555D01*
X129871486Y-106799171D02*
X129938951Y-106715568D01*
X129938951Y-106715568D02*
X130012335Y-106636526D01*
X130012335Y-106636526D02*
X130086817Y-106559381D01*
X130086817Y-106559381D02*
X130162039Y-106483823D01*
X130162039Y-106483823D02*
X130239271Y-106409173D01*
X130239271Y-106409173D02*
X130319945Y-106339649D01*
X130319945Y-106339649D02*
X130323280Y-106337694D01*
X134421745Y-106414542D02*
X134444271Y-106542888D01*
X134444271Y-106542888D02*
X134447071Y-106690839D01*
X134447071Y-106690839D02*
X134447821Y-106840448D01*
X134447821Y-106840448D02*
X134448040Y-106999720D01*
X134448040Y-106999720D02*
X134448081Y-107139091D01*
X130323280Y-106337694D02*
X130459962Y-106322468D01*
X130459962Y-106322468D02*
X130608423Y-106319820D01*
X130608423Y-106319820D02*
X130759327Y-106318972D01*
X130759327Y-106318972D02*
X130912163Y-106318755D01*
X130912163Y-106318755D02*
X130939787Y-106318753D01*
X131564807Y-106348563D02*
X131636217Y-106424631D01*
X129235843Y-105670523D02*
X129235843Y-114243023D01*
X134867666Y-108800630D02*
X134867733Y-108800629D01*
X130499748Y-106728857D02*
X130383731Y-106844335D01*
X133036843Y-106318753D02*
X133189026Y-106318779D01*
X133189026Y-106318779D02*
X133339158Y-106319068D01*
X133339158Y-106319068D02*
X133487676Y-106320614D01*
X133487676Y-106320614D02*
X133625900Y-106333049D01*
X133625900Y-106333049D02*
X133654516Y-106348518D01*
X133350110Y-107568909D02*
X133350110Y-106728857D01*
X133725925Y-106415627D02*
X133749201Y-106544748D01*
X133749201Y-106544748D02*
X133752762Y-106693370D01*
X133752762Y-106693370D02*
X133754350Y-106842286D01*
X133754350Y-106842286D02*
X133755336Y-106991902D01*
X133755336Y-106991902D02*
X133756071Y-107141998D01*
X133756071Y-107141998D02*
X133756730Y-107301346D01*
X133756730Y-107301346D02*
X133757466Y-107495567D01*
X133757466Y-107495567D02*
X133757559Y-107520263D01*
X130079745Y-108570347D02*
X130003955Y-108492587D01*
X130003955Y-108492587D02*
X129930703Y-108413685D01*
X129930703Y-108413685D02*
X129868411Y-108325764D01*
X129868411Y-108325764D02*
X129866315Y-108318010D01*
X132357922Y-107568909D02*
X132357922Y-108178002D01*
X132589957Y-108408961D02*
X132970033Y-108408961D01*
X133753454Y-108643715D02*
X133705556Y-108746028D01*
X133705556Y-108746028D02*
X133635196Y-108800457D01*
X130327702Y-108798550D02*
X130244302Y-108729721D01*
X130244302Y-108729721D02*
X130166386Y-108656230D01*
X130166386Y-108656230D02*
X130089634Y-108580353D01*
X130089634Y-108580353D02*
X130079745Y-108570347D01*
X132970033Y-108408961D02*
X133350110Y-108408961D01*
X131259902Y-108408961D02*
X131259902Y-107568909D01*
X132418524Y-108798840D02*
X132418521Y-108798840D01*
X133350110Y-108408961D02*
X133350110Y-107568909D01*
X133635196Y-108800457D02*
X133497496Y-108814094D01*
X133497496Y-108814094D02*
X133350091Y-108817017D01*
X133350091Y-108817017D02*
X133199687Y-108818127D01*
X133199687Y-108818127D02*
X133050036Y-108818519D01*
X133050036Y-108818519D02*
X133027997Y-108818546D01*
X130879825Y-106728857D02*
X130499748Y-106728857D01*
X131663271Y-108616652D02*
X131624365Y-108729080D01*
X131624365Y-108729080D02*
X131550680Y-108795893D01*
X132473940Y-108293481D02*
X132589957Y-108408961D01*
X132357922Y-108178002D02*
X132473940Y-108293481D01*
X133654516Y-106348518D02*
X133725925Y-106415627D01*
X130383731Y-108293481D02*
X130499748Y-108408961D01*
X130267714Y-107568909D02*
X130267714Y-108178002D01*
X133757559Y-107520263D02*
X133758098Y-107696190D01*
X133758098Y-107696190D02*
X133758392Y-107858284D01*
X133758392Y-107858284D02*
X133758472Y-108017138D01*
X133758472Y-108017138D02*
X133758309Y-108174319D01*
X133758309Y-108174319D02*
X133757853Y-108325600D01*
X133757853Y-108325600D02*
X133756926Y-108475196D01*
X133756926Y-108475196D02*
X133754610Y-108623511D01*
X133754610Y-108623511D02*
X133753454Y-108643715D01*
X129866315Y-108318010D02*
X129860236Y-108172006D01*
X129860236Y-108172006D02*
X129858347Y-108023352D01*
X129858347Y-108023352D02*
X129857441Y-107866619D01*
X129857441Y-107866619D02*
X129857203Y-107702742D01*
X129857203Y-107702742D02*
X129857510Y-107543106D01*
X129857510Y-107543106D02*
X129858274Y-107388301D01*
X129858274Y-107388301D02*
X129859522Y-107236034D01*
X129859522Y-107236034D02*
X129861378Y-107086104D01*
X129861378Y-107086104D02*
X129864333Y-106934950D01*
X129864333Y-106934950D02*
X129871486Y-106799171D01*
X133027997Y-108818546D02*
X132877592Y-108818546D01*
X132877592Y-108818546D02*
X132726937Y-108818023D01*
X132726937Y-108818023D02*
X132578815Y-108815960D01*
X132578815Y-108815960D02*
X132439041Y-108805511D01*
X132439041Y-108805511D02*
X132418524Y-108798840D01*
X130499748Y-108408961D02*
X130879825Y-108408961D01*
X130267714Y-108178002D02*
X130383731Y-108293481D01*
X131259902Y-107568909D02*
X131259902Y-106728857D01*
X130383731Y-106844335D02*
X130267714Y-106959815D01*
X132357922Y-106959815D02*
X132357922Y-107568909D01*
X130879825Y-108408961D02*
X131259902Y-108408961D01*
X132473940Y-106844335D02*
X132357922Y-106959815D01*
X132589957Y-106728857D02*
X132473940Y-106844335D01*
X131667446Y-107509378D02*
X131667946Y-107661279D01*
X131667946Y-107661279D02*
X131668264Y-107814197D01*
X131668264Y-107814197D02*
X131668381Y-107966109D01*
X131668381Y-107966109D02*
X131668268Y-108117568D01*
X131668268Y-108117568D02*
X131667862Y-108270042D01*
X131667862Y-108270042D02*
X131667016Y-108420095D01*
X131667016Y-108420095D02*
X131665124Y-108569657D01*
X131665124Y-108569657D02*
X131663271Y-108616652D01*
X130267714Y-106959815D02*
X130267714Y-107568909D01*
X130939787Y-106318753D02*
X131093878Y-106318779D01*
X131093878Y-106318779D02*
X131244560Y-106319065D01*
X131244560Y-106319065D02*
X131393672Y-106320568D01*
X131393672Y-106320568D02*
X131532419Y-106331979D01*
X131532419Y-106331979D02*
X131564807Y-106348563D01*
X132420336Y-106337091D02*
X132557286Y-106322772D01*
X132557286Y-106322772D02*
X132706224Y-106319943D01*
X132706224Y-106319943D02*
X132857807Y-106319001D01*
X132857807Y-106319001D02*
X133010270Y-106318755D01*
X133010270Y-106318755D02*
X133036843Y-106318753D01*
X133350110Y-106728857D02*
X132970033Y-106728857D01*
M02*
