G04 #@! TF.GenerationSoftware,KiCad,Pcbnew,(5.1.2)-1*
G04 #@! TF.CreationDate,2020-11-28T18:44:11+01:00*
G04 #@! TF.ProjectId,Kicad_Tweezers,4b696361-645f-4547-9765-657a6572732e,rev?*
G04 #@! TF.SameCoordinates,Original*
G04 #@! TF.FileFunction,Soldermask,Bot*
G04 #@! TF.FilePolarity,Negative*
%FSLAX46Y46*%
G04 Gerber Fmt 4.6, Leading zero omitted, Abs format (unit mm)*
G04 Created by KiCad (PCBNEW (5.1.2)-1) date 2020-11-28 18:44:11*
%MOMM*%
%LPD*%
G04 APERTURE LIST*
%ADD10C,1.000000*%
%ADD11C,0.100000*%
G04 APERTURE END LIST*
D10*
X143000000Y-98000000D02*
X144000000Y-98000000D01*
D11*
G36*
X127806564Y-102489389D02*
G01*
X127997833Y-102568615D01*
X127997835Y-102568616D01*
X128169973Y-102683635D01*
X128316365Y-102830027D01*
X128431385Y-103002167D01*
X128510611Y-103193436D01*
X128551000Y-103396484D01*
X128551000Y-103603516D01*
X128510611Y-103806564D01*
X128431385Y-103997833D01*
X128431384Y-103997835D01*
X128316365Y-104169973D01*
X128169973Y-104316365D01*
X127997835Y-104431384D01*
X127997834Y-104431385D01*
X127997833Y-104431385D01*
X127806564Y-104510611D01*
X127603516Y-104551000D01*
X127396484Y-104551000D01*
X127193436Y-104510611D01*
X127002167Y-104431385D01*
X127002166Y-104431385D01*
X127002165Y-104431384D01*
X126830027Y-104316365D01*
X126683635Y-104169973D01*
X126568616Y-103997835D01*
X126568615Y-103997833D01*
X126489389Y-103806564D01*
X126449000Y-103603516D01*
X126449000Y-103396484D01*
X126489389Y-103193436D01*
X126568615Y-103002167D01*
X126683635Y-102830027D01*
X126830027Y-102683635D01*
X127002165Y-102568616D01*
X127002167Y-102568615D01*
X127193436Y-102489389D01*
X127396484Y-102449000D01*
X127603516Y-102449000D01*
X127806564Y-102489389D01*
X127806564Y-102489389D01*
G37*
G36*
X131306564Y-102489389D02*
G01*
X131497833Y-102568615D01*
X131497835Y-102568616D01*
X131669973Y-102683635D01*
X131816365Y-102830027D01*
X131931385Y-103002167D01*
X132010611Y-103193436D01*
X132051000Y-103396484D01*
X132051000Y-103603516D01*
X132010611Y-103806564D01*
X131931385Y-103997833D01*
X131931384Y-103997835D01*
X131816365Y-104169973D01*
X131669973Y-104316365D01*
X131497835Y-104431384D01*
X131497834Y-104431385D01*
X131497833Y-104431385D01*
X131306564Y-104510611D01*
X131103516Y-104551000D01*
X130896484Y-104551000D01*
X130693436Y-104510611D01*
X130502167Y-104431385D01*
X130502166Y-104431385D01*
X130502165Y-104431384D01*
X130330027Y-104316365D01*
X130183635Y-104169973D01*
X130068616Y-103997835D01*
X130068615Y-103997833D01*
X129989389Y-103806564D01*
X129949000Y-103603516D01*
X129949000Y-103396484D01*
X129989389Y-103193436D01*
X130068615Y-103002167D01*
X130183635Y-102830027D01*
X130330027Y-102683635D01*
X130502165Y-102568616D01*
X130502167Y-102568615D01*
X130693436Y-102489389D01*
X130896484Y-102449000D01*
X131103516Y-102449000D01*
X131306564Y-102489389D01*
X131306564Y-102489389D01*
G37*
G36*
X135306564Y-102489389D02*
G01*
X135497833Y-102568615D01*
X135497835Y-102568616D01*
X135669973Y-102683635D01*
X135816365Y-102830027D01*
X135931385Y-103002167D01*
X136010611Y-103193436D01*
X136051000Y-103396484D01*
X136051000Y-103603516D01*
X136010611Y-103806564D01*
X135931385Y-103997833D01*
X135931384Y-103997835D01*
X135816365Y-104169973D01*
X135669973Y-104316365D01*
X135497835Y-104431384D01*
X135497834Y-104431385D01*
X135497833Y-104431385D01*
X135306564Y-104510611D01*
X135103516Y-104551000D01*
X134896484Y-104551000D01*
X134693436Y-104510611D01*
X134502167Y-104431385D01*
X134502166Y-104431385D01*
X134502165Y-104431384D01*
X134330027Y-104316365D01*
X134183635Y-104169973D01*
X134068616Y-103997835D01*
X134068615Y-103997833D01*
X133989389Y-103806564D01*
X133949000Y-103603516D01*
X133949000Y-103396484D01*
X133989389Y-103193436D01*
X134068615Y-103002167D01*
X134183635Y-102830027D01*
X134330027Y-102683635D01*
X134502165Y-102568616D01*
X134502167Y-102568615D01*
X134693436Y-102489389D01*
X134896484Y-102449000D01*
X135103516Y-102449000D01*
X135306564Y-102489389D01*
X135306564Y-102489389D01*
G37*
G36*
X124306564Y-102489389D02*
G01*
X124497833Y-102568615D01*
X124497835Y-102568616D01*
X124669973Y-102683635D01*
X124816365Y-102830027D01*
X124931385Y-103002167D01*
X125010611Y-103193436D01*
X125051000Y-103396484D01*
X125051000Y-103603516D01*
X125010611Y-103806564D01*
X124931385Y-103997833D01*
X124931384Y-103997835D01*
X124816365Y-104169973D01*
X124669973Y-104316365D01*
X124497835Y-104431384D01*
X124497834Y-104431385D01*
X124497833Y-104431385D01*
X124306564Y-104510611D01*
X124103516Y-104551000D01*
X123896484Y-104551000D01*
X123693436Y-104510611D01*
X123502167Y-104431385D01*
X123502166Y-104431385D01*
X123502165Y-104431384D01*
X123330027Y-104316365D01*
X123183635Y-104169973D01*
X123068616Y-103997835D01*
X123068615Y-103997833D01*
X122989389Y-103806564D01*
X122949000Y-103603516D01*
X122949000Y-103396484D01*
X122989389Y-103193436D01*
X123068615Y-103002167D01*
X123183635Y-102830027D01*
X123330027Y-102683635D01*
X123502165Y-102568616D01*
X123502167Y-102568615D01*
X123693436Y-102489389D01*
X123896484Y-102449000D01*
X124103516Y-102449000D01*
X124306564Y-102489389D01*
X124306564Y-102489389D01*
G37*
G36*
X142306564Y-102489389D02*
G01*
X142497833Y-102568615D01*
X142497835Y-102568616D01*
X142669973Y-102683635D01*
X142816365Y-102830027D01*
X142931385Y-103002167D01*
X143010611Y-103193436D01*
X143051000Y-103396484D01*
X143051000Y-103603516D01*
X143010611Y-103806564D01*
X142931385Y-103997833D01*
X142931384Y-103997835D01*
X142816365Y-104169973D01*
X142669973Y-104316365D01*
X142497835Y-104431384D01*
X142497834Y-104431385D01*
X142497833Y-104431385D01*
X142306564Y-104510611D01*
X142103516Y-104551000D01*
X141896484Y-104551000D01*
X141693436Y-104510611D01*
X141502167Y-104431385D01*
X141502166Y-104431385D01*
X141502165Y-104431384D01*
X141330027Y-104316365D01*
X141183635Y-104169973D01*
X141068616Y-103997835D01*
X141068615Y-103997833D01*
X140989389Y-103806564D01*
X140949000Y-103603516D01*
X140949000Y-103396484D01*
X140989389Y-103193436D01*
X141068615Y-103002167D01*
X141183635Y-102830027D01*
X141330027Y-102683635D01*
X141502165Y-102568616D01*
X141502167Y-102568615D01*
X141693436Y-102489389D01*
X141896484Y-102449000D01*
X142103516Y-102449000D01*
X142306564Y-102489389D01*
X142306564Y-102489389D01*
G37*
G36*
X138806564Y-102489389D02*
G01*
X138997833Y-102568615D01*
X138997835Y-102568616D01*
X139169973Y-102683635D01*
X139316365Y-102830027D01*
X139431385Y-103002167D01*
X139510611Y-103193436D01*
X139551000Y-103396484D01*
X139551000Y-103603516D01*
X139510611Y-103806564D01*
X139431385Y-103997833D01*
X139431384Y-103997835D01*
X139316365Y-104169973D01*
X139169973Y-104316365D01*
X138997835Y-104431384D01*
X138997834Y-104431385D01*
X138997833Y-104431385D01*
X138806564Y-104510611D01*
X138603516Y-104551000D01*
X138396484Y-104551000D01*
X138193436Y-104510611D01*
X138002167Y-104431385D01*
X138002166Y-104431385D01*
X138002165Y-104431384D01*
X137830027Y-104316365D01*
X137683635Y-104169973D01*
X137568616Y-103997835D01*
X137568615Y-103997833D01*
X137489389Y-103806564D01*
X137449000Y-103603516D01*
X137449000Y-103396484D01*
X137489389Y-103193436D01*
X137568615Y-103002167D01*
X137683635Y-102830027D01*
X137830027Y-102683635D01*
X138002165Y-102568616D01*
X138002167Y-102568615D01*
X138193436Y-102489389D01*
X138396484Y-102449000D01*
X138603516Y-102449000D01*
X138806564Y-102489389D01*
X138806564Y-102489389D01*
G37*
G36*
X143657022Y-94835590D02*
G01*
X143757681Y-94866125D01*
X143808012Y-94881392D01*
X143947164Y-94955771D01*
X144069133Y-95055867D01*
X144145565Y-95149000D01*
X144169229Y-95177835D01*
X144243608Y-95316987D01*
X144250281Y-95338985D01*
X144289410Y-95467977D01*
X144301000Y-95585655D01*
X144301000Y-96414345D01*
X144289410Y-96532023D01*
X144258875Y-96632682D01*
X144243608Y-96683013D01*
X144169229Y-96822165D01*
X144069133Y-96944133D01*
X143947165Y-97044229D01*
X143808013Y-97118608D01*
X143757682Y-97133875D01*
X143657023Y-97164410D01*
X143500000Y-97179875D01*
X143342978Y-97164410D01*
X143242319Y-97133875D01*
X143191988Y-97118608D01*
X143052836Y-97044229D01*
X142930868Y-96944133D01*
X142830772Y-96822165D01*
X142756393Y-96683013D01*
X142741125Y-96632682D01*
X142710590Y-96532023D01*
X142699000Y-96414345D01*
X142699000Y-95585656D01*
X142710590Y-95467978D01*
X142741125Y-95367319D01*
X142756392Y-95316988D01*
X142830771Y-95177836D01*
X142854436Y-95149000D01*
X142930867Y-95055867D01*
X143052835Y-94955771D01*
X143191987Y-94881392D01*
X143242318Y-94866125D01*
X143342977Y-94835590D01*
X143500000Y-94820125D01*
X143657022Y-94835590D01*
X143657022Y-94835590D01*
G37*
G36*
X146157022Y-94835590D02*
G01*
X146257681Y-94866125D01*
X146308012Y-94881392D01*
X146447164Y-94955771D01*
X146569133Y-95055867D01*
X146645565Y-95149000D01*
X146669229Y-95177835D01*
X146743608Y-95316987D01*
X146750281Y-95338985D01*
X146789410Y-95467977D01*
X146801000Y-95585655D01*
X146801000Y-96414345D01*
X146789410Y-96532023D01*
X146758875Y-96632682D01*
X146743608Y-96683013D01*
X146669229Y-96822165D01*
X146569133Y-96944133D01*
X146447165Y-97044229D01*
X146308013Y-97118608D01*
X146257682Y-97133875D01*
X146157023Y-97164410D01*
X146000000Y-97179875D01*
X145842978Y-97164410D01*
X145742319Y-97133875D01*
X145691988Y-97118608D01*
X145552836Y-97044229D01*
X145430868Y-96944133D01*
X145330772Y-96822165D01*
X145256393Y-96683013D01*
X145241125Y-96632682D01*
X145210590Y-96532023D01*
X145199000Y-96414345D01*
X145199000Y-95585656D01*
X145210590Y-95467978D01*
X145241125Y-95367319D01*
X145256392Y-95316988D01*
X145330771Y-95177836D01*
X145354436Y-95149000D01*
X145430867Y-95055867D01*
X145552835Y-94955771D01*
X145691987Y-94881392D01*
X145742318Y-94866125D01*
X145842977Y-94835590D01*
X146000000Y-94820125D01*
X146157022Y-94835590D01*
X146157022Y-94835590D01*
G37*
G36*
X136157022Y-94835590D02*
G01*
X136257681Y-94866125D01*
X136308012Y-94881392D01*
X136447164Y-94955771D01*
X136569133Y-95055867D01*
X136645565Y-95149000D01*
X136669229Y-95177835D01*
X136743608Y-95316987D01*
X136750281Y-95338985D01*
X136789410Y-95467977D01*
X136801000Y-95585655D01*
X136801000Y-96414345D01*
X136789410Y-96532023D01*
X136758875Y-96632682D01*
X136743608Y-96683013D01*
X136669229Y-96822165D01*
X136569133Y-96944133D01*
X136447165Y-97044229D01*
X136308013Y-97118608D01*
X136257682Y-97133875D01*
X136157023Y-97164410D01*
X136000000Y-97179875D01*
X135842978Y-97164410D01*
X135742319Y-97133875D01*
X135691988Y-97118608D01*
X135552836Y-97044229D01*
X135430868Y-96944133D01*
X135330772Y-96822165D01*
X135256393Y-96683013D01*
X135241125Y-96632682D01*
X135210590Y-96532023D01*
X135199000Y-96414345D01*
X135199000Y-95585656D01*
X135210590Y-95467978D01*
X135241125Y-95367319D01*
X135256392Y-95316988D01*
X135330771Y-95177836D01*
X135354436Y-95149000D01*
X135430867Y-95055867D01*
X135552835Y-94955771D01*
X135691987Y-94881392D01*
X135742318Y-94866125D01*
X135842977Y-94835590D01*
X136000000Y-94820125D01*
X136157022Y-94835590D01*
X136157022Y-94835590D01*
G37*
G36*
X138657022Y-94835590D02*
G01*
X138757681Y-94866125D01*
X138808012Y-94881392D01*
X138947164Y-94955771D01*
X139069133Y-95055867D01*
X139145565Y-95149000D01*
X139169229Y-95177835D01*
X139243608Y-95316987D01*
X139250281Y-95338985D01*
X139289410Y-95467977D01*
X139301000Y-95585655D01*
X139301000Y-96414345D01*
X139289410Y-96532023D01*
X139258875Y-96632682D01*
X139243608Y-96683013D01*
X139169229Y-96822165D01*
X139069133Y-96944133D01*
X138947165Y-97044229D01*
X138808013Y-97118608D01*
X138757682Y-97133875D01*
X138657023Y-97164410D01*
X138500000Y-97179875D01*
X138342978Y-97164410D01*
X138242319Y-97133875D01*
X138191988Y-97118608D01*
X138052836Y-97044229D01*
X137930868Y-96944133D01*
X137830772Y-96822165D01*
X137756393Y-96683013D01*
X137741125Y-96632682D01*
X137710590Y-96532023D01*
X137699000Y-96414345D01*
X137699000Y-95585656D01*
X137710590Y-95467978D01*
X137741125Y-95367319D01*
X137756392Y-95316988D01*
X137830771Y-95177836D01*
X137854436Y-95149000D01*
X137930867Y-95055867D01*
X138052835Y-94955771D01*
X138191987Y-94881392D01*
X138242318Y-94866125D01*
X138342977Y-94835590D01*
X138500000Y-94820125D01*
X138657022Y-94835590D01*
X138657022Y-94835590D01*
G37*
G36*
X130157022Y-94835590D02*
G01*
X130257681Y-94866125D01*
X130308012Y-94881392D01*
X130447164Y-94955771D01*
X130569133Y-95055867D01*
X130645565Y-95149000D01*
X130669229Y-95177835D01*
X130743608Y-95316987D01*
X130750281Y-95338985D01*
X130789410Y-95467977D01*
X130801000Y-95585655D01*
X130801000Y-96414345D01*
X130789410Y-96532023D01*
X130758875Y-96632682D01*
X130743608Y-96683013D01*
X130669229Y-96822165D01*
X130569133Y-96944133D01*
X130447165Y-97044229D01*
X130308013Y-97118608D01*
X130257682Y-97133875D01*
X130157023Y-97164410D01*
X130000000Y-97179875D01*
X129842978Y-97164410D01*
X129742319Y-97133875D01*
X129691988Y-97118608D01*
X129552836Y-97044229D01*
X129430868Y-96944133D01*
X129330772Y-96822165D01*
X129256393Y-96683013D01*
X129241125Y-96632682D01*
X129210590Y-96532023D01*
X129199000Y-96414345D01*
X129199000Y-95585656D01*
X129210590Y-95467978D01*
X129241125Y-95367319D01*
X129256392Y-95316988D01*
X129330771Y-95177836D01*
X129354436Y-95149000D01*
X129430867Y-95055867D01*
X129552835Y-94955771D01*
X129691987Y-94881392D01*
X129742318Y-94866125D01*
X129842977Y-94835590D01*
X130000000Y-94820125D01*
X130157022Y-94835590D01*
X130157022Y-94835590D01*
G37*
G36*
X120157022Y-94835590D02*
G01*
X120257681Y-94866125D01*
X120308012Y-94881392D01*
X120447164Y-94955771D01*
X120569133Y-95055867D01*
X120645565Y-95149000D01*
X120669229Y-95177835D01*
X120743608Y-95316987D01*
X120750281Y-95338985D01*
X120789410Y-95467977D01*
X120801000Y-95585655D01*
X120801000Y-96414345D01*
X120789410Y-96532023D01*
X120758875Y-96632682D01*
X120743608Y-96683013D01*
X120669229Y-96822165D01*
X120569133Y-96944133D01*
X120447165Y-97044229D01*
X120308013Y-97118608D01*
X120257682Y-97133875D01*
X120157023Y-97164410D01*
X120000000Y-97179875D01*
X119842978Y-97164410D01*
X119742319Y-97133875D01*
X119691988Y-97118608D01*
X119552836Y-97044229D01*
X119430868Y-96944133D01*
X119330772Y-96822165D01*
X119256393Y-96683013D01*
X119241125Y-96632682D01*
X119210590Y-96532023D01*
X119199000Y-96414345D01*
X119199000Y-95585656D01*
X119210590Y-95467978D01*
X119241125Y-95367319D01*
X119256392Y-95316988D01*
X119330771Y-95177836D01*
X119354436Y-95149000D01*
X119430867Y-95055867D01*
X119552835Y-94955771D01*
X119691987Y-94881392D01*
X119742318Y-94866125D01*
X119842977Y-94835590D01*
X120000000Y-94820125D01*
X120157022Y-94835590D01*
X120157022Y-94835590D01*
G37*
G36*
X122657022Y-94835590D02*
G01*
X122757681Y-94866125D01*
X122808012Y-94881392D01*
X122947164Y-94955771D01*
X123069133Y-95055867D01*
X123145565Y-95149000D01*
X123169229Y-95177835D01*
X123243608Y-95316987D01*
X123250281Y-95338985D01*
X123289410Y-95467977D01*
X123301000Y-95585655D01*
X123301000Y-96414345D01*
X123289410Y-96532023D01*
X123258875Y-96632682D01*
X123243608Y-96683013D01*
X123169229Y-96822165D01*
X123069133Y-96944133D01*
X122947165Y-97044229D01*
X122808013Y-97118608D01*
X122757682Y-97133875D01*
X122657023Y-97164410D01*
X122500000Y-97179875D01*
X122342978Y-97164410D01*
X122242319Y-97133875D01*
X122191988Y-97118608D01*
X122052836Y-97044229D01*
X121930868Y-96944133D01*
X121830772Y-96822165D01*
X121756393Y-96683013D01*
X121741125Y-96632682D01*
X121710590Y-96532023D01*
X121699000Y-96414345D01*
X121699000Y-95585656D01*
X121710590Y-95467978D01*
X121741125Y-95367319D01*
X121756392Y-95316988D01*
X121830771Y-95177836D01*
X121854436Y-95149000D01*
X121930867Y-95055867D01*
X122052835Y-94955771D01*
X122191987Y-94881392D01*
X122242318Y-94866125D01*
X122342977Y-94835590D01*
X122500000Y-94820125D01*
X122657022Y-94835590D01*
X122657022Y-94835590D01*
G37*
G36*
X127657022Y-94835590D02*
G01*
X127757681Y-94866125D01*
X127808012Y-94881392D01*
X127947164Y-94955771D01*
X128069133Y-95055867D01*
X128145565Y-95149000D01*
X128169229Y-95177835D01*
X128243608Y-95316987D01*
X128250281Y-95338985D01*
X128289410Y-95467977D01*
X128301000Y-95585655D01*
X128301000Y-96414345D01*
X128289410Y-96532023D01*
X128258875Y-96632682D01*
X128243608Y-96683013D01*
X128169229Y-96822165D01*
X128069133Y-96944133D01*
X127947165Y-97044229D01*
X127808013Y-97118608D01*
X127757682Y-97133875D01*
X127657023Y-97164410D01*
X127500000Y-97179875D01*
X127342978Y-97164410D01*
X127242319Y-97133875D01*
X127191988Y-97118608D01*
X127052836Y-97044229D01*
X126930868Y-96944133D01*
X126830772Y-96822165D01*
X126756393Y-96683013D01*
X126741125Y-96632682D01*
X126710590Y-96532023D01*
X126699000Y-96414345D01*
X126699000Y-95585656D01*
X126710590Y-95467978D01*
X126741125Y-95367319D01*
X126756392Y-95316988D01*
X126830771Y-95177836D01*
X126854436Y-95149000D01*
X126930867Y-95055867D01*
X127052835Y-94955771D01*
X127191987Y-94881392D01*
X127242318Y-94866125D01*
X127342977Y-94835590D01*
X127500000Y-94820125D01*
X127657022Y-94835590D01*
X127657022Y-94835590D01*
G37*
G36*
X141248228Y-95181703D02*
G01*
X141403100Y-95245853D01*
X141542481Y-95338985D01*
X141661015Y-95457519D01*
X141754147Y-95596900D01*
X141818297Y-95751772D01*
X141851000Y-95916184D01*
X141851000Y-96083816D01*
X141818297Y-96248228D01*
X141754147Y-96403100D01*
X141661015Y-96542481D01*
X141542481Y-96661015D01*
X141403100Y-96754147D01*
X141248228Y-96818297D01*
X141083816Y-96851000D01*
X140916184Y-96851000D01*
X140751772Y-96818297D01*
X140596900Y-96754147D01*
X140457519Y-96661015D01*
X140338985Y-96542481D01*
X140245853Y-96403100D01*
X140181703Y-96248228D01*
X140149000Y-96083816D01*
X140149000Y-95916184D01*
X140181703Y-95751772D01*
X140245853Y-95596900D01*
X140338985Y-95457519D01*
X140457519Y-95338985D01*
X140596900Y-95245853D01*
X140751772Y-95181703D01*
X140916184Y-95149000D01*
X141083816Y-95149000D01*
X141248228Y-95181703D01*
X141248228Y-95181703D01*
G37*
G36*
X125248228Y-95181703D02*
G01*
X125403100Y-95245853D01*
X125542481Y-95338985D01*
X125661015Y-95457519D01*
X125754147Y-95596900D01*
X125818297Y-95751772D01*
X125851000Y-95916184D01*
X125851000Y-96083816D01*
X125818297Y-96248228D01*
X125754147Y-96403100D01*
X125661015Y-96542481D01*
X125542481Y-96661015D01*
X125403100Y-96754147D01*
X125248228Y-96818297D01*
X125083816Y-96851000D01*
X124916184Y-96851000D01*
X124751772Y-96818297D01*
X124596900Y-96754147D01*
X124457519Y-96661015D01*
X124338985Y-96542481D01*
X124245853Y-96403100D01*
X124181703Y-96248228D01*
X124149000Y-96083816D01*
X124149000Y-95916184D01*
X124181703Y-95751772D01*
X124245853Y-95596900D01*
X124338985Y-95457519D01*
X124457519Y-95338985D01*
X124596900Y-95245853D01*
X124751772Y-95181703D01*
X124916184Y-95149000D01*
X125083816Y-95149000D01*
X125248228Y-95181703D01*
X125248228Y-95181703D01*
G37*
G36*
X120248228Y-90181703D02*
G01*
X120403100Y-90245853D01*
X120542481Y-90338985D01*
X120661015Y-90457519D01*
X120754147Y-90596900D01*
X120818297Y-90751772D01*
X120851000Y-90916184D01*
X120851000Y-91083816D01*
X120818297Y-91248228D01*
X120754147Y-91403100D01*
X120661015Y-91542481D01*
X120542481Y-91661015D01*
X120403100Y-91754147D01*
X120248228Y-91818297D01*
X120083816Y-91851000D01*
X119916184Y-91851000D01*
X119751772Y-91818297D01*
X119596900Y-91754147D01*
X119457519Y-91661015D01*
X119338985Y-91542481D01*
X119245853Y-91403100D01*
X119181703Y-91248228D01*
X119149000Y-91083816D01*
X119149000Y-90916184D01*
X119181703Y-90751772D01*
X119245853Y-90596900D01*
X119338985Y-90457519D01*
X119457519Y-90338985D01*
X119596900Y-90245853D01*
X119751772Y-90181703D01*
X119916184Y-90149000D01*
X120083816Y-90149000D01*
X120248228Y-90181703D01*
X120248228Y-90181703D01*
G37*
G36*
X130248228Y-90181703D02*
G01*
X130403100Y-90245853D01*
X130542481Y-90338985D01*
X130661015Y-90457519D01*
X130754147Y-90596900D01*
X130818297Y-90751772D01*
X130851000Y-90916184D01*
X130851000Y-91083816D01*
X130818297Y-91248228D01*
X130754147Y-91403100D01*
X130661015Y-91542481D01*
X130542481Y-91661015D01*
X130403100Y-91754147D01*
X130248228Y-91818297D01*
X130083816Y-91851000D01*
X129916184Y-91851000D01*
X129751772Y-91818297D01*
X129596900Y-91754147D01*
X129457519Y-91661015D01*
X129338985Y-91542481D01*
X129245853Y-91403100D01*
X129181703Y-91248228D01*
X129149000Y-91083816D01*
X129149000Y-90916184D01*
X129181703Y-90751772D01*
X129245853Y-90596900D01*
X129338985Y-90457519D01*
X129457519Y-90338985D01*
X129596900Y-90245853D01*
X129751772Y-90181703D01*
X129916184Y-90149000D01*
X130083816Y-90149000D01*
X130248228Y-90181703D01*
X130248228Y-90181703D01*
G37*
G36*
X136248228Y-90181703D02*
G01*
X136403100Y-90245853D01*
X136542481Y-90338985D01*
X136661015Y-90457519D01*
X136754147Y-90596900D01*
X136818297Y-90751772D01*
X136851000Y-90916184D01*
X136851000Y-91083816D01*
X136818297Y-91248228D01*
X136754147Y-91403100D01*
X136661015Y-91542481D01*
X136542481Y-91661015D01*
X136403100Y-91754147D01*
X136248228Y-91818297D01*
X136083816Y-91851000D01*
X135916184Y-91851000D01*
X135751772Y-91818297D01*
X135596900Y-91754147D01*
X135457519Y-91661015D01*
X135338985Y-91542481D01*
X135245853Y-91403100D01*
X135181703Y-91248228D01*
X135149000Y-91083816D01*
X135149000Y-90916184D01*
X135181703Y-90751772D01*
X135245853Y-90596900D01*
X135338985Y-90457519D01*
X135457519Y-90338985D01*
X135596900Y-90245853D01*
X135751772Y-90181703D01*
X135916184Y-90149000D01*
X136083816Y-90149000D01*
X136248228Y-90181703D01*
X136248228Y-90181703D01*
G37*
G36*
X146248228Y-90181703D02*
G01*
X146403100Y-90245853D01*
X146542481Y-90338985D01*
X146661015Y-90457519D01*
X146754147Y-90596900D01*
X146818297Y-90751772D01*
X146851000Y-90916184D01*
X146851000Y-91083816D01*
X146818297Y-91248228D01*
X146754147Y-91403100D01*
X146661015Y-91542481D01*
X146542481Y-91661015D01*
X146403100Y-91754147D01*
X146248228Y-91818297D01*
X146083816Y-91851000D01*
X145916184Y-91851000D01*
X145751772Y-91818297D01*
X145596900Y-91754147D01*
X145457519Y-91661015D01*
X145338985Y-91542481D01*
X145245853Y-91403100D01*
X145181703Y-91248228D01*
X145149000Y-91083816D01*
X145149000Y-90916184D01*
X145181703Y-90751772D01*
X145245853Y-90596900D01*
X145338985Y-90457519D01*
X145457519Y-90338985D01*
X145596900Y-90245853D01*
X145751772Y-90181703D01*
X145916184Y-90149000D01*
X146083816Y-90149000D01*
X146248228Y-90181703D01*
X146248228Y-90181703D01*
G37*
G36*
X125453571Y-90202863D02*
G01*
X125532023Y-90210590D01*
X125632682Y-90241125D01*
X125683013Y-90256392D01*
X125822165Y-90330771D01*
X125944133Y-90430867D01*
X126044229Y-90552835D01*
X126118608Y-90691987D01*
X126118608Y-90691988D01*
X126164410Y-90842977D01*
X126179875Y-91000000D01*
X126164410Y-91157023D01*
X126136743Y-91248228D01*
X126118608Y-91308013D01*
X126044229Y-91447165D01*
X125944133Y-91569133D01*
X125822165Y-91669229D01*
X125683013Y-91743608D01*
X125632682Y-91758875D01*
X125532023Y-91789410D01*
X125453571Y-91797137D01*
X125414346Y-91801000D01*
X124585654Y-91801000D01*
X124546429Y-91797137D01*
X124467977Y-91789410D01*
X124367318Y-91758875D01*
X124316987Y-91743608D01*
X124177835Y-91669229D01*
X124055867Y-91569133D01*
X123955771Y-91447165D01*
X123881392Y-91308013D01*
X123863257Y-91248228D01*
X123835590Y-91157023D01*
X123820125Y-91000000D01*
X123835590Y-90842977D01*
X123881392Y-90691988D01*
X123881392Y-90691987D01*
X123955771Y-90552835D01*
X124055867Y-90430867D01*
X124177835Y-90330771D01*
X124316987Y-90256392D01*
X124367318Y-90241125D01*
X124467977Y-90210590D01*
X124546429Y-90202863D01*
X124585654Y-90199000D01*
X125414346Y-90199000D01*
X125453571Y-90202863D01*
X125453571Y-90202863D01*
G37*
G36*
X141453571Y-90202863D02*
G01*
X141532023Y-90210590D01*
X141632682Y-90241125D01*
X141683013Y-90256392D01*
X141822165Y-90330771D01*
X141944133Y-90430867D01*
X142044229Y-90552835D01*
X142118608Y-90691987D01*
X142118608Y-90691988D01*
X142164410Y-90842977D01*
X142179875Y-91000000D01*
X142164410Y-91157023D01*
X142136743Y-91248228D01*
X142118608Y-91308013D01*
X142044229Y-91447165D01*
X141944133Y-91569133D01*
X141822165Y-91669229D01*
X141683013Y-91743608D01*
X141632682Y-91758875D01*
X141532023Y-91789410D01*
X141453571Y-91797137D01*
X141414346Y-91801000D01*
X140585654Y-91801000D01*
X140546429Y-91797137D01*
X140467977Y-91789410D01*
X140367318Y-91758875D01*
X140316987Y-91743608D01*
X140177835Y-91669229D01*
X140055867Y-91569133D01*
X139955771Y-91447165D01*
X139881392Y-91308013D01*
X139863257Y-91248228D01*
X139835590Y-91157023D01*
X139820125Y-91000000D01*
X139835590Y-90842977D01*
X139881392Y-90691988D01*
X139881392Y-90691987D01*
X139955771Y-90552835D01*
X140055867Y-90430867D01*
X140177835Y-90330771D01*
X140316987Y-90256392D01*
X140367318Y-90241125D01*
X140467977Y-90210590D01*
X140546429Y-90202863D01*
X140585654Y-90199000D01*
X141414346Y-90199000D01*
X141453571Y-90202863D01*
X141453571Y-90202863D01*
G37*
G36*
X136248228Y-87681703D02*
G01*
X136403100Y-87745853D01*
X136542481Y-87838985D01*
X136661015Y-87957519D01*
X136754147Y-88096900D01*
X136818297Y-88251772D01*
X136851000Y-88416184D01*
X136851000Y-88583816D01*
X136818297Y-88748228D01*
X136754147Y-88903100D01*
X136661015Y-89042481D01*
X136542481Y-89161015D01*
X136403100Y-89254147D01*
X136248228Y-89318297D01*
X136083816Y-89351000D01*
X135916184Y-89351000D01*
X135751772Y-89318297D01*
X135596900Y-89254147D01*
X135457519Y-89161015D01*
X135338985Y-89042481D01*
X135245853Y-88903100D01*
X135181703Y-88748228D01*
X135149000Y-88583816D01*
X135149000Y-88416184D01*
X135181703Y-88251772D01*
X135245853Y-88096900D01*
X135338985Y-87957519D01*
X135457519Y-87838985D01*
X135596900Y-87745853D01*
X135751772Y-87681703D01*
X135916184Y-87649000D01*
X136083816Y-87649000D01*
X136248228Y-87681703D01*
X136248228Y-87681703D01*
G37*
G36*
X146248228Y-87681703D02*
G01*
X146403100Y-87745853D01*
X146542481Y-87838985D01*
X146661015Y-87957519D01*
X146754147Y-88096900D01*
X146818297Y-88251772D01*
X146851000Y-88416184D01*
X146851000Y-88583816D01*
X146818297Y-88748228D01*
X146754147Y-88903100D01*
X146661015Y-89042481D01*
X146542481Y-89161015D01*
X146403100Y-89254147D01*
X146248228Y-89318297D01*
X146083816Y-89351000D01*
X145916184Y-89351000D01*
X145751772Y-89318297D01*
X145596900Y-89254147D01*
X145457519Y-89161015D01*
X145338985Y-89042481D01*
X145245853Y-88903100D01*
X145181703Y-88748228D01*
X145149000Y-88583816D01*
X145149000Y-88416184D01*
X145181703Y-88251772D01*
X145245853Y-88096900D01*
X145338985Y-87957519D01*
X145457519Y-87838985D01*
X145596900Y-87745853D01*
X145751772Y-87681703D01*
X145916184Y-87649000D01*
X146083816Y-87649000D01*
X146248228Y-87681703D01*
X146248228Y-87681703D01*
G37*
G36*
X130248228Y-87681703D02*
G01*
X130403100Y-87745853D01*
X130542481Y-87838985D01*
X130661015Y-87957519D01*
X130754147Y-88096900D01*
X130818297Y-88251772D01*
X130851000Y-88416184D01*
X130851000Y-88583816D01*
X130818297Y-88748228D01*
X130754147Y-88903100D01*
X130661015Y-89042481D01*
X130542481Y-89161015D01*
X130403100Y-89254147D01*
X130248228Y-89318297D01*
X130083816Y-89351000D01*
X129916184Y-89351000D01*
X129751772Y-89318297D01*
X129596900Y-89254147D01*
X129457519Y-89161015D01*
X129338985Y-89042481D01*
X129245853Y-88903100D01*
X129181703Y-88748228D01*
X129149000Y-88583816D01*
X129149000Y-88416184D01*
X129181703Y-88251772D01*
X129245853Y-88096900D01*
X129338985Y-87957519D01*
X129457519Y-87838985D01*
X129596900Y-87745853D01*
X129751772Y-87681703D01*
X129916184Y-87649000D01*
X130083816Y-87649000D01*
X130248228Y-87681703D01*
X130248228Y-87681703D01*
G37*
G36*
X120248228Y-87681703D02*
G01*
X120403100Y-87745853D01*
X120542481Y-87838985D01*
X120661015Y-87957519D01*
X120754147Y-88096900D01*
X120818297Y-88251772D01*
X120851000Y-88416184D01*
X120851000Y-88583816D01*
X120818297Y-88748228D01*
X120754147Y-88903100D01*
X120661015Y-89042481D01*
X120542481Y-89161015D01*
X120403100Y-89254147D01*
X120248228Y-89318297D01*
X120083816Y-89351000D01*
X119916184Y-89351000D01*
X119751772Y-89318297D01*
X119596900Y-89254147D01*
X119457519Y-89161015D01*
X119338985Y-89042481D01*
X119245853Y-88903100D01*
X119181703Y-88748228D01*
X119149000Y-88583816D01*
X119149000Y-88416184D01*
X119181703Y-88251772D01*
X119245853Y-88096900D01*
X119338985Y-87957519D01*
X119457519Y-87838985D01*
X119596900Y-87745853D01*
X119751772Y-87681703D01*
X119916184Y-87649000D01*
X120083816Y-87649000D01*
X120248228Y-87681703D01*
X120248228Y-87681703D01*
G37*
M02*
